<svg xmlns="http://www.w3.org/2000/svg" xmlns:xlink="http://www.w3.org/1999/xlink" viewBox="0 0 224.41 73.96">
  <defs>
    <style>
      .cls-1,.cls-10,.cls-11,.cls-12,.cls-13,.cls-14,.cls-15,.cls-16,.cls-17,
      .cls-18,.cls-19,.cls-2,.cls-20,.cls-21,.cls-22,.cls-23,.cls-24,.cls-25,
      .cls-26,.cls-27,.cls-28,.cls-29,.cls-3,.cls-30,.cls-31,.cls-32,.cls-33,
      .cls-34,.cls-35,.cls-36,.cls-37,.cls-38,.cls-39,.cls-4,.cls-40,.cls-41,
      .cls-42,.cls-43,.cls-44,.cls-45,.cls-46,.cls-47,.cls-48,.cls-49,.cls-5,
      .cls-50,.cls-51,.cls-52,.cls-53,.cls-54,.cls-55,.cls-6,.cls-62,.cls-63,
      .cls-64,.cls-65,.cls-66,.cls-67,.cls-68,.cls-69,.cls-7,.cls-70,.cls-71,
      .cls-8,.cls-9 {fill-rule:evenodd}
      .cls-1 {fill:#682900}
      .cls-2 {fill:#ac834b}
      .cls-3 {fill:#231f20}
      .cls-4 {fill:#ae893d}
      .cls-5 {fill:url(#GradientFill_8)}
      .cls-6 {fill:url(#GradientFill_8-2)}
      .cls-7 {fill:url(#GradientFill_8-3)}
      .cls-8 {fill:url(#GradientFill_8-4)}
      .cls-9 {fill:url(#GradientFill_8-5)}
      .cls-10 {fill:url(#GradientFill_8-6)}
      .cls-11 {fill:url(#GradientFill_8-7)}
      .cls-12 {fill:url(#GradientFill_8-8)}
      .cls-13 {fill:url(#GradientFill_8-9)}
      .cls-14 {fill:url(#GradientFill_8-10)}
      .cls-15 {fill:url(#GradientFill_8-11)}
      .cls-16 {fill:url(#GradientFill_8-12)}
      .cls-17 {fill:url(#GradientFill_8-13)}
      .cls-18 {fill:url(#GradientFill_8-14)}
      .cls-19 {fill:url(#GradientFill_8-15)}
      .cls-20 {fill:url(#GradientFill_8-16)}
      .cls-21 {fill:url(#GradientFill_8-17)}
      .cls-22 {fill:url(#GradientFill_8-18)}
      .cls-23 {fill:url(#GradientFill_8-19)}
      .cls-24 {fill:url(#GradientFill_8-20)}
      .cls-25 {fill:url(#GradientFill_8-21)}
      .cls-26 {fill:url(#GradientFill_8-22)}
      .cls-27 {fill:url(#GradientFill_8-23)}
      .cls-28 {fill:url(#GradientFill_8-24)}
      .cls-29 {fill:url(#GradientFill_8-25)}
      .cls-30 {fill:url(#GradientFill_8-26)}
      .cls-31 {fill:url(#GradientFill_8-27)}
      .cls-32 {fill:url(#GradientFill_8-28)}
      .cls-33 {fill:url(#GradientFill_8-29)}
      .cls-34 {fill:url(#GradientFill_8-30)}
      .cls-35 {fill:url(#GradientFill_8-31)}
      .cls-36 {fill:url(#GradientFill_8-32)}
      .cls-37 {fill:url(#GradientFill_8-33)}
      .cls-38 {fill:url(#GradientFill_8-34)}
      .cls-39 {fill:url(#GradientFill_8-35)}
      .cls-40 {fill:url(#GradientFill_8-36)}
      .cls-41 {fill:url(#GradientFill_8-37)}
      .cls-42 {fill:url(#GradientFill_8-38)}
      .cls-43 {fill:url(#GradientFill_8-39)}
      .cls-44 {fill:url(#GradientFill_8-40)}
      .cls-45 {fill:url(#GradientFill_8-41)}
      .cls-46 {fill:url(#GradientFill_8-42)}
      .cls-47 {fill:url(#GradientFill_8-43)}
      .cls-48 {fill:url(#GradientFill_8-44)}
      .cls-49 {fill:url(#GradientFill_8-45)}
      .cls-50 {fill:url(#GradientFill_8-46)}
      .cls-51 {fill:url(#GradientFill_8-47)}
      .cls-52 {fill:url(#GradientFill_8-48)}
      .cls-53 {fill:url(#GradientFill_8-49)}
      .cls-54 {fill:#630000}
      .cls-55 {fill:#001500}
      .cls-56 {fill:url(#GradientFill_16)}
      .cls-57 {fill:url(#GradientFill_17)}
      .cls-58 {fill:url(#GradientFill_18)}
      .cls-59 {fill:url(#GradientFill_19)}
      .cls-60 {fill:url(#GradientFill_20)}
      .cls-61 {fill:url(#GradientFill_21)}
      .cls-62 {fill:url(#GradientFill_22)}
      .cls-63 {fill:url(#GradientFill_23)}
      .cls-64 {fill:url(#GradientFill_22-2)}
      .cls-65 {fill:#85878a}
      .cls-66 {fill:#9ea0a3}
      .cls-67 {fill:#58595b}
      .cls-68 {fill:#f1f1f2}
      .cls-69 {fill:#6d6e70}
      .cls-70 {fill:#bbbdbf}
      .cls-71 {fill:#929497}
    </style>
    <linearGradient id="GradientFill_8" x1="58.6" y1="22.91" x2="74.65" y2="26.33" gradientUnits="userSpaceOnUse">
      <stop offset="0" stop-color="#a76233"/>
      <stop offset="1" stop-color="#6a3f21"/>
    </linearGradient>
    <linearGradient id="GradientFill_8-2" x1="113.79" y1="3.8" x2="122" y2="5.55" xlink:href="#GradientFill_8"/>
    <linearGradient id="GradientFill_8-3" x1="27.86" y1="41.99" x2="114.45" y2="60.4" xlink:href="#GradientFill_8"/>
    <linearGradient id="GradientFill_8-4" x1="75.27" y1="57.88" x2="108.43" y2="64.92" xlink:href="#GradientFill_8"/>
    <linearGradient id="GradientFill_8-5" x1="135.92" y1="-0.05" x2="187.26" y2="10.86" xlink:href="#GradientFill_8"/>
    <linearGradient id="GradientFill_8-6" x1="128.38" y1="52.24" x2="172.18" y2="61.55" xlink:href="#GradientFill_8"/>
    <linearGradient id="GradientFill_8-7" x1="86.27" y1="15.53" x2="159.05" y2="31" xlink:href="#GradientFill_8"/>
    <linearGradient id="GradientFill_8-8" x1="86.82" y1="26.15" x2="137.4" y2="36.9" xlink:href="#GradientFill_8"/>
    <linearGradient id="GradientFill_8-9" x1="44.83" y1="7.3" x2="128.37" y2="25.06" xlink:href="#GradientFill_8"/>
    <linearGradient id="GradientFill_8-10" x1="49.25" y1="26.46" x2="70.19" y2="30.91" xlink:href="#GradientFill_8"/>
    <linearGradient id="GradientFill_8-11" x1="52.18" y1="37.46" x2="89.12" y2="45.31" xlink:href="#GradientFill_8"/>
    <linearGradient id="GradientFill_8-12" x1="125.76" y1="59.73" x2="170.5" y2="69.24" xlink:href="#GradientFill_8"/>
    <linearGradient id="GradientFill_8-13" x1="95.68" y1="35.8" x2="162.81" y2="50.07" xlink:href="#GradientFill_8"/>
    <linearGradient id="GradientFill_8-14" x1="67.95" y1="0.1" x2="106.96" y2="8.39" xlink:href="#GradientFill_8"/>
    <linearGradient id="GradientFill_8-15" x1="38.37" y1="9.54" x2="73.47" y2="17.01" xlink:href="#GradientFill_8"/>
    <linearGradient id="GradientFill_8-16" x1="71.98" y1="2.76" x2="105.39" y2="11.09" xlink:href="#GradientFill_8"/>
    <linearGradient id="GradientFill_8-17" x1="55.21" y1="53.04" x2="90.96" y2="60.64" xlink:href="#GradientFill_8"/>
    <linearGradient id="GradientFill_8-18" x1="33.34" y1="34.16" x2="39.96" y2="35.57" xlink:href="#GradientFill_8"/>
    <linearGradient id="GradientFill_8-19" x1="196.11" y1="18.67" x2="213.68" y2="22.41" xlink:href="#GradientFill_8"/>
    <linearGradient id="GradientFill_8-20" x1="158.58" y1="23.4" x2="209.16" y2="34.15" xlink:href="#GradientFill_8"/>
    <linearGradient id="GradientFill_8-21" x1="30.04" y1="-0.19" x2="49.27" y2="3.89" xlink:href="#GradientFill_8"/>
    <linearGradient id="GradientFill_8-22" x1="49.99" y1="-2.63" x2="79.9" y2="3.73" xlink:href="#GradientFill_8"/>
    <linearGradient id="GradientFill_8-23" x1="202.95" y1="-0.96" x2="214.23" y2="1.44" xlink:href="#GradientFill_8"/>
    <linearGradient id="GradientFill_8-24" x1="187.8" y1="0.37" x2="212.3" y2="5.58" xlink:href="#GradientFill_8"/>
    <linearGradient id="GradientFill_8-25" x1="184.13" y1="4.08" x2="212.5" y2="10.11" xlink:href="#GradientFill_8"/>
    <linearGradient id="GradientFill_8-26" x1="123.24" y1="10.31" x2="204.02" y2="27.48" xlink:href="#GradientFill_8"/>
    <linearGradient id="GradientFill_8-27" x1="197.02" y1="31.46" x2="214.24" y2="35.12" xlink:href="#GradientFill_8"/>
    <linearGradient id="GradientFill_8-28" x1="193.32" y1="41.33" x2="213.81" y2="45.68" xlink:href="#GradientFill_8"/>
    <linearGradient id="GradientFill_8-29" x1="108.2" y1="43.38" x2="199.93" y2="62.88" xlink:href="#GradientFill_8"/>
    <linearGradient id="GradientFill_8-30" x1="182.28" y1="53.09" x2="210.82" y2="59.16" xlink:href="#GradientFill_8"/>
    <linearGradient id="GradientFill_8-31" x1="198.01" y1="60.09" x2="214.05" y2="63.5" xlink:href="#GradientFill_8"/>
    <linearGradient id="GradientFill_8-32" x1="197.54" y1="66.47" x2="213.83" y2="69.93" xlink:href="#GradientFill_8"/>
    <linearGradient id="GradientFill_8-33" x1="13.05" y1="62.23" x2="64.28" y2="73.12" xlink:href="#GradientFill_8"/>
    <linearGradient id="GradientFill_8-34" x1="10.79" y1="56.26" x2="51.42" y2="64.89" xlink:href="#GradientFill_8"/>
    <linearGradient id="GradientFill_8-35" x1="2.23" y1="56.61" x2="7.84" y2="57.8" xlink:href="#GradientFill_8"/>
    <linearGradient id="GradientFill_8-36" x1="11.58" y1="36.68" x2="61.72" y2="47.34" xlink:href="#GradientFill_8"/>
    <linearGradient id="GradientFill_8-37" x1="3.09" y1="39.32" x2="10.43" y2="40.89" xlink:href="#GradientFill_8"/>
    <linearGradient id="GradientFill_8-38" x1="3.72" y1="33.91" x2="12.09" y2="35.69" xlink:href="#GradientFill_8"/>
    <linearGradient id="GradientFill_8-39" x1="10.23" y1="22.25" x2="52.81" y2="31.3" xlink:href="#GradientFill_8"/>
    <linearGradient id="GradientFill_8-40" x1="5.09" y1="23.16" x2="20.16" y2="26.36" xlink:href="#GradientFill_8"/>
    <linearGradient id="GradientFill_8-41" x1="3.26" y1="21.78" x2="9.03" y2="23.01" xlink:href="#GradientFill_8"/>
    <linearGradient id="GradientFill_8-42" x1="6.34" y1="16.93" x2="23.32" y2="20.54" xlink:href="#GradientFill_8"/>
    <linearGradient id="GradientFill_8-43" x1="9.51" y1="5.8" x2="43.14" y2="12.95" xlink:href="#GradientFill_8"/>
    <linearGradient id="GradientFill_8-44" x1="6.96" y1="3.32" x2="31.02" y2="8.43" xlink:href="#GradientFill_8"/>
    <linearGradient id="GradientFill_8-45" x1="2.92" y1="7.25" x2="3.96" y2="7.48" xlink:href="#GradientFill_8"/>
    <linearGradient id="GradientFill_8-46" x1="6.14" y1="1.26" x2="17.99" y2="3.78" xlink:href="#GradientFill_8"/>
    <linearGradient id="GradientFill_8-47" x1="123.39" y1="-2.38" x2="128.5" y2="-1.29" xlink:href="#GradientFill_8"/>
    <linearGradient id="GradientFill_8-48" x1="123.55" y1="68.19" x2="129.16" y2="69.91" xlink:href="#GradientFill_8"/>
    <linearGradient id="GradientFill_8-49" x1="128.8" y1="35.26" x2="163.93" y2="43.37" xlink:href="#GradientFill_8"/>
    <linearGradient id="GradientFill_16" x1="210.93" y1="3.74" x2="213.19" y2="2.33" gradientUnits="userSpaceOnUse">
      <stop offset="0" stop-color="#545456"/>
      <stop offset="1" stop-color="#001500"/>
    </linearGradient>
    <linearGradient id="GradientFill_17" x1="210.94" y1="3.95" x2="213.19" y2="2.86" gradientUnits="userSpaceOnUse">
      <stop offset="0" stop-color="#656668"/>
      <stop offset="1" stop-color="#001500"/>
    </linearGradient>
    <linearGradient id="GradientFill_18" x1="211" y1="3.76" x2="213.18" y2="2.4" gradientUnits="userSpaceOnUse">
      <stop offset="0" stop-color="#838587"/>
      <stop offset="1" stop-color="#001500"/>
    </linearGradient>
    <linearGradient id="GradientFill_19" x1="211.06" y1="3.81" x2="213.18" y2="2.53" gradientUnits="userSpaceOnUse">
      <stop offset="0" stop-color="#a0a2a4"/>
      <stop offset="1" stop-color="#001500"/>
    </linearGradient>
    <linearGradient id="GradientFill_20" x1="210.99" y1="3.84" x2="213.26" y2="2.43" gradientUnits="userSpaceOnUse">
      <stop offset="0" stop-color="#c4c5c7"/>
      <stop offset="1" stop-color="#001500"/>
    </linearGradient>
    <linearGradient id="GradientFill_21" x1="211.05" y1="3.88" x2="213.28" y2="2.55" gradientUnits="userSpaceOnUse">
      <stop offset="0" stop-color="#e6e7e8"/>
      <stop offset="1" stop-color="#001500"/>
    </linearGradient>
    <linearGradient id="GradientFill_22" x1="211.27" y1="6.97" x2="204.19" y2="6.47" gradientUnits="userSpaceOnUse">
      <stop offset="0" stop-color="#5e5f61"/>
      <stop offset="0.42" stop-color="#808184"/>
      <stop offset="1" stop-color="#434345"/>
    </linearGradient>
    <linearGradient id="GradientFill_23" x1="209.85" y1="0.46" x2="208.59" y2="4.12" gradientUnits="userSpaceOnUse">
      <stop offset="0" stop-color="#898b8d"/>
      <stop offset="1" stop-color="#e6e7e8"/>
    </linearGradient>
    <linearGradient id="GradientFill_22-2" x1="211.41" y1="7.35" x2="203.53" y2="6.94" xlink:href="#GradientFill_22"/>
  </defs>
  <g>
    <polygon class="cls-1" points="3.55 73.28 224.41 73.37 219.8 70.61 0.53 70.88 3.55 73.28"/>
    <polygon class="cls-2" points="219.8 70.61 224.41 73.37 222.99 3.5 218.45 0.48 219.8 70.61"/>
    <polygon class="cls-3"
             points="219.82 70.63 0.53 70.88 0.32 52.85 0.04 8.91 0 0 0.23 0.01 218.22 0.5 218.45 0.48 219.82 70.63"/>
    <path class="cls-4" d="M218.22.72.21.22c.1,23.41.24,47,.54,70.45l218.83-.26L218.53,18Z"/>
    <path class="cls-5"
          d="M66.24,27.84a147.53,147.53,0,0,0,25.42-2A89.29,89.29,0,0,1,80.8,27.93a125,125,0,0,1-12.69,1.13Z"/>
    <path class="cls-6" d="M137.09,6.89c-1.55,1.12-6.56.76-9.93,1.61l-.71-.45C130.14,7.54,133.43,7.36,137.09,6.89Z"/>
    <path class="cls-7"
          d="M107,52l-8.67.93c-2.91.31-5.82.61-8.71.93-3.77-.1-11.39.5-19,1.16-7.81.68-15.73,1.37-19.68,1.38-20,.06-24.4-2.1-43.34-2.94,1.68-.78,5-1.21,8.53-1.41s7.26-.22,10-.18a39,39,0,0,1,13.1.78,42.23,42.23,0,0,0,12.51,1.27c6.09-.18,16.33-1.08,26.66-2,10-1,20.14-2,26.84-2.47,0,0,10.09.55,20.6,1.16,10.27.59,20.93,1.22,24,1.55.61.89-.13,1-5.76.78S127.37,52.21,107,52Z"/>
    <path class="cls-8"
          d="M120.28,70.28a41.47,41.47,0,0,1-11-2.6,36.47,36.47,0,0,0-11.25-2.37c-1.07-.87-4.61-.65-8.25-.39s-7.34.55-8.55-.23c4.74-.4,15.72-1.87,20.35-1.23,4.58.44,9.13.92,14.05,1.14a101.24,101.24,0,0,0,15.7-.47c-2.83,1.44-14.34,1.79-15.48,2.3-.64.53.22,1.19,1.33,1.86A14,14,0,0,1,120.28,70.28Z"/>
    <path class="cls-9"
          d="M202.3,8c-2.9-.16-18.52-1.77-19.6-1.75-5.1.5-8.8.82-12.32,1s-7,.28-11.64.31a72.32,72.32,0,0,1-8.81,1.18,13.22,13.22,0,0,1-6.58-.91,43.63,43.63,0,0,0,8.14-.57c2.93-.41,6-.92,8.77-1.22,4.9.11,10.09,0,15.35-.24s10.4-.44,15.53-.55c1.87.42,4,.72,5.87,1.09A19.88,19.88,0,0,1,202.3,8Z"/>
    <path class="cls-10"
          d="M190.75,58.21c-1.21.51-4.23.82-7.46,1a72.16,72.16,0,0,1-8.32,0c-2,.26-3.42.6-5.13.92a71.35,71.35,0,0,1-14.74.74,65.15,65.15,0,0,0-8.41.24,51.32,51.32,0,0,0-7.21-.07c-2.58.07-5,.06-6.49-.54,5.73-1.1,12.5-1.24,19.29-1.39s13.36-.3,19.16-1.36C174.93,57.31,183.68,58.72,190.75,58.21Z"/>
    <path class="cls-11"
          d="M182.27,15.73c-3,1.13-13.54,1.73-18.26,2.74-5.93,1.27-10.75-.13-16.84,1.13-4.88,1-9.51,2.06-14.32,3.27s-9.85,2.56-15.46,4c-3.2.86-6.15,2.61-10.64,3.82-6.08,1.65-15.89,2.95-21.27,4.9-.82-1,1.52-1.81,4.82-2.57s7.44-1.43,10.42-2.2c2.72-.78,8.9-2.37,11-3.51.09-.36.37-.65.39-.81s-.2-.19-1.12,0c-2,1-19.45-2.82-22.74-2.71a4.1,4.1,0,0,1,3.14-1c4.78.26,21.45,2.43,25.47,1.93,7.06-1.21,13.53-2.49,18.59-3.59s8.56-2,10.06-2.41a93.8,93.8,0,0,1,19.41-2.41C170.8,16.12,176.44,16.22,182.27,15.73Z"/>
    <path class="cls-12"
          d="M160.52,29.43C159,30.55,150,31.89,147.16,32.62c-1.69.43-3.92.25-5.8.43-2.1.19-4,.72-6.34.91-6.48.56-12.65,1.15-19.58,2.18-7.77,1.15-17.33,2.34-25.42,3.08-.39-.65,1.37-1.14,3.66-1.6s5.09-.89,6.77-1.38c3.68-.54,7.11-.86,10.66-1.25a99.69,99.69,0,0,0,11.2-1.84c6.07-.38,12.05-.59,18.32-1.08A172.37,172.37,0,0,0,160.52,29.43Z"/>
    <path class="cls-13"
          d="M32.76,24.51c6.35-1,13.07-2.42,19.43-3.44s12.17-1.64,17.07-1.25q11.35-1.74,21.81-2.45c6.82-.47,13.38-.63,19.74-.56l7.59-1.67c.38,0,14.25.48,16,.36,1.5-.09,20.55-3.41,23.89-3.95-.56.66-2.07.89-3.6,1.09s-3.16.37-3.85.89c-2.23.37-5.38.9-8.51,1.49s-6.27,1.24-8.52,1.79a67.24,67.24,0,0,0-7.92-.25c-2.75,0-5.52.07-8-.14-1.07.07-2.76,1.36-5.3,1.53q-9.74,0-20.25.76c-7.16.53-14.58,1.33-22.26,2.45a31.7,31.7,0,0,0-4.34,0,24.19,24.19,0,0,1-4.2,0L46.56,23.31C42.87,23.89,35.68,25.85,32.76,24.51Z"/>
    <path class="cls-14"
          d="M90.69,30.69c-.29.62-1.46.61-2.9.55a12.62,12.62,0,0,0-4.47.28,14.39,14.39,0,0,0-4.14.13,115.56,115.56,0,0,1-12.73,1.14c-2.61.12-5.17.2-7.78.25-1.81-.79-4.51-1.49-6-2.25s-1.85-1.61,1.14-2.7c-.41.8,0,1.33.85,1.85s2,1,3.23,1.76a141.93,141.93,0,0,0,18.5-1C82,30.2,87.07,29.83,90.69,30.69Z"/>
    <path class="cls-15"
          d="M113.24,42.41c-1,.78-3,1.08-5.33,1.34A35.5,35.5,0,0,0,100.85,45c-4.47.1-8.82.17-13.29.37s-9.17.53-14.13,1.12c-3.25-.29-7.09-.09-10.73,0s-7.25,0-9.92-.91a105.72,105.72,0,0,1,11.41-.89c3.57-.08,7,0,10.36.1a110.14,110.14,0,0,1,19.21-1A99.23,99.23,0,0,0,113.24,42.41Z"/>
    <path class="cls-16"
          d="M188.12,66.62c.23.21,2.28.34.95.64-3.38.4-6.76.8-10,1.13s-6.54.58-9.58.68c-2.35-.11-14.74-2-16-2.07-4.12.34-8.19.61-12,.68a64.58,64.58,0,0,1-10.78-.55c1.45-1.28,8.86-.31,9.63-.33a51.65,51.65,0,0,1,6.46-.51,58.12,58.12,0,0,0,6.27-.41c3,.28,6.3.41,9.59.53s6.53.27,9.48.6c2.94-.26,5.51-.27,8.11-.27S185.26,66.77,188.12,66.62Z"/>
    <path class="cls-17"
          d="M93.91,47.79c1.25-.88,3-1.17,5.24-1.33s4.87-.22,8-.59c2.52,0,5-.06,7.39,0s4.61.06,6.76.17c3.34,0,4.32-1.24,7.22-1.35,2.16,0,4.15,0,6.44,0a69.77,69.77,0,0,0,7.71-.58,106.7,106.7,0,0,0,20,1.08,193,193,0,0,0,24.67-2.23c-12,3.14-29.87,3.88-42.63,3.88-4.87,0-9.43-.1-13.36-.29-3.45,0-4.28,1.37-8.27,1.47C115.11,48.17,101.09,48.63,93.91,47.79Z"/>
    <path class="cls-18"
          d="M70.52,9.08A82.23,82.23,0,0,1,83.85,6.79c4.91-.54,10-1,14.35-1.63a42.68,42.68,0,0,0,4.73.39,17,17,0,0,1,4.43.62c3.94-.53,7.57-.7,11.14-.83s7.08-.24,10.89-.63A34.18,34.18,0,0,1,121,6.16a97.08,97.08,0,0,0-9.93,1.12c-1.45.13-12.49-.78-14.43-.66-4.55.63-8.81,1-13,1.26S75.06,8.49,70.52,9.08Z"/>
    <path class="cls-19"
          d="M94,13c-7.58,2.22-14.9,2.63-22,2.58S57.78,15,50.87,15.41c-3.36.32-9.07,1.91-13.49,2.27.41-.58,1.86-1.07,3.79-1.56s4.15-.92,6.19-1.41a133.41,133.41,0,0,1,15.72-.77c4.85,0,9.54.25,14.33.45,2.81-.29,5.64-.56,8.39-.79S91.27,13.18,94,13Z"/>
    <path class="cls-20"
          d="M126.41,9.74a50.74,50.74,0,0,1-12.55,1.5c-4.55.09-9.09-.14-12.59-.33-2.37,0-2.48,1.1-4.36,1.18s-3.54-.2-5.23-.36-3.46-.31-5.31-.33A20.27,20.27,0,0,0,81.11,11c-1.87,0-3.66-.08-4.79-.76,3.47-.08,6.87-.06,10.14.07a76.81,76.81,0,0,1,9.16.86c1-.24,1.81-.56,2.64-.8a7.88,7.88,0,0,1,3.07-.23c4.17-.05,8.12.06,12.27.07S121.85,10.16,126.41,9.74Z"/>
    <path class="cls-21"
          d="M114.34,55.8c-2,1.42-9.47,1.24-12.37,1.77-3.49.66-6.76,1.35-9.64,2a69.5,69.5,0,0,0-7.53,2.22c-1.35.33-11.9,1.17-13.92,1.31-4.87.33-8.5,0-12.79.32,8-2.43,20-.19,29.43-3.67,5.16-1.9,10.66-2.47,16-3C107.13,56.48,110.63,56.22,114.34,55.8Z"/>
    <path class="cls-22"
          d="M44,34.67c-2.33.71-3.07,1.57-5,2.47,2.5,1.11,8.64.47,11.52.1C50.6,35.58,45.71,34.86,44,34.67Z"/>
    <path class="cls-23"
          d="M218.65,23.73V22.46c-3.69-.13-6.87-1-10.75-.36,3.33,1.16,9.24,1,9.55,1.07A3.56,3.56,0,0,0,218.65,23.73Z"/>
    <path class="cls-24"
          d="M218.74,28.53V27.27c-5.45-.08-11.59-.08-17.45,0s-11.43.33-15.4.72c-2.18.13-9.51-.94-9.6,1,5.52.38,12.83.06,18.55.18-1.1,1.49-5.12,2.42-9.87,3.23s-10.38,1.48-14.38,2.44a75.44,75.44,0,0,0,17.81-2A133.52,133.52,0,0,0,201.61,29C203.17,28.63,215.8,28.57,218.74,28.53Z"/>
    <path class="cls-25"
          d="M62.42.36H55.6C51.76,1.17,48,1.93,44,2.85S35.82,4.87,31,6.33c3.28.33,8.58-.68,14.35-2S57.21,1.36,62.42.36Z"/>
    <path class="cls-26"
          d="M99.71.44h-6c-3.7.09-6.17,0-9.71,0H80.76C76,1.17,71.57,1.72,67,2.41S57.39,3.94,51.71,5.24C55,5.76,60.29,5.08,66,4.16s11.88-2.07,17-2.64a25.05,25.05,0,0,0,4.77.11c1.81-.06,3.63-.16,5.17-.08A19.79,19.79,0,0,1,96.37.82C97.5.64,98.63.54,99.71.44Z"/>
    <path class="cls-27" d="M218.22,2.48V1.38a15.83,15.83,0,0,0-3.72,1Z"/>
    <path class="cls-28" d="M218.34,6.51,218.29,5c-6.6.23-11.3-1.55-18.4-.47C204.85,6.48,212.64,5.7,218.34,6.51Z"/>
    <path class="cls-29"
          d="M218.41,10.38l0-1.64c-1.64.12-3.15.1-4.71.1a32.78,32.78,0,0,0-5,.32,58.6,58.6,0,0,0-6.45-.5c-2.39,0-4.67.13-5.44.74,4.84-.35,5.25,1.73,12.87,1.26l6.27-.24C216.76,10.42,217.58,10.42,218.41,10.38Z"/>
    <path class="cls-30"
          d="M218.48,14.84l0-.86a99.49,99.49,0,0,0-13.85,1.68,5.76,5.76,0,0,0-3.43-1.27c-2.68.21-7.5,0-12.44-.15a98.59,98.59,0,0,0-12.88.08c3.44,1.15,19.28.77,23.28,1.31a9.29,9.29,0,0,1-2.42,5.27,31.33,31.33,0,0,0-7.63.93c-2.41.56-4.86,1.31-8,2-3,.15-6,.3-8.92.4s-5.89.16-8.76.17a84,84,0,0,1-17.2,2.14c-5.51.27-10.57.51-15.33,2,4-.31,8-.61,12-.88s7.78-.48,11.6-.62a91.42,91.42,0,0,1,13.59-1.4c4.1-.14,8-.05,12,0l12.08-2.54c2.55-.48,10.48-.49,12.09-1.73-.64.07-1.63,0-2-.39a2.4,2.4,0,0,1-.5-1.78c.44-1.94,4.27-2.57,8-3.1C212.73,15.61,216.23,15.19,218.48,14.84Z"/>
    <path class="cls-31" d="M218.92,35.68l0-1.55A60.54,60.54,0,0,0,209,36Z"/>
    <path class="cls-32"
          d="M219.09,46.19l-.05-2c-2.58.3-5.75.43-8.42.71s-4.83.71-5.21,1.61A111.54,111.54,0,0,0,219.09,46.19Z"/>
    <path class="cls-33"
          d="M219.23,52.77l0-1.37c-4.72-.33-20.1-3.81-22.34-3.65l-8.12,1.63a81.43,81.43,0,0,0-18.35,1.84c-6,1.17-12.28,2.65-20.44,3.77-5.3-.48-11.66.11-18.33,1.06-6.83,1-14,2.33-20.86,3.34,3.17,1.4,10.8-.52,14.78-1.06l16-2a28.66,28.66,0,0,0,4.59.1,35.81,35.81,0,0,1,4.65,0c8.22-1,14.69-2.58,20.9-3.79a86,86,0,0,1,19-2c2.43-.12,4.47-1.48,5.63-1.54C197.6,49,216.39,52.41,219.23,52.77Z"/>
    <path class="cls-34"
          d="M219.34,59l0-1.59-2.58.09a41.37,41.37,0,0,0-5.68-.4,63.3,63.3,0,0,0-6.5.36c-1-.41-3.79-.36-6.32,0s-4.73,1-4.39,1.72c4.19-.23,8.16-.28,12.13-.28l12.53.08C218.78,59,219,58.94,219.34,59Z"/>
    <path class="cls-35" d="M219.46,65.28v-2.2a37.94,37.94,0,0,0-10.31.79A32.23,32.23,0,0,0,219.46,65.28Z"/>
    <polygon class="cls-36"
             points="219.58 70.41 219.58 70.33 219.58 70.33 219.58 70.32 219.58 70.32 219.58 70.32 219.58 69.56 208.67 70.41 219.58 70.41"/>
    <path class="cls-37"
          d="M.69,67.87v.95l5.33.3a36.76,36.76,0,0,1-5.32.26l0,1.23h0v0l.8,0v0h0a52.77,52.77,0,0,0,7.78-.55c2.1-.27,4.26-.68,6.66-1.23a174.65,174.65,0,0,1,19,.55,116.55,116.55,0,0,0,19.83-.24c3.53.42,8.69.12,13.88-.19a96.3,96.3,0,0,1,13.9-.23A19.08,19.08,0,0,1,88,68.6c1.75.08,3.27.07,3.69-.72-5.51,0-13.71,0-21.73-.11-8.22-.12-16.31-.35-21.23-.93a112.61,112.61,0,0,1-20.11.3A78.9,78.9,0,0,0,7.33,68.86a24.91,24.91,0,0,0-3-.59C3.21,68.1,2,68,.69,67.84Z"/>
    <path class="cls-38"
          d="M.66,63.34l0,2c2.13,0,4.26,0,6.41.05s4.21.07,6.23.15a73.37,73.37,0,0,0,13.78-2.66c3.76-1.07,7.19-2.21,11.65-3C40.12,59.73,51.08,61.34,55,61c1.6-.15,17.49-1.85,18.88-2.17.74-.16.85-.3-.47-.34a138.26,138.26,0,0,1-17.2.17C41.79,58.12,38.63,58,25.88,61a91.61,91.61,0,0,1-13.64,2.35c-1.68-.08-3.36-.17-5.13-.22a44.51,44.51,0,0,0-6.1.15A3.27,3.27,0,0,1,.66,63.34Z"/>
    <path class="cls-39" d="M.64,57.73v1.15c3.45-1.06,6.78-1.76,10.48-2.54l-.9-.64A47.18,47.18,0,0,0,.64,57.73Z"/>
    <path class="cls-40"
          d="M.52,46.23l0,2.49C7.8,47.19,14,45.73,21.59,45c5.49-.56,14.42,0,19.79,0-.46-.6-9.4-1.43-10-1.84l7.28-1.72c5.75-1.36,13.71-2.06,21.08-2.38,7.16-.31,13.79-.26,17.26-.12a41.12,41.12,0,0,1,5-.18c1.73,0,3.28-.15,3.54-.75a218.59,218.59,0,0,0-22.37-.47,179.25,179.25,0,0,0-26,2.73,39.28,39.28,0,0,0-10,1.64A50.58,50.58,0,0,1,16.8,43.84c2.44-2.82,13.92-5.3,14.69-5.72a21.49,21.49,0,0,1,4.19-2.54c1.62-.82,3.4-1.64,4.91-2.46-8.28,1.33-7.81,3.77-12.09,4.78a90.17,90.17,0,0,0-11.42,2.76,77,77,0,0,0-9.76,3.78Z"/>
    <path class="cls-41"
          d="M.49,40.53v.81c3.9-.59,10.25-1.19,13.45-2.28-1.19.22-1.47,0-3.41.38C8.82,39.73,2.69,40.3.49,40.53Z"/>
    <path class="cls-42" d="M.45,35.59h0v.22c5.6-.3,10.81-1,16-1.47-.41-1-2.88-.86-6-.44S3.53,35.07.44,35.3Z"/>
    <path class="cls-43"
          d="M.43,30.92l0,1.15c2.07.06,4.32,0,6.7-.11s4.83-.37,7.38-.72a64.22,64.22,0,0,0,9.41,0c3.28-.18,6.67-.45,9.84-.52l16.3-3.58c6.4-1.37,17.62-1.82,22.8-3.46-5.33.57-10.4.95-15.75,1.57a145.54,145.54,0,0,0-17.4,3c-2.16.2-4.31.4-6.54.63s-4.44.5-6.73.83c-2.34-.18-4.86-.16-7.43-.12s-5.28.15-7.75.14a46.21,46.21,0,0,1-5.47.76C4,30.67,2.09,30.78.43,30.92Z"/>
    <path class="cls-44"
          d="M.4,25v2.19l6.79-.53L6,25.8c.84-.76,4.86-1.88,6.23-2.1,2.06-.34,12.07-.31,15.46-.51-1.19-.74-3.72-.87-6.49-.83s-5.94.22-8.46.1A36.27,36.27,0,0,1,6.3,24.19C4.3,24.54,2.44,24.73.4,25Z"/>
    <path class="cls-45" d="M.39,21.46.41,23c3.28-.06,7.45-.35,10.35-1.41Z"/>
    <path class="cls-46"
          d="M.34,18.73l0,.67,7.39.9,7.86-1c3.87-.36,12.35,1.09,17-.5-4.1.06-7.82-.18-11.79-.22a68.92,68.92,0,0,0-13,1C6.81,19.62,1.65,18.89.34,18.73Z"/>
    <path class="cls-47"
          d="M.31,12.62v.58H3.45c1.43,0,2.76.11,4.2.15A35.19,35.19,0,0,0,12,13.21c2.9.18,5.57.51,8.17.93s5.09.91,7.65,1.37L38.79,14.4c-2.9-.35-7.89.56-9.73.41-.93-.14-1.83-.27-2.72-.44a12.51,12.51,0,0,1-2.4-.71c-.75-.05-2-.15-3-.29-5.55-.75,4.57-1.11,4.57-1.11,2.72-.48,5.26-.85,7.82-1.23s5.21-.78,8-1.34c1-.1,5.91.09,7.73-.21L59.65,7.11A45.15,45.15,0,0,0,49,9a64.47,64.47,0,0,0-13.82.62c-5.1.62-10.45,1.44-15.11,1.73l-5.36,1.07c-1.56,0-3.18,0-4.71,0-4.29-.05-3-.51-7.11,0A22.61,22.61,0,0,1,.31,12.62Z"/>
    <path class="cls-48"
          d="M.33,11.09l0,1.2C6,10.75,11,9.12,16.63,7.47c2.41-.69,6.55-.68,7.7-1.59-2,.38-5.24,1.14-7,.57,2.82-.85,6.63-2.63,9-3.16s4-.81,5.81-1.23A41.48,41.48,0,0,1,39.55.54C40.27.49,41,.44,41.76.32L36.91.3H35.5c-1.37.21-3.66,1.48-7.92,1.86-.68.91-5,1.57-5.73,1.83a66.12,66.12,0,0,1-10,3.56C7.91,8.73,3.7,9.89.33,11.09Z"/>
    <polygon class="cls-49" points="0.25 6.52 0.26 6.89 2.09 6.88 0.25 6.52"/>
    <path class="cls-50" d="M.23,1.1V2.84c11.24,0,17.43.22,20.68.22s3.63-.17,3.14-.83C19.58,1.77,6.09,1.31.23,1.1Z"/>
    <path class="cls-51" d="M142.67.55h-5.09c-.31,0-1.35.44-1.41,1Z"/>
    <path class="cls-52" d="M144.06,73h-5c-.23,0-1.41.48-1.46,1Z"/>
    <path class="cls-53"
          d="M169.88,36.58c0-.11,0-.22,0-.32v-.13a71.32,71.32,0,0,0-8.29.81,3.55,3.55,0,0,0-2-.66c-3.11.18-11-.49-14.1-.14,1.86.58,10.54.45,12.9.76a4.54,4.54,0,0,1-1.48,2.65c-3.24-.07-5.34.72-8.7,1.29-3.26.09-6.41.14-9.36.09-6.27,1.37-11.53.3-16,1.57,3.76-.18,7.63-.37,11.44-.41a69.85,69.85,0,0,1,13.32-.37l6.7-1.12c2-.25,6-.14,7-.75a1.57,1.57,0,0,1-1.15-.22c-.41-.63-.52-1.24.8-1.76C161.4,37.37,167.13,36.94,169.88,36.58Z"/>
    <path class="cls-54"
          d="M209.44,6.91a4.84,4.84,0,0,1,2.92-4.6.92.92,0,0,1,.28-.05h0a1,1,0,0,1,.72.29h0s0,0,0,0h0l0,0h0v0l0,0s0,0,0,0h0a.39.39,0,0,1-.21.55l0,0h0l-.05,0a3.51,3.51,0,0,0-2.07,3.52c1,0,2.64.14,2.93.72a.53.53,0,0,1,0,.17l0,.38h0c0,.52-1.42.85-2,1a11.28,11.28,0,0,1-3.93,0c-.48-.09-1.24-.29-1.34-.67a.25.25,0,0,1,0-.12h0a1.06,1.06,0,0,1,.15-.61,2.58,2.58,0,0,1,1.37-.6A10.06,10.06,0,0,1,209.44,6.91Z"/>
    <polygon class="cls-55"
             points="213.05 2.16 213.28 1.82 212.91 1.46 213.18 1.79 212.97 2.07 212.6 2.15 212.29 2.33 212.34 2 212.79 1.59 212.29 1.97 212.06 1.77 212.27 2.06 212.19 2.58 211.18 2.32 212.21 2.66 212.41 2.59 212.18 2.84 212.5 2.59 212.71 2.52 212.8 2.53 212.66 2.79 212.14 3 212.36 2.98 212.09 3.15 212.15 3.27 211.32 3.7 210.63 3.86 211.35 3.73 212.3 3.25 212.18 3.15 212.54 2.93 212.49 3.19 212.77 3.08 212.57 3.26 212.77 3.45 212.76 3.71 212.86 3.43 212.68 3.26 213 3.09 213.27 3.15 213.13 3.4 213.22 3.65 213.64 3.79 213.64 4.21 213.73 3.77 213.35 3.59 213.25 3.41 213.41 3.18 213.62 2.85 213.91 3.09 213.78 3.32 214 3.06 213.54 2.71 214.24 2.84 214.82 3.15 214.33 2.79 213.57 2.52 214.27 2.09 215.38 2.23 216.15 1.91 215.32 2.19 214.33 2.05 214.33 1.68 214.24 2.06 213.6 2.41 213.37 2.41 213.44 2.33 213.86 2.05 214.17 1.85 214.21 1.44 214.06 1.85 213.78 1.99 213.25 2.27 213.05 2.16"/>
    <path class="cls-56"
          d="M207.23,5.9a7.63,7.63,0,0,1,5.52-3.72c.89,0,1.1,1,.27,1.15h-.14a5.52,5.52,0,0,0-4.11,2.95l-.36-.11A11.32,11.32,0,0,0,207.23,5.9Z"/>
    <path class="cls-57"
          d="M207.32,5.92A7.46,7.46,0,0,1,213,2.21c.57.15.69.83.18,1.06l-.35,0a5.55,5.55,0,0,0-4.14,3,2.85,2.85,0,0,0-.32-.1C208.07,6.09,207.7,6,207.32,5.92Z"/>
    <path class="cls-58"
          d="M207.48,6a7.43,7.43,0,0,1,5.77-3.66.54.54,0,0,1,.13.87,6.06,6.06,0,0,0-4.74,3.09l-.23-.07C208.12,6.11,207.81,6,207.48,6Z"/>
    <path class="cls-59" d="M207.65,6a7.23,7.23,0,0,1,5.74-3.57.53.53,0,0,1,.06.68,6.16,6.16,0,0,0-4.9,3.13l-.14,0Z"/>
    <path class="cls-60" d="M207.81,6a7.06,7.06,0,0,1,5.66-3.5.5.5,0,0,1,0,.49,6.29,6.29,0,0,0-5,3.18h-.05Z"/>
    <path class="cls-61" d="M208,6.07a6.87,6.87,0,0,1,5.55-3.42.51.51,0,0,1,0,.3,6.39,6.39,0,0,0-5.15,3.23Z"/>
    <path class="cls-62"
          d="M204.3,6.27c1-1,7,.63,6.38,1.74l.15,0,.23-.34a.41.41,0,0,0,.07-.17c.1-.71-1.76-1.35-2.53-1.58a10.73,10.73,0,0,0-2.35-.44,3.12,3.12,0,0,0-1.59.18,1.7,1.7,0,0,0-.51.53Z"/>
    <path class="cls-63"
          d="M204.23,6.24c.37-.55.6-.76,2-.68,1.85.11,5.31,1.22,4.75,2.12l-.24.34C211.43,6.85,205.26,5.15,204.23,6.24Z"/>
    <path class="cls-64"
          d="M204.09,6.33c-.13.39.44.78.81,1a9.28,9.28,0,0,0,3.54,1.07c.6.07,2.05.14,2.39-.35.21-.29-.16-.63-.43-.83a7,7,0,0,0-2.1-.94,11.17,11.17,0,0,0-2.49-.41c-.49,0-1.33,0-1.63.33A.8.8,0,0,0,204.09,6.33Z"/>
    <path class="cls-65"
          d="M204.16,6.39c.31-.9,4.54-.3,6.16.9,2,1.47-2.72,1.56-5.38,0C204.38,7,204.06,6.67,204.16,6.39Z"/>
    <path class="cls-66"
          d="M204.16,6.39c.33-1,4.46-.08,5.15.35.3.19.74,1-1.12,1a11.23,11.23,0,0,1-3.78-.8C204.2,6.76,204.1,6.56,204.16,6.39Z"/>
    <path class="cls-67"
          d="M205.77,6.62a.83.83,0,0,0-.15.11l-1-.39a7.94,7.94,0,0,0,.94.41l-.17.17a6.31,6.31,0,0,0-1-.46l1,.49s-.41.37-.13.2a1.67,1.67,0,0,0,.21-.16c.16.09.33.16.49.24,0,0-.48.27-.17.16l.24-.12.6.28c-.06,0-.44.14-.17.08l.23-.06.52.22c-.06,0-.32.07-.13,0l.18,0,.5.18c-.15,0-.11,0,0,0,.44.14.52.16.06,0l.48-.07c.12,0,.8.27.43.13l-.37-.15.41-.13c.16.06,1.12.42.58.2l-.54-.22.25-.14c.18.07,1.38.56.68.26l-.65-.29.17-.16,1,.46-1-.49c0-.05.23-.27.18-.29a2.06,2.06,0,0,0-.26.25l-.5-.25c.05,0,.46-.31.16-.17a1.17,1.17,0,0,0-.24.13l-.52-.25c.06,0,.5-.19.19-.12l-.26.09-.61-.27c.06,0,.44-.08.17-.06l-.23,0-.51-.19c.28,0,.22,0,0,0-.52-.18-.62-.2-.06,0l-.45.08c-.12,0-.91-.3-.48-.15l.43.16-.33.13c-.16-.06-1.23-.44-.62-.21l.58.23a.57.57,0,0,0-.13.08Zm3.43.77-.18.15-.54-.24.21-.16.51.25Zm-.6-.29-.22.15L207.81,7l.26-.14.53.25Zm-.6-.29-.29.14c-.21-.1-.44-.19-.66-.28l.33-.13.62.27Zm-.68-.29-.36.1-.54-.21.4-.09.5.2ZM209,7.57l-.25.15-.54-.24.25-.15.54.24Zm-.65-.29-.25.16-.57-.26.25-.16.57.26Zm-.67-.3-.27.15-.67-.29.28-.15.66.29Zm-.76-.33-.3.14-.55-.23.31-.13.54.22Zm1.79,1.09-.39.14-.52-.21.36-.16.55.23ZM208,7.46l-.34.17-.56-.24.33-.18.57.25Zm-.69-.3-.31.19-.66-.29.3-.19.67.29Zm-.78-.34-.29.19-.55-.23.29-.19.55.23Zm1.69,1.08-.44.08-.49-.19.4-.1.53.21Zm-.62-.25-.36.12-.52-.22.32-.13.56.23ZM207,7.38l-.3.14-.6-.28.25-.15.65.29ZM206.22,7l-.22.17L205.49,7l.2-.16Z"/>
    <path class="cls-68"
          d="M205.67,7.52c-1.32-.56-1.6-1.17-.67-1.37-.58.26-.23.79.94,1.29a8.84,8.84,0,0,0,4.26.68h.05a1.87,1.87,0,0,1-.33.1A8.94,8.94,0,0,1,205.67,7.52Z"/>
    <path class="cls-54"
          d="M214.19,62.31c.58-1.44-.73-3-2.93-3.37s-4.47.41-5,1.85.72,2.94,2.92,3.36S213.6,63.74,214.19,62.31Z"/>
    <path class="cls-69"
          d="M213.68,59.69a4.2,4.2,0,0,0-5-.09,2.5,2.5,0,0,0,.12,4.07,4.19,4.19,0,0,0,5,.09A2.5,2.5,0,0,0,213.68,59.69Z"/>
    <path class="cls-70"
          d="M213.9,59.85a3.92,3.92,0,0,0-4.72-.08,2.34,2.34,0,0,0,.11,3.8,3.92,3.92,0,0,0,4.72.09A2.35,2.35,0,0,0,213.9,59.85Z"/>
    <path class="cls-71"
          d="M210.68,59.09a3.42,3.42,0,0,0-1.5.68,2.34,2.34,0,0,0,.11,3.8A3.35,3.35,0,0,0,210,64C214.88,64.82,211.11,61.14,210.68,59.09Z"/>
    <path class="cls-67"
          d="M210.94,60.3l.5-.06c-.18-.3-.36-.6-.52-.9,0-.09.42.59.64.88q.36,0,.72-.06c-.26-.32-.88-.89-.74-1,.28.33.57.65.87,1,.18,0,1.58-.15.79,0l-.72.09.42.48c.15,0,1.29-.26.65-.07l-.59.14.46.56c.12,0,.84-.27.43-.09l-.4.15.32.48c.09,0,.48-.21.26-.08l-.24.13c.07.15.14.3.2.45.19-.11.17-.08,0,0,.11.4.11.46-.07.05-.2.11-.41.23-.62.33,0,.11.26.72.1.38,0-.08-.11-.19-.18-.34l-.79.26c.08.13.51,1,.22.51l-.32-.49-.7.12c.11.17.79,1.28.35.62l-.46-.6-.69,0c.27.32.51.64.74,1-.27-.31-.56-.63-.85-.94a8.57,8.57,0,0,1-1.14,0l1.06-.08c-.14-.17-.29-.33-.44-.49-.17,0-1.42.22-.72,0,.15,0,.38-.07.65-.12l-.43-.5c-.15,0-1.06.3-.55.09.12,0,.29-.09.5-.15-.13-.2-.27-.39-.4-.58-.11,0-.66.3-.35.11l.32-.16c-.08-.16-.16-.31-.23-.47-.33.2-.3.16,0,0-.15-.47-.14-.55.08,0,.2-.11.41-.21.62-.31-.05-.11-.29-.81-.11-.42,0,.09.11.22.2.39l.71-.2c-.08-.14-.5-1.11-.21-.55.07.13.18.31.31.53l.36-.07Zm-.17,2.91.68-.07-.4-.5-.7.08.42.49Zm-.49-.56.69-.11-.42-.53-.7.13.43.51Zm-.48-.58.68-.16-.43-.62-.67.2.42.58Zm-.46-.64.66-.22-.28-.5-.64.26.26.46Zm2.22,1.7.71-.12-.35-.51-.74.12.38.51Zm-.45-.61.73-.13-.39-.53-.75.12.41.54Zm-.48-.64.74-.13-.44-.63-.75.14.45.62Zm-.51-.71.74-.16c-.11-.17-.22-.34-.32-.52l-.72.18.3.5ZM212.38,63l.8-.23-.29-.48-.84.2.33.51Zm-.4-.61.85-.19-.36-.52-.88.17.39.54Zm-.46-.65.88-.16L212,61l-.88.14.45.63ZM211,61l.89-.14-.37-.51-.86.13L211,61Zm2.28,1.73c.22-.1.43-.19.64-.3-.07-.15-.15-.29-.23-.44l-.67.25c.09.16.18.32.26.49Zm-.31-.57.69-.22c-.11-.16-.23-.33-.33-.49l-.71.19.35.52Zm-.41-.61.72-.16-.46-.58-.72.13c.16.2.31.41.46.61Zm-.53-.71.73-.1-.4-.48-.71.07Z"/>
    <path class="cls-68"
          d="M213.61,60a3.62,3.62,0,0,0-4.27-.13,3.69,3.69,0,0,1,3.84.39,2.16,2.16,0,0,1,.11,3.51l-.08,0a2.84,2.84,0,0,0,.5-.32A2.16,2.16,0,0,0,213.61,60Z"/>
    <path class="cls-54" d="M4.81,62.52c-.58-1.44.73-3,2.93-3.37s4.46.41,5,1.84-.72,2.95-2.93,3.37S5.4,64,4.81,62.52Z"/>
    <path class="cls-69"
          d="M5.31,59.9a4.2,4.2,0,0,1,5.05-.09,2.51,2.51,0,0,1-.12,4.07,4.19,4.19,0,0,1-5,.09A2.51,2.51,0,0,1,5.31,59.9Z"/>
    <path class="cls-70"
          d="M5.1,60.06A3.93,3.93,0,0,1,9.82,60a2.35,2.35,0,0,1-.11,3.81A3.92,3.92,0,0,1,5,63.87,2.34,2.34,0,0,1,5.1,60.06Z"/>
    <path class="cls-71"
          d="M8.32,59.3a3.41,3.41,0,0,1,1.5.67,2.35,2.35,0,0,1-.11,3.81,3.35,3.35,0,0,1-.72.45C4.12,65,7.88,61.35,8.32,59.3Z"/>
    <path class="cls-67"
          d="M8.05,60.51l-.5-.06c.19-.3.36-.61.53-.91,0-.08-.42.6-.64.89l-.72-.06c.26-.33.88-.89.74-1-.28.32-.57.65-.87,1-.18,0-1.58-.15-.79,0l.72.09-.42.47c-.15,0-1.29-.25-.65-.06L6,61l-.46.57c-.12,0-.85-.27-.44-.09l.4.15-.31.48c-.09,0-.48-.21-.26-.08a1.31,1.31,0,0,0,.24.12c-.07.16-.14.31-.2.46-.19-.11-.17-.08,0,0-.12.4-.11.46.07.05l.62.33c-.05.11-.26.72-.1.38,0-.08.1-.2.18-.34l.79.25c-.08.14-.51,1-.22.52l.32-.5.7.13c-.11.17-.8,1.27-.35.62.1-.15.26-.35.46-.61l.68.06c-.26.32-.51.63-.73.95.27-.32.55-.63.85-.94a8.57,8.57,0,0,0,1.14,0l-1.06-.08c.14-.17.29-.33.44-.49.17,0,1.42.22.72,0a6.57,6.57,0,0,0-.65-.12l.43-.51c.14,0,1.05.31.54.1a4,4,0,0,0-.49-.16l.4-.57c.11,0,.66.29.35.11a1.87,1.87,0,0,0-.32-.16l.23-.47c.33.2.3.16,0,0,.16-.47.15-.55-.07,0l-.62-.3c0-.11.29-.81.11-.42,0,.09-.11.22-.2.39l-.71-.2c.07-.14.5-1.11.21-.55l-.31.53-.37-.07Zm.18,2.91-.68-.07.4-.5.7.08-.42.49Zm.49-.56L8,62.75l.41-.54.71.13-.43.52Zm.48-.58-.68-.16.42-.62.68.2-.42.58Zm.46-.64L9,61.42l.28-.51.64.27-.26.46Zm-2.22,1.7-.71-.13c.11-.17.23-.33.35-.5l.74.12-.38.51Zm.45-.61-.73-.13.39-.54.75.13-.41.54Zm.48-.64L7.63,62l.44-.64.74.15c-.14.21-.29.41-.44.62Zm.5-.71-.73-.16.32-.52.72.18-.31.5ZM6.62,63.19,5.81,63l.3-.48.84.2-.33.51Zm.4-.61-.85-.19.36-.52.88.17L7,62.58Zm.46-.65-.89-.16.46-.61.88.14-.45.63ZM8,61.2l-.88-.14.36-.51.87.13L8,61.2ZM5.72,62.92l-.64-.29.24-.44.67.25-.27.48ZM6,62.36l-.69-.23.33-.48.7.19c-.11.17-.23.34-.34.52Zm.41-.61-.72-.16L6.18,61l.72.12-.45.62ZM7,61l-.74-.1.41-.48.71.07Z"/>
    <path class="cls-68"
          d="M5.39,60.21a3.62,3.62,0,0,1,4.26-.14,3.69,3.69,0,0,0-3.84.4A2.17,2.17,0,0,0,5.71,64a.18.18,0,0,1,.07.05,3.17,3.17,0,0,1-.49-.32A2.15,2.15,0,0,1,5.39,60.21Z"/>
    <path class="cls-54"
          d="M4.76,6.37C4.17,4.94,5.49,3.43,7.69,3s4.46.41,5.05,1.84S12,7.8,9.81,8.22,5.35,7.81,4.76,6.37Z"/>
    <path class="cls-69"
          d="M5.26,3.76a4.19,4.19,0,0,1,5-.09,2.5,2.5,0,0,1-.12,4.07,4.19,4.19,0,0,1-5,.09A2.52,2.52,0,0,1,5.26,3.76Z"/>
    <path class="cls-70"
          d="M5,3.92a3.93,3.93,0,0,1,4.73-.09,2.35,2.35,0,0,1-.11,3.81,3.93,3.93,0,0,1-4.73.09A2.35,2.35,0,0,1,5,3.92Z"/>
    <path class="cls-71"
          d="M8.26,3.16a3.51,3.51,0,0,1,1.51.67,2.35,2.35,0,0,1-.11,3.81,3.61,3.61,0,0,1-.72.45C4.07,8.89,7.83,5.21,8.26,3.16Z"/>
    <path class="cls-67"
          d="M8,4.37,7.5,4.3c.19-.3.36-.6.52-.9,0-.08-.41.6-.63.89l-.72-.06c.25-.32.88-.89.74-1-.28.32-.57.65-.87,1-.18,0-1.59-.15-.79,0,.16,0,.42.06.72.09l-.42.47c-.16,0-1.29-.25-.65-.06L6,4.84l-.46.57c-.13,0-.85-.27-.44-.09l.4.15c-.11.15-.21.32-.31.48-.09,0-.49-.21-.26-.08A1.31,1.31,0,0,0,5.16,6L5,6.45c-.19-.11-.16-.08,0,0-.11.4-.11.46.07,0l.62.33c0,.1-.25.71-.09.38l.18-.35.79.26c-.08.14-.51,1-.22.52.07-.12.18-.29.32-.49l.7.12c-.11.16-.8,1.27-.35.62l.46-.61.68.06c-.26.32-.51.63-.74,1,.27-.31.56-.63.86-1a7.19,7.19,0,0,0,1.13,0L8.29,7.29l.45-.48c.17,0,1.42.22.72.05-.15,0-.38-.07-.65-.12.14-.17.28-.34.43-.5.14,0,1,.3.54.09l-.49-.16.4-.57c.1,0,.66.29.34.11a2.08,2.08,0,0,0-.31-.16c.07-.16.15-.31.22-.47.34.2.3.16,0,0,.16-.47.15-.55-.07,0l-.63-.3c.05-.11.29-.81.11-.42l-.19.39-.71-.2c.07-.14.49-1.11.2-.55-.06.12-.17.3-.31.53L8,4.37Zm.17,2.91L7.5,7.21c.13-.17.26-.34.4-.5l.7.08c-.14.17-.29.33-.43.49Zm.5-.56L8,6.61l.41-.54.7.14q-.21.24-.42.51Zm.48-.58L8.46,6l.43-.62.68.2-.42.58Zm.46-.64L9,5.27l.27-.5L9.87,5l-.26.46ZM7.38,7.2l-.71-.13L7,6.57l.73.12-.38.51Zm.46-.61L7.1,6.46l.4-.54.75.13-.41.54ZM8.32,6l-.75-.13L8,5.18l.74.15L8.32,6Zm.5-.71-.73-.16.32-.52.72.18-.31.5ZM6.57,7.05l-.81-.23.3-.48.84.2-.33.51ZM7,6.44l-.86-.19.36-.52.88.16L7,6.44Zm.45-.65-.88-.16L7,5l.89.14-.46.63ZM8,5.05l-.88-.13.36-.51.87.13L8,5.05ZM5.67,6.79,5,6.49c.08-.15.16-.29.24-.45l.66.26-.26.49ZM6,6.21,5.3,6l.33-.48.7.19L6,6.21Zm.41-.6-.71-.16.45-.58L6.85,5l-.46.62Zm.54-.71-.74-.1c.14-.16.27-.33.4-.49l.72.08Z"/>
    <path class="cls-68"
          d="M5.34,4.07A3.62,3.62,0,0,1,9.6,3.93a3.67,3.67,0,0,0-3.84.4,2.17,2.17,0,0,0-.1,3.51l.07,0a3.17,3.17,0,0,1-.49-.32A2.15,2.15,0,0,1,5.34,4.07Z"/>
  </g>
</svg>
