<svg xmlns="http://www.w3.org/2000/svg" viewBox="0 150 1375.84 668.81">
  <defs>
    <style>
      .cls-1, .cls-6 {fill: #190909;}
      .cls-2 {fill: #9f7663;}
      .cls-3 {fill: #513e37;}
      .cls-19, .cls-4 {fill: #8a9a86;}
      .cls-10, .cls-11, .cls-12, .cls-13, .cls-14, .cls-15, .cls-16, .cls-17, .cls-18, .cls-4, .cls-5, .cls-6, .cls-7, .cls-8, .cls-9 {fill-rule: evenodd;}
      .cls-5 {fill: #8b9a86;}
      .cls-7 {fill: #5d4030;}
      .cls-8 {fill: #512d23;}
      .cls-9 {fill: #825544;}
      .cls-10, .cls-20 {fill: #bb9565;}
      .cls-11 {fill:#ccc0be;}
      .cls-12 {fill: #d9dad9;}
      .cls-13 {fill: #26221e;}
      .cls-14 {fill: #dee9e3;}
      .cls-15 {fill: #2d221b;}
      .cls-16 {fill: #8b6a52;}
      .cls-17 {fill: #262220;}
      .cls-18 {fill: #151311;}
      .cls-21 {isolation: isolate;}
      .cls-22 {fill: #303;}
    </style>
  </defs>
    <path class="cls-1" d="M1336.6,373.8s9.9,1.7,9.6,2.5c-.6,1.9-.9,6.7-3.8,11.6-3.4,6-5.3,15.6-8.5,23.4-.3.6.7,1,.4,1.6-2,4.1-2.5,7.2-3.3,11.5,0,.2-2.2,1.3-2.3,1.5a105.32,105.32,0,0,1-12.8,36.9c-.8.8-13.6,1.6-23.1,1S67.3,364.8,52.9,363.2,30.1,359,30.1,359l2.6-8,4.4-.2,9.7-43.6,7.9.3-6.9-2,10.4-33.3s26.4.4,14.7-.9S1336.6,373.8,1336.6,373.8Z" transform="translate(0.04 120)"/><path class="cls-2" d="M1344.5,376l-.4,3-2.3.3-42.8-3.6,14.3,1.5,13.3,1.3,16.5,1.9s0,6.5-2.1,6.6-4.2-.3-10.2-.4,9.1,1.4,9.7,1.8-3,9.4-3,9.4-18.7-1.4-23.2-1.7,22.7,2.4,22.7,2.4l-3.8,12.9-16.2-.6,17.4,1.9-2.9,8.8-.6,1.9-4.7.6a88.3,88.3,0,0,1-11.5-.2c-8.7-.4,12.1,1.8,13.6,2s-11.6,35.2-11.6,35.2a7.7,7.7,0,0,1-5.1,1.3C1228.1,455.7,35.4,359.7,32.5,359c-1.3-.3-1.5-2.9-.9-7,0-.3,2.8-.5,2.8-.8.1-.7-1.7-1.1-1.5-1.9a314.64,314.64,0,0,1,11.4-41.5c.2-.5,4.4-.8,4.6-1.3s-3-.9-2.8-1.2c6.4-17.7,10.5-33.1,12.4-33.1C62.9,272.4,1344.5,376,1344.5,376Z" transform="translate(0.04 120)"/><path class="cls-1" d="M1360.3,281l15.5,6.5-1.3,4.3-44.8-3.2,44.4,4.2s-8.3,33-10,33.1-28.9-1.6-28.9-1.6l28.5,2.4c.3,0-6.9,29.3-9.2,29.4s-18.6-1.1-18.6-1.1l6.4,1s10.6.9,11.2,1.2-4.2,14.6-4.2,14.6a60.86,60.86,0,0,1-15.3,1.7c-7.2-.4-1245.3-99.5-1251.8-100-18.1-1.6-23-4.5-23.9-5.3s3.9-14.5,4.8-17a49.64,49.64,0,0,1,5.4-.2l61,4.4-61.2-5.6-3.4-1.1,11.5-40.2,1.5-.5,28.1,1.8c4.2.2-24.3-2.5-24.3-2.5l-4.1-1,4.8-13.5,1.9-.2,7.2.6,2.1-.1-8.4-.7-2.4-.6,2.3-6.4s20.5-4.5,25.1-4.5" transform="translate(0.04 120)"/><path class="cls-3" d="M1371.5,291.2h2.1c.4,0,.8.1,1.1.1l.3-3.5-14.8-6.5S112.7,180.9,109.5,180.9s-23.8,4.4-23.8,4.4L1372.3,288.6Z" transform="translate(0.04 120)"/><path class="cls-2" d="M1372.6,288.8l-.9,2s-80.3-6.2-81.6-5.6,52.5,5.4,52.5,5.4l28.7,2.4-10.5,29.5s.3,2.3-2.7,2.4-16-1-16-1-29.1-1.2-31.3-1.1,48.6,4.1,48.6,4.1l-8,27.7-26-1.3s10.6,1.8,9,1.9-41-2.8-41-2.8l16.4,1.8,41.4,3.7-4.7,12.1-5.2.3L58.3,267.8a69.57,69.57,0,0,1,5.2-16.6c.2-.5,69.8,4.8,69.8,4.8s10.5-.1-14.1-2.4c-15.4-1.4-54.2-4.8-54.1-5,1.6-5,7.6-23.9,12.8-40,.1-.2,47.8,3.1,49.8,2.5-3.4-.5-45.5-4.3-48.7-5.1,1.7-5.1,2.9-9.4,4-12.9,0-.1,7.3.5,10.3.6a24.44,24.44,0,0,0,2.9-.1c3.4,0,11.4.5,11.4.4s-24.2-2-24.2-2.2c1.2-3.8,1.9-6,1.9-6Z" transform="translate(0.04 120)"/><path class="cls-1" d="M1300.1,462c5.8.2,14.5,3.5,14.5,3.5s-23.4,80.8-26.6,82.1-16,1.4-27.1,1S15.9,446.7,15.9,446.7L.4,442.4l27.1-81.7,17.9-.6S1294.3,461.8,1300.1,462Z" transform="translate(0.04 120)"/><path class="cls-2" d="M1314.2,465.6c3.7.9-23.8,80.4-28.2,81.2S4,442.3.3,442s23.8-82.5,27.3-81.3S1310.5,464.7,1314.2,465.6Z" transform="translate(0.04 120)"/><path class="cls-4" d="M304.9,199.7s0-.8.4-1.1,2-1,2.5-1.4a14.62,14.62,0,0,0,1.9-1.6c.2-.3,2.1-.1,2.1-.1a14.87,14.87,0,0,0,3.6.5,7.77,7.77,0,0,1,3,.4l16.9,1.5.8.4Z" transform="translate(0.04 120)"/><path class="cls-5" d="M310.1,195.9a4.94,4.94,0,0,1-1.9,1.6,20.13,20.13,0,0,0-2.5,1.4,1.76,1.76,0,0,0-.8.9,13.55,13.55,0,0,1,.2,2,4.25,4.25,0,0,1-.2,1.1s6.9.4,8.7.7,3.6.4,3.6.4,5.6.5,8.2.8c.3,0,.1-.4.4-.4s1.6.6,1.9.6c1.2.1,2,.1,1.8,0-.5-.3,1.8.2,1.8.2s7.5.8,9.7.9,7.6.7,7.6.7-.1-.4,2.3-.2,6.7.4,7.7.8,15.8,1.6,18.9,1.8,9.3,1,9.7.7a3.19,3.19,0,0,1,1.4-.3s11.2,1,11.7,1.1l3,.9,2-.1v-2.9a20.91,20.91,0,0,1-2.9-2.3,3.46,3.46,0,0,0-2-2.1A401.74,401.74,0,0,1,310.1,195.9Z" transform="translate(0.04 120)"/><path class="cls-6" d="M401.5,206.5l.5-.4-1.7-1.6-12.9-1.1c-.5.3-1.4-.1-2.1,0-1.4.2-2.5.3-3.5-.5L360.1,201a2.2,2.2,0,0,1-.8.1,7.77,7.77,0,0,1-3-.4l-39.4-3.4-2-.4-1.5.1-3.5-.4c-.2.5-.5.9-.7,1.3a.35.35,0,0,0-.1.2l-1,.7c-.8.3-2.1.5-2.4.7a1.85,1.85,0,0,0-.7.8l6.7.7h1.7l1.7.4a5.07,5.07,0,0,1,1.3-.2,16.35,16.35,0,0,1,2.2.2c.5.1,5.1.3,5.6.4a6.47,6.47,0,0,1,1.6.9h2.8a5.11,5.11,0,0,1,3,0,4.1,4.1,0,0,1,1.1.1c.2.1,14.4,1.3,14.4,1.3a8.17,8.17,0,0,1,2.7.1,28.25,28.25,0,0,1,5,.5l23.4,2.2,2.5.1h2.1c.3,0,1.9.2,1.9.2a4.57,4.57,0,0,1,2.6.2,5.86,5.86,0,0,1,2.3-.1c1,.1,10,.7,10.6,1.1l4.3.6Z" transform="translate(0.04 120)"/><path class="cls-5" d="M401.6,206l.4-.4-1.7-1.6-12.9-1.1c-.5.3-1.4-.1-2.1,0-1.4.2-2.5.3-3.5-.5l-21.7-1.9a2.2,2.2,0,0,1-.8.1,6.34,6.34,0,0,1-3-.5L317,196.6l-2-.4-1.5.1-3.5-.4c-.2.5-.5.9-.7,1.3,0,.1-.1.1-.1.2l-1,.7c-.8.3-1.5.6-1.9.8a2.84,2.84,0,0,0-1,.9l6.5.5h1.7l1.7.4a5.07,5.07,0,0,1,1.3-.2,16.35,16.35,0,0,1,2.2.2c.5.1,4.6.3,5.1.4a8.51,8.51,0,0,1,2.2.4l2.6-.1c1-.3,2,.3,3.1.6a4.1,4.1,0,0,1,1.1.1c.2.1,14.4,1.3,14.4,1.3a8.17,8.17,0,0,1,2.7.1,28.25,28.25,0,0,1,5,.5l23.5,2.2,2.5.1H383a17.63,17.63,0,0,0,1.9.2,4.57,4.57,0,0,1,2.6.2,5.86,5.86,0,0,1,2.3-.1c1,.1,10,.7,10.6,1.1l4.3.6Z" transform="translate(0.04 120)"/><path class="cls-7" d="M335.9,198.8c-.1.8-.1,1.5-.2,2.2a92.15,92.15,0,0,0,10.5.4c-.8-2,.5-5.1.2-6.8-.5-3,.6-6.3,1-9.2.6-4,4-1.8,6.5-2,2-.2,4.5-2,8.1,1.6,3.2,3.3,2.9,5.8,2.7,7.2a8.78,8.78,0,0,1-.1,2.8,12.17,12.17,0,0,0-.1,3.3c.2,2.2.1,3.8-.9,5a37.72,37.72,0,0,0,8.9.4,4.4,4.4,0,0,1,1.6.2c1-4.5,2.2-11.4,1-13.5.1-4.2.7-5.7-1.4-8.3-1.7-2.1-4.8-3.3-6.5-5.4-1.3.1-2.4-1.2-4-1.6-2.4-.6-5.4-1.4-7.8-1.9-2.7-.6-5.1.8-7.9,1.1a12.91,12.91,0,0,0-10,9.1C336,188.3,336.5,193.8,335.9,198.8Z" transform="translate(0.04 120)"/><path class="cls-4" d="M347,178.2c.8.7-1.3-.1-2.7-.3,2.3-2.1,4.2-1.6,5.2-1.8-.1-.9.8-.7.9-2.5-3.9,1-7.8,1.3-9.5,4.8a14.52,14.52,0,0,0-1.7,2.6c-2.7,4.6-3.7,14.8-3.5,19.9a25.61,25.61,0,0,0,3.9.3c.3-.5.5-.8.5-.8l-.2-3,.7-2.2s-1,.5-2.4-.7c-1.2-1-.4-2.9-.4-2.9a2.42,2.42,0,0,0,2.7,1c-.6.5,0,1.1,1.8,1.1,1.5-.9-.3-1.9-2.1-1.8l2-1.6c.8.4,1.4,1.6,2.1,1.2-2.3-1-.5-2.5,1.2-3.5-1.4-.7-.5-1.4-.8-2-1,.4-2-.5-3-.5,1-.4,1.7-.2,1.7-1.2.8.5,1.7.9,2.4,0-3.6-1.8-1.4-3.1-.4-4.1a4,4,0,0,0,3,.5c-.9-.9-2.5-.5-1.9-1.3s3.9.7,2.3-.8m-5,.3c.8-.2,2,0,1.5.6-.9,0-2,.9-3.8.8a10.89,10.89,0,0,1,2.3-1.4Z" transform="translate(0.04 120)"/><path class="cls-4" d="M368.5,196c.1,1.9-5.5.6-1.1,3.5-2.6-1.5-2.3-.1-2.1,1.9a11.78,11.78,0,0,0-1.1,1.9c1.5.2,2.3.3,3.7.4.3-.3,1.6-4.5-.9-5.4,1.4-1.2,2.4.3,3.6.4.5-.6-2.5-1.9-.7-3.3-1.5-.8-1.6-1.1-1.9-.1-1-1.4-.9-1.6,1.1-2.4a5.44,5.44,0,0,1-2.3-1.1c-.7,1.5.8,3.3-1.2,4.7C366.6,197.3,367.4,195.6,368.5,196Z" transform="translate(0.04 120)"/><path class="cls-8" d="M368.5-119.4v-.5h-7.4a24.1,24.1,0,0,1,0,3.8,17.13,17.13,0,0,1-.1,3.2c0,1.2.5,1.5.7,2.9.9,7.3-4.5,9.2-6.8,8.5a7.19,7.19,0,0,1-4.3-2.8c-1.4-1.5-.4-5.7-.7-7.7a41.74,41.74,0,0,1-.2-7.9h-7.4c-.3,4.3.4,8.6.3,12.9-.1,4.8.3,7.5,3.5,10.6.2.2,1.6,1.3,1.8,1.5.5.2,1.5,0,1.9.6.9,1.7,6,1,7.5.7a2.92,2.92,0,0,1,1.6.1V-94c1.5.4,4-1.8,5.3-2.6s3.4-3.9,3.9-5.4C368.5-103.7,370.3-119.1,368.5-119.4Z" transform="translate(0.04 120)"/><path class="cls-9" d="M366.1-115.4c-.7-1.3-2.3-1.9-2.4-2.7-.4-3.6,2.2,0,2-1a2.3,2.3,0,0,0-.3-.9h-3.6a19.57,19.57,0,0,1-.2,8s.2,2.7.3,4.1,2.2,2.7,2.2,2.7c3.1-1.9,2.2-5.8,1.9-7.2S367-114,366.1-115.4Z" transform="translate(0.04 120)"/><path class="cls-10" d="M347.4-120h-4.9c-.7,7.2,0,17.1.4,18.3.5,1.8,2.5-4.1,2.5-4.1l-.3-3,.3-2.3s-.6.6-1.6-.5a3,3,0,0,1-.4-2.9c.1,0,.7,1.4,1.8.8-.4.6.5,1.6,1.7,1.4,1.6-2-.7-2.4-1.9-2.2l1-1.4c.6.3,1.2,1,1.7.6-1.6-.9-.7-2.1.3-3.3C347.2-118.8,347.5-119.4,347.4-120Z" transform="translate(0.04 120)"/><path class="cls-6" d="M354.4-101.8l-.5-.2c.2.1.3.2.5.2Z" transform="translate(0.04 120)"/><path class="cls-8" d="M368.5-68.4c-.3-4.2-.5-5.7-2.1-8-1.3-1.9-3.5-2.7-4.8-4.6-.9.2-1.7-.9-2.8-1.1l-5.3-1c-1.8-.3-3.3,1.4-5.2,2,0,.1-4.7,1.7-5.9,10.2-.7,5,.2,9.9.1,14.9-.1,4.8.3,7.5,3.5,10.6.2.2,1.6,1.3,1.8,1.5.5.2,1.5,0,1.9.6.9,1.7,6,1,7.5.7a4.33,4.33,0,0,1,1.6.1V-43c1.5.4,4-1.8,5.3-2.6s3.4-3.9,3.9-5.4C368.5-52.7,370.3-68,368.5-68.4ZM354.8-50.6c-2.4-.8-3.5-1.6-4.3-2.8-1.4-1.5-.4-5.7-.7-7.7-.5-3-.1-6-.1-9,.1-4,2-4.5,3.6-5,1.3-.4,3.3-1.1,6,2.1,2.4,2.8,1.7,6.4,1.7,7.8a17.13,17.13,0,0,1-.1,3.2c0,1.2.5,1.5.7,2.8C362.5-51.9,357.1-49.9,354.8-50.6Z" transform="translate(0.04 120)"/><path class="cls-9" d="M361.2-77.3s2.2,1,2.4,2.7,1.9,5.7,2.1,6.7-2.4-2.7-2,1c.1.8,1.7,1.4,2.4,2.7s-.5,1.7-.2,3.1,1.3,5.2-1.9,7.2c0,0-2.1-1.3-2.2-2.7s-.3-4.1-.3-4.1,1.9-6.9-1.2-11.7C358.2-75.9,361.2-77.3,361.2-77.3Z" transform="translate(0.04 120)"/><path class="cls-10" d="M364.2-61.6c.2,1.8-3.6,1.1-.6,3.6-1.8-1.3-2,.1-1.8,2.1-1.1,2.7-1.3,5.6-3.1,7.4.7,1.4,3.8-2.3,4.6-2.2,1.7-1.3-.5-2.7,1.8-4a1.53,1.53,0,0,0-2,.3c0-.8,1.2-2.4,2.1-1.1,0-1.6-.2-3-1.9-3.7.9-1.3,1.6.1,2.4.1.3-.7-1.8-1.7-.7-3.3-1-.7-1.5-.3-1.6.7-1.4-1.1-.3-2.2,1-3.2a2.6,2.6,0,0,1-1.6-.9c-.4,1.6.2,3.2-1,4.8C362.5-60.2,363.4-62,364.2-61.6Z" transform="translate(0.04 120)"/><path class="cls-9" d="M343-53.2c1.5,2.2,1.7-.7.4-.4,1.1-.7-.7-1.5.4-1.3.6.4.5.7,1.5.5-.6-.3-.9-.9-.3-1.1a1.09,1.09,0,0,1-.4-1.2,3.87,3.87,0,0,0,.8-2.1c0,2.2.9,2.3,1.3,2.6.6,1.1-1.2,1.3-.5,1.9.4-.6,0,2-.9,1.8.1.9,3.8,3,2.5,5.9-.6.1-1.4-1.5-1.8-.7C343.8-49.6,343.2-50.5,343-53.2Z" transform="translate(0.04 120)"/><path class="cls-6" d="M354.4-50.8l-.5-.2.5.2Z" transform="translate(0.04 120)"/><path class="cls-8" d="M368.5-17.4c-.3-4.2-.5-5.7-2.1-8-1.3-1.9-3.5-2.7-4.8-4.6-.9.2-1.7-.9-2.8-1.1l-5.3-1c-1.8-.3-3.3,1.4-5.2,2,0,.1-4.7,1.7-5.9,10.2-.7,5,.2,9.9.1,14.9-.1,4.8.3,7.5,3.5,10.6.2.2,1.6,1.3,1.8,1.5.5.2,1.5,0,1.9.6.9,1.7,6,1,7.5.7a4.33,4.33,0,0,1,1.6.1V8c1.5.4,4-1.8,5.3-2.6S367.5,1.5,368,0C368.5-1.7,370.3-17,368.5-17.4ZM354.8.4c-2.4-.8-3.5-1.6-4.3-2.8-1.4-1.5-.4-5.7-.7-7.7-.5-3-.1-6-.1-9,.1-4,2-4.5,3.6-5,1.3-.4,3.3-1.1,6,2.1,2.4,2.8,1.7,6.4,1.7,7.8a17.13,17.13,0,0,1-.1,3.2c0,1.2.5,1.5.7,2.8C362.5-.9,357.1,1.1,354.8.4Z" transform="translate(0.04 120)"/><path class="cls-9" d="M361.2-26.3s2.2,1,2.4,2.7,1.9,5.6,2.1,6.6-2.4-2.7-2,1c.1.8,1.7,1.4,2.4,2.7s-.5,1.7-.2,3.1S367.2-5,364-3c0,0-2.1-1.3-2.2-2.7s-.3-4.1-.3-4.1,1.9-6.9-1.2-11.7C358.2-24.9,361.2-26.3,361.2-26.3Z" transform="translate(0.04 120)"/><path class="cls-4" d="M361.7-30.2c-.2,0-1,.1-1.2-.1-1-1.1-1.4-.9-4.3-1.2.6,1.3.8,2.7-.2,3.8,0,1.6.2,1.1.4,2.2a5.79,5.79,0,0,0,1.4-1.7,13.82,13.82,0,0,0,2.7.8c1.6.9,2.4,3.5,2.9,5.9,2.1.6,2.3-.1,3.2,1-.9-1.6-1.6-.2-2.2-2.3,0-1.6,1.5,1.4,1.2-1.1" transform="translate(0.04 120)"/><path class="cls-10" d="M350.2-31.1c-2.5,1.4-5.1,2.2-5.9,5.9a23.07,23.07,0,0,0-1,2.8c-1.9,6.4-.9,21.3-.4,22.8.5,1.8,2.5-4.1,2.5-4.1l-.3-3,.4-2.2s-.6.6-1.6-.5a3,3,0,0,1-.4-2.9c.1,0,.7,1.4,1.8.8-.4.6.5,1.6,1.7,1.4,1.6-2-.7-2.4-1.9-2.2l1-1.4c.6.3,1.2,1,1.7.6-1.6-.9-.7-2.1.3-3.3-1-.5-.4-1.3-.7-1.9-.6.6-1.4-.2-2-.1.7-.5,1.1-.4,1-1.4.6.4,1.2.7,1.6-.2-2.6-1.4-1.2-2.9-.6-4a1.66,1.66,0,0,0,2,.1c-.6-.8-1.7-.2-1.4-1s2.6.2,1.5-1c-.8.8-.6-.8-1.3-.2.6.6-.9.1-1.8,0,1.3-2.3,2.7-2.1,3.3-2.4C349.6-29.4,350.3-29.4,350.2-31.1Z" transform="translate(0.04 120)"/><path class="cls-6" d="M354.4.3l-.5-.2.5.2Z" transform="translate(0.04 120)"/><path class="cls-8" d="M368.5,33.6c-.3-4.2-.5-5.7-2.1-8-1.3-1.9-3.5-2.7-4.8-4.6-.9.2-1.7-.9-2.8-1.1l-5.3-1c-1.8-.3-3.3,1.4-5.2,2.1,0,.1-4.7,1.6-5.9,10.2-.7,5,.2,9.9.1,14.9-.1,4.8.3,7.5,3.5,10.6.2.2,1.6,1.3,1.8,1.5.5.2,1.5,0,1.9.6.9,1.7,6,1,7.5.7a4.33,4.33,0,0,1,1.6.1v-.5c1.5.4,4-1.8,5.3-2.6s3.4-3.9,3.9-5.4C368.5,49.4,370.3,34,368.5,33.6ZM354.8,51.4c-2.4-.8-3.5-1.6-4.3-2.8-1.4-1.5-.4-5.7-.7-7.7-.5-3-.1-6-.1-9,.1-4,2-4.4,3.6-5,1.3-.4,3.3-1.1,6,2.1,2.4,2.8,1.7,6.4,1.7,7.8a17.13,17.13,0,0,1-.1,3.2c0,1.2.5,1.5.7,2.9C362.5,50.2,357.1,52.1,354.8,51.4Z" transform="translate(0.04 120)"/><path class="cls-10" d="M364.3,29.1c0-1.6,1.5,1.4,1.2-1.1-1.5,0-1.8-3.5-1.6-4.6-1.1-.6-1.4-1.7-2.1-2.6-.2,0-1,.1-1.2-.1-1-1.1-1.4-.9-4.3-1.2.6,1.4.8,2.7-.2,3.8,0,1.6.2,1.1.4,2.2a5.79,5.79,0,0,0,1.4-1.7,13.82,13.82,0,0,0,2.7.8c1.6.9,2.4,3.5,2.9,5.9,2.1.6,2.3-.1,3.2,1C365.7,29.8,365,31.2,364.3,29.1Z" transform="translate(0.04 120)"/><path class="cls-4" d="M350.2,20c-2.5,1.4-5.1,2.2-5.9,5.9a23.07,23.07,0,0,0-1,2.8c-1.9,6.4-.9,21.2-.4,22.8.5,1.8,2.5-4.1,2.5-4.1l-.3-3,.4-2.2s-.6.6-1.6-.5a3,3,0,0,1-.4-2.9c.1,0,.7,1.4,1.8.8-.4.6.5,1.6,1.7,1.4,1.6-2-.7-2.4-1.9-2.2l1-1.4c.6.3,1.2,1,1.7.6-1.6-.9-.7-2.1.3-3.3-1-.5-.4-1.3-.7-1.9-.6.6-1.4-.2-2-.1.7-.5,1.1-.4,1-1.4.6.4,1.2.7,1.6-.2-2.6-1.4-1.2-2.9-.6-4a1.66,1.66,0,0,0,2,.1c-.6-.8-1.7-.2-1.4-1s2.6.2,1.5-1c-.8.8-.6-.8-1.3-.2.6.6-.9.1-1.8,0,1.3-2.3,2.7-2.1,3.3-2.4C349.6,21.6,350.3,21.7,350.2,20Zm-2.9,6.3c-.6.1-1.2,1.1-2.5,1.3a7.52,7.52,0,0,1,1.5-1.6C346.8,25.6,347.5,25.6,347.3,26.3Z" transform="translate(0.04 120)"/><path class="cls-10" d="M364.2,40.4c.2,1.8-3.6,1.1-.6,3.6-1.8-1.3-2,.1-1.8,2.1-1.1,2.7-1.3,5.5-3.1,7.4.7,1.4,3.8-2.3,4.6-2.2,1.7-1.3-.5-2.7,1.8-4a1.53,1.53,0,0,0-2,.3c0-.8,1.2-2.4,2.1-1.1,0-1.6-.2-3-1.9-3.7.9-1.3,1.6.1,2.4.1.3-.7-1.8-1.7-.7-3.3-1-.7-1.5-.3-1.6.7-1.4-1.1-.3-2.2,1-3.2a2.6,2.6,0,0,1-1.6-.9c-.4,1.6.2,3.2-1,4.8C362.5,41.8,363.4,40.1,364.2,40.4Z" transform="translate(0.04 120)"/><path class="cls-11" d="M345.5,28.5c-.6.8-.5,1.2-.9,1.3.8.3.3,2.1-.8,2.7.4.2.6.7.2,1.8-.4-.1-.7.3-1.1.2.1-1.7.3-2.4.6-4.5.9,1.2.1-.9.7-1.7C344.8,28.9,345.6,27.5,345.5,28.5Z" transform="translate(0.04 120)"/><path class="cls-6" d="M354.4,51.3l-.5-.2.5.2Z" transform="translate(0.04 120)"/><path class="cls-12" d="M343.9,36.7c-.4.2-.6.9-1.1.3,0-.7-.3-1.5.2-2,.2.3.2.7.6.6,0-.4.3-1,.6-.6C344.8,35.9,343.7,36,343.9,36.7Z" transform="translate(0.04 120)"/><path class="cls-11" d="M343.3,46.7c-.1.5-1.3-5.4.1-5-.3.6-.1.7.5.3-.6.9.1,3-.6,4.7C343.2,47.3,343.5,46.1,343.3,46.7Z" transform="translate(0.04 120)"/><path class="cls-8" d="M368.5,84.7c-.3-4.2-.5-5.7-2.1-8-1.3-1.9-3.5-2.7-4.8-4.6-.9.2-1.7-.9-2.8-1.1l-5.3-1c-1.8-.3-3.3,1.4-5.2,2.1,0,.1-4.7,1.6-5.9,10.2-.7,5,.2,9.9.1,14.9-.1,4.8.3,7.5,3.5,10.6.2.2,1.6,1.3,1.8,1.5.5.2,1.5,0,1.9.6.9,1.7,6,1,7.5.7a2.92,2.92,0,0,1,1.6.1v-.5c1.5.4,4-1.8,5.3-2.6s3.4-3.9,3.9-5.4C368.5,100.4,370.3,85,368.5,84.7Zm-13.7,17.7c-2.4-.8-3.5-1.6-4.3-2.8-1.4-1.5-.4-5.7-.7-7.7-.5-3-.1-6-.1-9,.1-4,2-4.4,3.6-5,1.3-.4,3.3-1.1,6,2.1,2.4,2.8,1.7,6.4,1.7,7.8a17.13,17.13,0,0,1-.1,3.2c0,1.2.5,1.5.7,2.9C362.5,101.2,357.1,103.2,354.8,102.4Z" transform="translate(0.04 120)"/><path class="cls-10" d="M364.3,80.2c0-1.6,1.5,1.4,1.2-1.1-1.5,0-1.8-3.5-1.6-4.6-1.1-.6-1.4-1.7-2.1-2.6-.2,0-1,.1-1.2-.1-1-1.1-1.4-.9-4.3-1.2.6,1.4.8,2.7-.2,3.8,0,1.6.2,1.1.4,2.2a5.79,5.79,0,0,0,1.4-1.7,13.82,13.82,0,0,0,2.7.8c1.6.9,2.4,3.5,2.9,5.9,2.1.6,2.3-.1,3.2,1C365.7,80.9,365,82.3,364.3,80.2Z" transform="translate(0.04 120)"/><path class="cls-10" d="M350.2,71c-2.5,1.4-5.1,2.2-5.9,5.9a23.07,23.07,0,0,0-1,2.8c-1.9,6.4-.9,21.3-.4,22.8.5,1.8,2.5-4.1,2.5-4.1l-.3-3,.4-2.2s-.6.6-1.6-.5a3,3,0,0,1-.4-2.9c.1,0,.7,1.4,1.8.8-.4.6.5,1.6,1.7,1.4,1.6-2-.7-2.4-1.9-2.2l1-1.4c.6.3,1.2,1,1.7.6-1.6-.9-.7-2.1.3-3.3-1-.5-.4-1.3-.7-1.9-.6.6-1.4-.2-2-.1.7-.5,1.1-.4,1-1.4.6.4,1.2.7,1.6-.2-2.6-1.4-1.2-2.9-.6-4a1.66,1.66,0,0,0,2,.1c-.6-.8-1.7-.2-1.4-1s2.6.2,1.5-1c-.8.8-.6-.8-1.3-.2.6.6-.9.1-1.8,0,1.3-2.3,2.7-2.1,3.3-2.4C349.6,72.6,350.3,72.7,350.2,71Z" transform="translate(0.04 120)"/><path class="cls-4" d="M364.2,91.5c.2,1.8-3.6,1.1-.6,3.6-1.8-1.3-2,.1-1.8,2.1-1.1,2.7-1.3,5.6-3.1,7.4.7,1.4,3.8-2.3,4.6-2.2,1.7-1.3-.5-2.7,1.8-4a1.53,1.53,0,0,0-2,.3c0-.8,1.2-2.4,2.1-1.1,0-1.6-.2-3-1.9-3.7.9-1.3,1.6.1,2.4.1.3-.6-1.8-1.7-.7-3.3-1-.7-1.5-.3-1.6.7-1.4-1.1-.3-2.2,1-3.2a2.6,2.6,0,0,1-1.6-.9c-.4,1.6.2,3.2-1,4.8C362.5,92.9,363.4,91.1,364.2,91.5Z" transform="translate(0.04 120)"/><path class="cls-9" d="M343,99.9c1.5,2.2,1.7-.7.4-.4,1.1-.7-.7-1.5.4-1.3.6.4.5.7,1.5.5-.6-.4-.9-1-.3-1.1a1.09,1.09,0,0,1-.4-1.2,3.87,3.87,0,0,0,.8-2.1c0,2.2.9,2.4,1.3,2.6.6,1.1-1.2,1.3-.5,1.9.4-.6,0,2-.9,1.8.1.9,3.8,3,2.5,5.9-.6.1-1.4-1.5-1.8-.7C343.8,103.4,343.2,102.6,343,99.9Z" transform="translate(0.04 120)"/><path class="cls-6" d="M354.4,102.3l-.5-.2.5.2Z" transform="translate(0.04 120)"/><path class="cls-6" d="M349.7,81.4a10.05,10.05,0,0,0,.4-2.5c-.1-.3.4-.9.3-1.4s-2.1-4.1-2.1-4.8,1.9-1.4,1.9-1.4a10.12,10.12,0,0,1,3-.2c.9.3,5.6-.1,6.5,0,1.2.1,2.4,4.1,2.5,4.6s-2.2.6-.7,4.2c.6,1.4,1.6,2.8.9,4.1a12.49,12.49,0,0,0-.8,4.2c-.2-1.1-.3-2.2-.4-3.2-.1-1.5-.1-4.7-2-5.5a12.76,12.76,0,0,0-6.7-.4C351.2,79.7,350.7,79.1,349.7,81.4Z" transform="translate(0.04 120)"/><path class="cls-8" d="M368.5,135.7c-.3-4.2-.5-5.7-2.1-8-1.3-1.9-3.5-2.7-4.8-4.6-.9.2-1.7-.9-2.8-1.1l-5.3-1c-1.8-.3-3.3,1.4-5.2,2.1,0,.1-4.7,1.6-5.9,10.2-.7,5,.2,9.9.1,14.9-.1,4.8.3,7.5,3.5,10.6.2.2,1.6,1.3,1.8,1.5.5.2,1.5,0,1.9.6.9,1.7,6,1,7.5.7a2.92,2.92,0,0,1,1.6.1v-.5c1.5.4,4-1.8,5.3-2.5s3.4-3.9,3.9-5.4C368.5,151.4,370.3,136.1,368.5,135.7Zm-13.7,17.8c-2.4-.8-3.5-1.6-4.3-2.8-1.4-1.5-.4-5.7-.7-7.7-.5-3-.1-6-.1-9,.1-4.1,2-4.5,3.6-5,1.3-.4,3.3-1.1,6,2.1,2.4,2.8,1.7,6.4,1.7,7.8a17.13,17.13,0,0,1-.1,3.2c0,1.2.5,1.5.7,2.9.9,7.2-4.5,9.2-6.8,8.5Z" transform="translate(0.04 120)"/><path class="cls-9" d="M361.2,126.8s2.2,1,2.4,2.7,1.9,5.6,2.1,6.6-2.4-2.7-2,1c.1.8,1.7,1.4,2.4,2.7s-.5,1.7-.2,3.1,1.3,5.3-1.9,7.2c0,0-2.1-1.3-2.2-2.6s-.3-4.1-.3-4.1,1.9-6.9-1.2-11.7C358.2,128.2,361.2,126.8,361.2,126.8Z" transform="translate(0.04 120)"/><path class="cls-4" d="M364.3,131.2c0-1.6,1.5,1.4,1.2-1.1-1.5,0-1.8-3.5-1.6-4.6-1.1-.6-1.4-1.7-2.1-2.6-.2,0-1,.1-1.2-.1-1-1.1-1.4-.9-4.3-1.2.6,1.4.8,2.7-.2,3.8,0,1.6.2,1.1.4,2.2a5.79,5.79,0,0,0,1.4-1.7,13.82,13.82,0,0,0,2.7.8c1.6.9,2.4,3.5,2.9,5.9,2.1.6,2.3-.1,3.2,1C365.7,131.9,365,133.3,364.3,131.2Z" transform="translate(0.04 120)"/><path class="cls-10" d="M350.2,122c-2.5,1.4-5.1,2.2-5.9,5.9a23.07,23.07,0,0,0-1,2.8c-1.9,6.4-.9,21.2-.4,22.8.5,1.8,2.5-4.1,2.5-4.1l-.3-3,.4-2.2s-.6.6-1.6-.5a3,3,0,0,1-.4-2.9c.1,0,.7,1.4,1.8.8-.4.6.5,1.6,1.7,1.4,1.6-2-.7-2.4-1.9-2.2l1-1.4c.6.3,1.2,1,1.7.6-1.6-.9-.7-2.1.3-3.3-1-.5-.4-1.3-.7-1.9-.6.6-1.4-.2-2-.1.7-.5,1.1-.4,1-1.4.6.4,1.2.7,1.6-.2-2.6-1.4-1.2-2.9-.6-4a1.66,1.66,0,0,0,2,.1c-.6-.8-1.7-.2-1.4-1s2.6.2,1.5-1c-.8.8-.6-.8-1.3-.2.6.6-.9.1-1.8,0,1.3-2.3,2.7-2.1,3.3-2.4C349.6,123.7,350.3,123.7,350.2,122Zm-2.9,6.4c-.6.1-1.2,1.1-2.5,1.3a7.52,7.52,0,0,1,1.5-1.6c.5-.4,1.2-.4,1,.3Z" transform="translate(0.04 120)"/><path class="cls-11" d="M344.1,136.3c-.4-.1-.7.3-1.1.2.1-1.7.3-2.4.6-4.5.9,1.2.1-.9.7-1.7.5.7,1.4-.8,1.3.2-.6.8-.5,1.2-.9,1.3.8.3.3,2-.8,2.7" transform="translate(0.04 120)"/><path class="cls-6" d="M354.4,153.3l-.5-.2.5.2Z" transform="translate(0.04 120)"/><path class="cls-12" d="M343.9,138.8c-.4.2-.6.9-1.1.3,0-.7-.3-1.5.2-2,.2.3.2.7.6.6,0-.4.3-1,.6-.6C344.8,138,343.7,138,343.9,138.8Z" transform="translate(0.04 120)"/><path class="cls-11" d="M343.3,148.8c-.1.5-1.3-5.4.1-5-.3.6-.1.7.5.3-.6.9.1,2.9-.6,4.7C343.2,149.3,343.5,148.2,343.3,148.8Z" transform="translate(0.04 120)"/><path class="cls-8" d="M348.9,160.5s-1,5.1,0,13.7c.3.1.8-.3,1.2-.3a7.72,7.72,0,0,0,1.5-.2s.4,3.2.4,1.7-.2-12.7-.2-12.7A5.81,5.81,0,0,1,348.9,160.5Z" transform="translate(0.04 120)"/><path class="cls-9" d="M361.7,165.9c0-2.9-.3-5.2-.2-6.5a27.64,27.64,0,0,0-.8-9.5c-.6-1.2-.4-2.8-1.9-3-6.5-2.9-7.8,1.7-8.4,5.1a1.56,1.56,0,0,1,1.1,1.7c-.2,4.1,0,6-.1,6.6-.2,2,.3,4.4.1,10.3.1,2.6.3,8.2-1.4,7.5.9,3.5-.7,5.2.4,8a7,7,0,0,0,4.1,2.8,5.44,5.44,0,0,0,5.6-3c.3.1.5-1.7.7-1.6v-.7a4.53,4.53,0,0,1,.3-1.6c.6-3.2,0-5.8.4-7.1C361.3,172.9,361.7,169.6,361.7,165.9Z" transform="translate(0.04 120)"/><path class="cls-10" d="M357.3,157.4c-.3-1.2-1.8-7.1-3-6.7-2.1.6-1.6,6.5-1.6,8.1-.1,3.1.1,6.5.3,9.9.1,1.2,1.2,2.9,0,2.9-.1,2.1-.5,2.6,1,2.6-.6,3.4.5,4.6,2.9,3.2,1.7-1,.4-4.6.7-4.2-.2-1.7-.4-3.3-.5-5-3.3-.5-2.1-2.8-2.8-3.6.5-.5,1.1,0,2,.5a8.66,8.66,0,0,1,.6-3.2c-.6-.5-.8-2.2-.8-2.1C356.3,159,354.5,155.8,357.3,157.4Z" transform="translate(0.04 120)"/><path class="cls-6" d="M350.1,162.2v5.4c0,1.5.7-1,.7-1s.5,4.1.5,6c0,1.1-.9.9-.8,1.7.3,2.7,1.5,2.2,1.5,1.1,0-2-.1-13.6-.1-13.6Z" transform="translate(0.04 120)"/><path class="cls-12" d="M353.3,155.2s.4-3.5.8-3,1.2,1.5.2,2.3,0,2.7-.2,3.7S353.1,159.7,353.3,155.2Z" transform="translate(0.04 120)"/><path class="cls-10" d="M357.7,146.4s1.2,1.1,1,1.8a2.78,2.78,0,0,0,.4,2.2,4.93,4.93,0,0,1,1.5,4.1c-.3,2.2.2,7.7,0,9.5a50.55,50.55,0,0,0,.2,5.5c0,2,.3,1,.4-1s.2-5.1.3-7.6-.3-9-1.2-11.4S359.8,147.1,357.7,146.4Z" transform="translate(0.04 120)"/><path class="cls-8" d="M348.8-93.9s-.9,4.4.1,13c.3.1.8-.3,1.2-.3a7.72,7.72,0,0,0,1.5-.2s.4,3.2.4,1.7-.2-12.7-.2-12.7S350.5-92.1,348.8-93.9Z" transform="translate(0.04 120)"/><path class="cls-9" d="M361.7-89.3c0-2.9-.3-5.2-.2-6.5a27.64,27.64,0,0,0-.8-9.5c-.6-1.2-.4-2.8-1.9-3-6.5-2.9-7.8,1.7-8.4,5.1a1.56,1.56,0,0,1,1.1,1.7c-.2,4.1,0,6-.1,6.6-.2,2,.3,4.4.1,10.3.1,2.6.3,8.3-1.4,7.5.9,3.5-.7,5.2.4,8a7,7,0,0,0,4.1,2.8,5.44,5.44,0,0,0,5.6-3c.3.1.5-1.7.7-1.6v-.7a4.53,4.53,0,0,1,.3-1.6c.6-3.2,0-5.8.4-7.1C361.3-82.3,361.7-85.6,361.7-89.3Z" transform="translate(0.04 120)"/><path class="cls-6" d="M350.1-93v5.4c0,1.5.7-1,.7-1s.5,4.1.5,6c0,1.1-1.3.4-1.2,1.2.3,2.7,1.9,2.7,1.9,1.6,0-2.1-.1-13.6-.1-13.6Z" transform="translate(0.04 120)"/><path class="cls-8" d="M359.2-93c-.7,4.1.4,7,0,13.4-1,2-.7,3.7-.5,6-1.2-1.8-1.2,1.3,0,1.3V-73c.6.1.3.7,0,1.3-1,0-.6-1.8-2-1.3.3-.6,1.1-2.5-.5-2,.3-.6.6-1.2,0-1.3.2-1,.4.1,1,0,.7-2.5-1.4-1.3-1-3.3.6.8.8.3,1.5,0-.1-1.3-1.6-.5-1.5-2-.1-2.1,1.7-3,.5-4.7h.5c0-2.5.5-1.9,0-4v-1.4c1.5.3.4-3.1,1.5-3.3C359.3-94.9,359.2-94,359.2-93Z" transform="translate(0.04 120)"/><path class="cls-8" d="M358.4-105.5c0-2.5-5.1-5.8-6.5-.8.2.1-1.5,5.4,0,8.2,1-.8.4-5.1.5-5.6.3-2.7,1.8-2.8,1.9-2.8s1.1-.4,1.5,1a31.78,31.78,0,0,1,1,5.2l.3,4.1s1.6,1.7,1.9-1.3C359.2-98.5,358.4-104.7,358.4-105.5Z" transform="translate(0.04 120)"/><path class="cls-6" d="M351.8-78.3s-.4,3.7.4,5.4a2.54,2.54,0,0,0,3.3,1.7h.1a1.38,1.38,0,0,0,1.2-1.6v-.1l2,2.2c.5-1.1.9-2.2,1.3-3.3.4-1.3.9,6.1-3,6.5a11.5,11.5,0,0,1-3.2-.2s-3.2-1.9-3-5.2A17,17,0,0,1,351.8-78.3Z" transform="translate(0.04 120)"/><path class="cls-8" d="M348.8-42.9s-.9,4.4.1,13c.3.1.8-.3,1.2-.3a7.72,7.72,0,0,0,1.5-.2s.4,3.2.4,1.7-.2-12.7-.2-12.7S350.5-41,348.8-42.9Z" transform="translate(0.04 120)"/><path class="cls-9" d="M361.7-38.2c0-2.9-.3-5.2-.2-6.5a27.64,27.64,0,0,0-.8-9.5c-.6-1.2-.4-2.8-1.9-3-6.5-2.9-7.8,1.8-8.4,5.1a1.56,1.56,0,0,1,1.1,1.7c-.2,4.1,0,6-.1,6.6-.2,2,.3,4.4.1,10.3.1,2.6.3,8.3-1.4,7.5.9,3.5-.7,5.2.4,8a7,7,0,0,0,4.1,2.8,5.44,5.44,0,0,0,5.6-3c.3.1.5-1.7.7-1.6v-.7a4.53,4.53,0,0,1,.3-1.6c.6-3.2,0-5.8.4-7.1C361.3-31.3,361.7-34.5,361.7-38.2Z" transform="translate(0.04 120)"/><path class="cls-6" d="M351.8-27.2s-.4,3.7.4,5.4a2.54,2.54,0,0,0,3.3,1.7h.1a1.38,1.38,0,0,0,1.2-1.6v-.1l2,2.2c.5-1.1.9-2.2,1.3-3.3.4-1.3.9,6.1-3,6.5a11.5,11.5,0,0,1-3.2-.2s-3.2-1.9-3-5.2A16.11,16.11,0,0,1,351.8-27.2Z" transform="translate(0.04 120)"/><path class="cls-12" d="M353.3-49s.4-3.5.8-3,1.2,1.5.2,2.3,0,2.7-.2,3.7S353.1-44.5,353.3-49Z" transform="translate(0.04 120)"/><path class="cls-10" d="M357.7-57.7s1.2,1.1,1,1.8a2.78,2.78,0,0,0,.4,2.2,4.93,4.93,0,0,1,1.5,4.1" transform="translate(0.04 120)"/><path class="cls-10" d="M360.6-40.1a50.55,50.55,0,0,0,.2,5.5c0,2,.3,1,.4-1s.2-5.1.3-7.6-.3-9-1.2-11.4" transform="translate(0.04 120)"/><path class="cls-8" d="M348.8,8.1s-.9,4.4.1,13c.3.1.8-.3,1.2-.3a7.72,7.72,0,0,0,1.5-.2s.4,3.2.4,1.7-.2-12.7-.2-12.7S350.5,10,348.8,8.1Z" transform="translate(0.04 120)"/><path class="cls-9" d="M361.7,12.8c0-2.9-.3-5.2-.2-6.5a27.64,27.64,0,0,0-.8-9.5c-.6-1.2-.4-2.8-1.9-3-6.5-2.9-7.8,1.7-8.4,5.1A1.56,1.56,0,0,1,351.5.6c-.2,4.1,0,6-.1,6.6-.2,2,.3,4.4.1,10.3.1,2.6.3,8.3-1.4,7.5.9,3.5-.7,5.2.4,8a7,7,0,0,0,4.1,2.8,5.44,5.44,0,0,0,5.6-3c.3.1.5-1.7.7-1.6v-.7a4.53,4.53,0,0,1,.3-1.6c.6-3.2,0-5.8.4-7.1C361.3,19.8,361.7,16.5,361.7,12.8Z" transform="translate(0.04 120)"/><path class="cls-4" d="M357.3,4.3c-.3-1.2-1.8-7.1-3-6.7-2.1.7-1.6,6.5-1.6,8.1-.1,3.1.1,6.5.3,9.9.1,1.1,1.2,2.9,0,2.9-.1,2.1-.5,2.6,1,2.6-.6,3.4.5,4.6,2.9,3.2,1.7-1,.4-4.6.7-4.2-.2-1.7-.4-3.3-.5-5-3.3-.5-2.1-2.8-2.8-3.6.5-.5,1.1,0,2,.5a8.66,8.66,0,0,1,.6-3.2c-.6-.5-.8-2.2-.8-2.1C356.3,5.9,354.5,2.7,357.3,4.3Z" transform="translate(0.04 120)"/><path class="cls-8" d="M358.4-3.4c0-2.5-5.1-5.8-6.5-.8.2.1-1.5,5.3,0,8.2,1-.8.4-5.1.5-5.6.3-2.7,1.8-2.8,1.9-2.7s1.1-.4,1.5,1a31.78,31.78,0,0,1,1,5.2l.3,4.1s1.6,1.8,1.9-1.3C359.2,3.6,358.4-2.6,358.4-3.4Z" transform="translate(0.04 120)"/><path class="cls-12" d="M353.3,2.1s.4-3.5.8-3,1.2,1.5.2,2.3,0,2.7-.2,3.7S353.1,6.6,353.3,2.1Z" transform="translate(0.04 120)"/><path class="cls-8" d="M348.8,59.2s-.9,4.4.1,13c.3.1.8-.3,1.2-.3a7.72,7.72,0,0,0,1.5-.2s.4,3.2.4,1.7-.2-12.7-.2-12.7S350.5,61,348.8,59.2Z" transform="translate(0.04 120)"/><path class="cls-9" d="M361.7,63.8c0-2.9-.3-5.2-.2-6.5a27.64,27.64,0,0,0-.8-9.5c-.6-1.2-.4-2.8-1.9-3-6.5-2.9-7.8,1.7-8.4,5.1a1.56,1.56,0,0,1,1.1,1.7c-.2,4.1,0,6-.1,6.6-.2,2,.3,4.4.1,10.3.1,2.6.3,8.3-1.4,7.5.9,3.5-.7,5.2.4,8a7,7,0,0,0,4.1,2.8,5.44,5.44,0,0,0,5.6-3c.3.1.5-1.7.7-1.6v-.7a4.53,4.53,0,0,1,.3-1.6c.6-3.2,0-5.7.4-7.1C361.3,70.8,361.7,67.6,361.7,63.8Z" transform="translate(0.04 120)"/><path class="cls-10" d="M357.3,55.3c-.3-1.2-1.8-7.1-3-6.7-2.1.6-1.6,6.5-1.6,8.1-.1,3.1.1,6.5.3,9.9.1,1.2,1.2,2.9,0,2.9-.1,2.1-.5,2.6,1,2.6-.6,3.4.5,4.6,2.9,3.2,1.7-1,.4-4.6.7-4.2-.2-1.7-.4-3.3-.5-5-3.3-.5-2.1-2.8-2.8-3.6.5-.5,1.1,0,2,.5a8.66,8.66,0,0,1,.6-3.2c-.6-.5-.8-2.2-.8-2.1C356.3,56.9,354.5,53.8,357.3,55.3Z" transform="translate(0.04 120)"/><path class="cls-6" d="M350.1,60.1v5.4c0,1.5.7-1,.7-1s.5,4.1.5,6c0,1.1-1.3.4-1.2,1.2.3,2.7,1.9,2.7,1.9,1.6,0-2.1-.1-13.6-.1-13.6Z" transform="translate(0.04 120)"/><path class="cls-8" d="M358.4,47.6c0-2.5-5.1-5.8-6.5-.8.2.1-1.5,5.4,0,8.1,1-.8.4-5.1.5-5.6.3-2.7,1.8-2.8,1.9-2.8s1.1-.4,1.5,1a31.78,31.78,0,0,1,1,5.2l.3,4.1s1.6,1.8,1.9-1.3C359.2,54.6,358.4,48.4,358.4,47.6Z" transform="translate(0.04 120)"/><path class="cls-6" d="M351.8,74.8s-.4,3.7.4,5.4a2.54,2.54,0,0,0,3.3,1.7h.1a1.38,1.38,0,0,0,1.2-1.6v-.1l2,2.2c.5-1.1.9-2.2,1.3-3.3.4-1.3.9,6.1-3,6.5a11.5,11.5,0,0,1-3.2-.2s-3.2-1.9-3-5.2A20.35,20.35,0,0,1,351.8,74.8Z" transform="translate(0.04 120)"/><path class="cls-12" d="M353.3,53.1s.4-3.5.8-3,1.2,1.5.2,2.3,0,2.7-.2,3.7S353.1,57.6,353.3,53.1Z" transform="translate(0.04 120)"/><path class="cls-10" d="M357.7,44.4s1.2,1.1,1,1.8a2.78,2.78,0,0,0,.4,2.2,4.93,4.93,0,0,1,1.5,4.1c-.3,2.2.2,7.7,0,9.5a50.55,50.55,0,0,0,.2,5.5c0,2,.3,1,.4-1s.2-5.1.3-7.6-.3-9-1.2-11.4S359.8,45,357.7,44.4Z" transform="translate(0.04 120)"/><path class="cls-8" d="M348.8,110.2s-.9,4.4.1,13c.3.1.8-.3,1.2-.3a7.72,7.72,0,0,0,1.5-.2s.4,3.2.4,1.7-.2-12.7-.2-12.7S350.5,112,348.8,110.2Z" transform="translate(0.04 120)"/><path class="cls-9" d="M361.7,114.9c0-2.9-.3-5.2-.2-6.5a27.64,27.64,0,0,0-.8-9.5c-.6-1.2-.4-2.8-1.9-3-6.5-2.9-7.8,1.7-8.4,5.1a1.56,1.56,0,0,1,1.1,1.7c-.2,4.1,0,6-.1,6.6-.2,2,.3,4.4.1,10.3.1,2.6.3,8.2-1.4,7.5.9,3.5-.7,5.2.4,8a7,7,0,0,0,4.1,2.8,5.44,5.44,0,0,0,5.6-3c.3.1.5-1.7.7-1.6v-.7a4.53,4.53,0,0,1,.3-1.6c.6-3.2,0-5.7.4-7.1C361.3,121.8,361.7,118.6,361.7,114.9Z" transform="translate(0.04 120)"/><path class="cls-10" d="M357.3,106.4c-.3-1.2-1.8-7.1-3-6.7-2.1.6-1.6,6.5-1.6,8.1-.1,3.1.1,6.5.3,9.9.1,1.2,1.2,2.9,0,2.9-.1,2.1-.5,2.6,1,2.6-.6,3.4.5,4.6,2.9,3.2,1.7-1,.4-4.6.7-4.2-.2-1.7-.4-3.3-.5-5-3.3-.5-2.1-2.8-2.8-3.6.5-.5,1.1,0,2,.5a8.66,8.66,0,0,1,.6-3.2c-.6-.5-.8-2.2-.8-2.1C356.3,107.9,354.5,104.8,357.3,106.4Z" transform="translate(0.04 120)"/><path class="cls-8" d="M358.4,98.7c0-2.5-5.1-5.8-6.5-.9.2.1-1.5,5.4,0,8.1,1-.8.4-5.1.5-5.6.3-2.6,1.8-2.8,1.9-2.8s1.1-.4,1.5,1a31.78,31.78,0,0,1,1,5.2l.3,4.1s1.6,1.7,1.9-1.4C359.2,105.6,358.4,99.4,358.4,98.7Z" transform="translate(0.04 120)"/><path class="cls-6" d="M351.8,125.9s-.4,3.7.4,5.4a2.54,2.54,0,0,0,3.3,1.7h.1a1.38,1.38,0,0,0,1.2-1.6v-.1l2,2.2c.5-1.1.9-2.2,1.3-3.3.4-1.3.9,6.2-3,6.5a11.5,11.5,0,0,1-3.2-.2s-3.2-1.9-3-5.2A19.08,19.08,0,0,1,351.8,125.9Z" transform="translate(0.04 120)"/><path class="cls-6" d="M316.5,195.8s-.2,1-.3,1.6a6.12,6.12,0,0,1,1.2.5,23.92,23.92,0,0,0,2.1,1.3c.5,0,7,.8,7.4.7s3.4-1.3,3.9-1.5,0-1.8,0-1.8l-7,1.3C323.4,197.9,316.5,195.8,316.5,195.8Z" transform="translate(0.04 120)"/><path class="cls-13" d="M317.8,192.7a7.55,7.55,0,0,0-1.1,1.4l-.3,3c1.2.5,2.3,1.1,3.5,1.7l6.5.6a29.25,29.25,0,0,1,4.2-1.3l.3-3.1-.3-1C330.6,193.9,319.6,193,317.8,192.7Z" transform="translate(0.04 120)"/><path class="cls-4" d="M317,193.8a6.36,6.36,0,0,1,3.4,1.4,60,60,0,0,1,6.1.6,6.25,6.25,0,0,1,4-.9v-1a33.7,33.7,0,0,1-4.3-1.4l-4.3-.4c-1.4.2-2.8.4-4.2.5Z" transform="translate(0.04 120)"/><path class="cls-14" d="M319,193.1s-.8.9,2.3,1.5c2.7.6,7.5.8,7.3-.6S320,192,319,193.1Z" transform="translate(0.04 120)"/><path class="cls-4" d="M316.7,194s2.7.4,3.4,1.3l-.4,3.2-.4-.2.6.4.9-.1-.6-.1.3-3a11.3,11.3,0,0,1,2.6,0,12.29,12.29,0,0,0-2.7-.2,7,7,0,0,0-3.6-1.4Z" transform="translate(0.04 120)"/><path class="cls-15" d="M393.2,199.3a5.48,5.48,0,0,1,.8,1.5l-.3,3a25.94,25.94,0,0,0-3.7,1.1l-6.5-.6a35.54,35.54,0,0,0-3.9-2l.2-3.1.5-.9C380.4,198.3,391.4,199.3,393.2,199.3Z" transform="translate(0.04 120)"/><path class="cls-4" d="M393.7,200.6a7.49,7.49,0,0,0-3.6.7c-2-.3-4.1-.4-6.1-.5a6.52,6.52,0,0,0-3.8-1.6l.2-1a40.41,40.41,0,0,0,4.5-.6l4.3.4a27.69,27.69,0,0,0,4.1,1.2Z" transform="translate(0.04 120)"/><path class="cls-14" d="M392,199.5s.7,1-2.5,1.1c-2.8.1-7.5-.5-7.1-1.9S391.1,198.3,392,199.5Z" transform="translate(0.04 120)"/><path class="cls-7" d="M1001.3,236.7c-1.5,4.9-.5,9.9-1.1,14.8a18,18,0,0,0-.2,2.2,92.15,92.15,0,0,0,10.5.4c-.8-2,.5-5.1.2-6.8-.5-3,.1-6,.5-9,.5-4,4-1.9,6.5-2.2,1.9-.2,4.5-2.2,8.2,1.4,3.3,3.1,3.4,6,3.3,7.4a8.78,8.78,0,0,1-.1,2.8,12.17,12.17,0,0,0-.1,3.3c.2,2.2.2,3.8-.9,5a37.12,37.12,0,0,0,8.8.4,4.14,4.14,0,0,1,1.6.2c1-4.5,1.8-12,.6-14.1,0-4.2.5-5.7-1.7-8.2-1.7-2-4.9-3.1-6.7-5.2-1.3.1-2.4-1.1-4-1.5-2.4-.5-5.5-1.2-7.8-1.7-2.7-.5-5.1,1-7.9,1.4" transform="translate(0.04 120)"/><path class="cls-4" d="M1003.8,254c.3-.5.5-.8.5-.8l-.2-3,.7-2.2s-1,.5-2.4-.7c-1.2-1-.4-2.9-.4-2.9a2.37,2.37,0,0,0,2.7,1c-.6.5,0,1.1,1.8,1,1.5-.9-.3-1.9-2.1-1.8l1.6-1.2c.9.4,1.8,1.2,2.5.8-2.3-1-.9-2.1.8-3.3-1.5-.7-.6-1.3-.9-2-.9.5-2-.4-3-.4,1-.4,1.7-.2,1.6-1.2.9.4,1.7.8,2.4,0-3.7-1.7-1.5-3.1-.5-4a3.94,3.94,0,0,0,3,.4c-.9-.8-2.5-.4-2-1.2s3.9.5,2.3-.8c-1.2.7-.8-.9-1.8-.4.8.7-1.3,0-2.7-.3,2.2-2.1,4.2-1.7,5.1-2-.1-.9.8-.8.8-2.5-3.9,1.1-7.7,1.5-9.3,5.1a23.26,23.26,0,0,0-1.7,2.6c-2.5,4.6-3,14.3-2.8,19.4A18.71,18.71,0,0,0,1003.8,254Z" transform="translate(0.04 120)"/><path class="cls-16" d="M1001.5,253.9c1.3.1,2.6.2,3.9.2.2-.4,1.6-1.1.8-2.3a2.52,2.52,0,0,1-1.7-2.8c-.4,1.1-.7,1.7-1.3,2-.3.4,0,.9.5,1.2-.9.1-.5.7.4,1.2-1.5.1-1.3-.2-2.1-.6C1000.5,252.4,1002.7,253.3,1001.5,253.9Z" transform="translate(0.04 120)"/><path class="cls-6" d="M1039.5,256.6v-1.4c0-.3-.4-.5-.4-.9v-2.4a13.88,13.88,0,0,0-1,2.1,9.48,9.48,0,0,0-.5,2.3A14.81,14.81,0,0,1,1039.5,256.6Z" transform="translate(0.04 120)"/><path class="cls-4" d="M969.2,252.5s0-.8.4-1a21.75,21.75,0,0,0,2.5-1.4,14.62,14.62,0,0,0,1.9-1.6c.2-.3,2.1-.2,2.1-.2a14.87,14.87,0,0,0,3.6.5,7.77,7.77,0,0,1,3,.4l16.9,1.5.8.4Z" transform="translate(0.04 120)"/><path class="cls-6" d="M969.3,255.1a4.25,4.25,0,0,1-.2,1.1s6.9.4,8.7.6l3.6.4s12.7,1.3,12.3,1,1.8.1,1.8.1,7.5.8,9.7.8,7.6.6,7.6.6-.1-.4,2.3-.2,6.7.4,7.7.8,15.8,1.5,18.9,1.7,9.3,1,9.7.6a3.19,3.19,0,0,1,1.4-.3s11.2,1,11.7,1.1,3,.9,3,.9l2-.1v-2.9s-2.8-1.9-2.8-2.3a3.46,3.46,0,0,0-2-2.1,379.08,379.08,0,0,1-90.2-7.8,5.48,5.48,0,0,1-1.8,1.6c-.9.4-1.7.9-2.6,1.4a1.76,1.76,0,0,0-.8.9" transform="translate(0.04 120)"/><path class="cls-5" d="M974.4,248.7a5.48,5.48,0,0,1-1.8,1.6c-.9.4-1.7.9-2.6,1.4a2.36,2.36,0,0,0-.8.9,13.55,13.55,0,0,1,.2,2,4.25,4.25,0,0,1-.2,1.1s6.9.4,8.7.6l3.6.4s5.7.5,8.2.8c.3,0,.2-.4.4-.4s1.6.6,1.9.6c1.2.1,2,.1,1.8,0-.5-.3,1.8.2,1.8.2s7.5.8,9.7.8,7.6.7,7.6.7-.1-.4,2.3-.2,6.7.4,7.7.8,15.8,1.5,18.9,1.7,9.3,1,9.7.6a3.19,3.19,0,0,1,1.4-.3s11.2,1,11.7,1.1l3,.9,2-.1V261a15.6,15.6,0,0,1-2.8-2.3,3.46,3.46,0,0,0-2-2.1A385.63,385.63,0,0,1,974.4,248.7Z" transform="translate(0.04 120)"/><path class="cls-6" d="M1029.7,254.4l-.1-1.4c-.3.4-.6.9-.9,1.4-.2.3,0,.7-.2,1a1.84,1.84,0,0,1-1.6.5c-.8-.1-2-.3-2-.3l-1.2.3a13.1,13.1,0,0,0,2.7.6c1.2.1,1.4-.4,2.3.1a10.89,10.89,0,0,0,3.1.8c1.1.1,2.2-.7,3.7-.4.5.1,1.5.2,2.5.3.4,0,1.4.6,1.9.6s.1-.6.4-.6a6.93,6.93,0,0,1,2,.3c.3-.1-.6-.8-1.7-1.1s-1.9-.2-2-.6c-.2-.9-.2-.4-2-.3s-3.1,1.1-4.4,0a1.37,1.37,0,0,0-1.8-.1.1.1,0,0,0-.1.1Z" transform="translate(0.04 120)"/><path class="cls-6" d="M997.7,252.3a.43.43,0,0,0,.1.6c.1.1.7.1-.3.2s-2.5,0-3,.1a4.25,4.25,0,0,0-1.1.2,19.27,19.27,0,0,1,2.4.1c.8.2,3.2.5,3.8.6a5.64,5.64,0,0,1,1.2.4,11,11,0,0,0,1.8.2c.1,0,.2-.1.3-.1.4,0,.8.1,1.1.1h1.1a2.77,2.77,0,0,0,.9.1,13.13,13.13,0,0,0,2.8-.1,16.35,16.35,0,0,0,2.2-.2,10.37,10.37,0,0,1,1-.4c.7-.1,3.1.3,3.4.1l-2.8-.4-.8-.7-.5.5-.7-.1-.3-.6c1.1-7.2-.1-6.7.5-9.9-1.5-.3-.5,1.3-2,.5-.2.5.6,1.8.6,1.9.8,1.9-3.1,3.3-1.8,5-.5.3,0,1.5.6,2.4a3,3,0,0,0-1.3.2,8.39,8.39,0,0,1-4.7.5c-1.9-.4-1.6-2.4-2.2-2.6-.3-.1-.4,1.8-.4,1.8a6.89,6.89,0,0,0-1,.4" transform="translate(0.04 120)"/><path class="cls-4" d="M1053.9,259.3a50.44,50.44,0,0,1,5.5,0c1,.2,8.8,1.4,8.8,1.4s-1.9-1.2-1.9-2,.4,0,.4,0l2.8,2.3a7.48,7.48,0,0,1-2.6.1c-1.5-.1-6.3-.8-8-.7A17.23,17.23,0,0,1,1053.9,259.3Z" transform="translate(0.04 120)"/><path class="cls-17" d="M982,245.5a7.55,7.55,0,0,0-1.1,1.4l-.3,3c1.2.5,2.3,1.1,3.5,1.7l6.5.5c1.4-.5,2.7-.9,4.2-1.3l.3-3.1-.3-1S983.9,245.7,982,245.5Z" transform="translate(0.04 120)"/><path class="cls-4" d="M981.3,246.6a6.36,6.36,0,0,1,3.4,1.4c2,.1,4.1.3,6.1.6a6.25,6.25,0,0,1,4-.9v-1a30.87,30.87,0,0,1-4.3-1.4l-4.3-.4c-1.4.2-2.8.4-4.2.5Z" transform="translate(0.04 120)"/><path class="cls-14" d="M983.3,245.9s-.8.9,2.3,1.5c2.7.6,7.5.8,7.3-.6S984.3,244.8,983.3,245.9Z" transform="translate(0.04 120)"/><path class="cls-4" d="M981,246.8s2.7.4,3.4,1.2l-.4,3.2-.4-.2.7.4.9-.1-.6-.1.3-3a11.3,11.3,0,0,1,2.6,0,12.29,12.29,0,0,0-2.7-.2,7,7,0,0,0-3.6-1.4Z" transform="translate(0.04 120)"/><path class="cls-14" d="M981.2,246.8a28.25,28.25,0,0,0-.2,2.9,4.13,4.13,0,0,0,1.1.7,7.37,7.37,0,0,1-1.4-.4c0-.1.3-3.1.3-3.1Z" transform="translate(0.04 120)"/><path class="cls-18" d="M1057.5,251.9a5.48,5.48,0,0,1,.8,1.5l-.3,3a25.94,25.94,0,0,0-3.7,1.1l-6.5-.6a23.51,23.51,0,0,0-3.9-1.9l.2-3.1.4-.9C1044.7,251,1055.7,251.9,1057.5,251.9Z" transform="translate(0.04 120)"/><path class="cls-4" d="M1058,253.2a6.56,6.56,0,0,0-3.6.8c-2-.3-4.1-.4-6.1-.5a6.52,6.52,0,0,0-3.8-1.6l.2-1a40.41,40.41,0,0,0,4.5-.6l4.3.4a27.69,27.69,0,0,0,4.1,1.2Z" transform="translate(0.04 120)"/><path class="cls-14" d="M1056.2,252.1s.7,1-2.6,1.1c-2.7.1-7.5-.5-7.1-1.9S1055.4,250.9,1056.2,252.1Z" transform="translate(0.04 120)"/><path class="cls-4" d="M1058.3,253.4s-2.8,0-3.6.6l-.1,3.2.5-.1-.7.3-.9-.2h.7l.3-3a20.24,20.24,0,0,0-2.6-.4,12.41,12.41,0,0,1,2.7.3,7.26,7.26,0,0,1,3.8-.8Z" transform="translate(0.04 120)"/><path class="cls-14" d="M1058.1,253.4a14.28,14.28,0,0,1-.3,2.9,6.12,6.12,0,0,1-1.2.5,5.9,5.9,0,0,0,1.4-.2c.1-.1.2-3.1.2-3.1Z" transform="translate(0.04 120)"/><path class="cls-8" d="M1008.9,217.6s.6,7,1.5,9.4c.3.2,6.3-1.5,9-.6.4.1,1-3.6,1-3.6l-.1-4.1-1-1.1C1019.4,217.4,1012.6,220,1008.9,217.6Z" transform="translate(0.04 120)"/><path class="cls-9" d="M1030.4,224.5c.8-2.8,1.1-5.1,1.6-6.3a27.08,27.08,0,0,0,1.9-9.3c-.2-1.3.3-4.8-.4-7.3-3.1-16.9-23.3-14.4-24.8-11.3.3.2-4.1,2.9.4,6.5-.4,2.1,2.5,4.1,4.9,3.7,9-3.7,9.7,7.4,9.7,7.3a36.1,36.1,0,0,1-1.5,9.2c-.8,1.9-.9,3.5-2.7,9.1-.6,2.5-2.8,6.3-3.7,8-.9,3.6-2.1,1.9-3.5,2.3.3,1.4.8,7.4,5.1,8.1a5.55,5.55,0,0,0,6.2-1.3c.2.2.9-1.5,1.1-1.3v-.3l.1-.4a6.11,6.11,0,0,1,.7-1.4c1.4-2.9,1.5-5.5,2.3-6.7C1028.1,231.1,1029.4,228.1,1030.4,224.5Z" transform="translate(0.04 120)"/><path class="cls-4" d="M1028.6,215.1c.1-1.3.2-7.3-1-7.3-2.2,0-3.3,5.8-3.8,7.3-.9,2.9-1.8,6.3-2.5,9.6-.3,1.1.3,3.1-.8,2.8-.7,2-1.2,2.4.2,2.8-1.5,3.1-.8,4.6,1.8,3.9,1.9-.5,1.7-4.4,1.8-3.8a42.09,42.09,0,0,1,.9-4.9c-3-1.4-1.2-3.3-1.7-4.3.6-.4,1.1.3,1.8,1a11.08,11.08,0,0,1,1.4-2.9c-.5-.6-.1-2.4-.2-2.3C1027.1,216.4,1026.3,212.9,1028.6,215.1Z" transform="translate(0.04 120)"/><path class="cls-6" d="M1017.9,232.3s-1.4,3.5-1.1,5.3a2.61,2.61,0,0,0,2.7,2.6h.1a1.29,1.29,0,0,0,1.5-1.2v-.2l1.3,2.7a30.13,30.13,0,0,0,2.2-2.8c.7-1.1-.8,6.2-4.7,5.4a17.6,17.6,0,0,1-3-1s-2.5-2.7-1.4-5.8A23,23,0,0,1,1017.9,232.3Z" transform="translate(0.04 120)"/><path class="cls-19" d="M1009,216.6a11.25,11.25,0,0,1,2.1-1.2q3-.75,6-1.2l2.8,1.4-.6,1.3S1010.2,220.1,1009,216.6Z" transform="translate(0.04 120)"/><path class="cls-20" d="M1010.2,219.4s.4,2.1,2.2,1.9,5-2.2,4.1-1.2a5.77,5.77,0,0,0-1.4,3.3c-.1.7-1.8,2.3-1.8,2.3H1011C1010.9,225.7,1009.7,221.6,1010.2,219.4Z" transform="translate(0.04 120)"/><path class="cls-20" d="M1027,206.6s2.5-.8,1.3-4.2a58.29,58.29,0,0,0-2.3-5.8c-1-2.4-1.7-3.8-1.7-3.8a18.9,18.9,0,0,1-5.2-1.3c-.6-.3,1.2-.9.5-1.2a9.49,9.49,0,0,0-6-.4c-1.7.6-.3,2.8,1.5,4.2s2.1-.4,2.1-.4,3.8-.8,4.4.8,1.8,6.4,2.5,4.6,3,2,1.9,5.3S1025.8,207.5,1027,206.6Z" transform="translate(0.04 120)"/><path class="cls-8" d="M1014.3,41.5s-.9,4.4.1,13c.3.1.8-.3,1.2-.3a7.72,7.72,0,0,0,1.5-.2s.4,3.2.4,1.7-.2-12.7-.2-12.7S1016,43.3,1014.3,41.5Z" transform="translate(0.04 120)"/><path class="cls-9" d="M1027.2,46.1c0-2.9-.3-5.2-.2-6.5a27.6,27.6,0,0,0-.7-9.5c-.6-1.2-.4-2.8-1.9-3-6.5-2.9-7.8,1.7-8.4,5.1a1.47,1.47,0,0,1,1.1,1.7c-.2,4.1,0,6-.1,6.6-.2,2,.3,4.4.1,10.3.1,2.6.3,8.3-1.4,7.5.9,3.5-.7,5.2.4,8a6.67,6.67,0,0,0,4.1,2.8,5.44,5.44,0,0,0,5.6-3c.3.1.5-1.7.7-1.6v-.7c.1-.5.2-1.1.3-1.6.6-3.2,0-5.7.4-7.1C1026.8,53.1,1027.2,49.8,1027.2,46.1Z" transform="translate(0.04 120)"/><path class="cls-10" d="M1022.8,37.6c-.3-1.2-1.8-7.1-3-6.7-2.1.6-1.6,6.5-1.6,8.1-.1,3.1.1,6.5.3,9.9.1,1.2,1.2,2.9,0,2.9-.1,2.1-.5,2.6,1,2.6-.6,3.4.5,4.6,2.9,3.2,1.7-1,.4-4.6.7-4.2-.2-1.7-.4-3.3-.5-5-3.3-.5-2.1-2.8-2.8-3.6.5-.5,1.1,0,2,.5a8.66,8.66,0,0,1,.6-3.2c-.6-.5-.8-2.2-.8-2.1C1021.8,39.2,1020,36,1022.8,37.6Z" transform="translate(0.04 120)"/><path class="cls-6" d="M1015.6,42.4v5.4c0,1.5.7-1,.7-1s.5,4.1.5,6c0,1.1-1.3.4-1.2,1.2.3,2.7,1.9,2.7,1.9,1.6,0-2-.1-13.6-.1-13.6Z" transform="translate(0.04 120)"/><path class="cls-8" d="M1024.7,42.4c-.7,4.1.3,6.9,0,13.4-1,2-.7,3.7-.5,6-1.2-1.8-1.2,1.3,0,1.3v-.7c.6.1.3.8,0,1.3-1,0-.6-1.8-2-1.3.3-.6,1.1-2.5-.5-2,.3-.6.6-1.2,0-1.3.2-1,.4.1,1,0,.7-2.5-1.3-1.3-1-3.4.6.8.8.3,1.5,0,0-1.3-1.6-.5-1.5-2-.1-2.1,1.7-3,.5-4.7h.5c0-2.5.5-1.9,0-4V43.7c1.5.3.4-3.1,1.5-3.4C1024.8,40.5,1024.7,41.4,1024.7,42.4Z" transform="translate(0.04 120)"/><path class="cls-8" d="M1023.9,29.9c0-2.5-5.1-5.8-6.5-.9.2.1-1.5,5.4.1,8.1,1-.8.4-5.1.5-5.6.3-2.6,1.8-2.8,1.9-2.8s1.1-.4,1.5,1a31.78,31.78,0,0,1,1,5.2l.3,4.1s1.6,1.7,1.9-1.4C1024.8,36.9,1023.9,30.7,1023.9,29.9Z" transform="translate(0.04 120)"/><path class="cls-6" d="M1017.3,57.1s-.4,3.7.4,5.4a2.54,2.54,0,0,0,3.3,1.7h.1a1.38,1.38,0,0,0,1.2-1.6v-.1l2,2.2c.5-1.1.9-2.2,1.3-3.3.4-1.3.9,6.1-3,6.5a11.5,11.5,0,0,1-3.2-.2s-3.2-1.9-3-5.2A20.35,20.35,0,0,1,1017.3,57.1Z" transform="translate(0.04 120)"/><path class="cls-12" d="M1018.8,35.4s.4-3.5.7-3,1.2,1.5.2,2.3,0,2.7-.2,3.7S1018.6,39.9,1018.8,35.4Z" transform="translate(0.04 120)"/><path class="cls-10" d="M1023.2,26.7s1.2,1.1,1,1.8a2.78,2.78,0,0,0,.4,2.2,5.26,5.26,0,0,1,1.5,4.1c-.3,2.2.2,7.7,0,9.5s.2,3.5.2,5.5.3,1,.4-1,.2-5.1.3-7.6-.3-9-1.2-11.4S1025.3,27.3,1023.2,26.7Z" transform="translate(0.04 120)"/><path class="cls-8" d="M1034-84.6c-.3-4.2-.5-5.7-2.1-8-1.3-1.9-3.5-2.7-4.8-4.6-.9.2-1.7-.9-2.8-1.1l-5.3-1c-1.8-.3-3.3,1.4-5.2,2,0,.1-4.7,1.7-5.9,10.2-.7,5,.2,9.9.1,14.9-.1,4.8.3,7.5,3.5,10.6.2.2,1.7,1.3,1.8,1.5.5.2,1.5,0,1.8.6.9,1.7,6,1,7.5.7a4.33,4.33,0,0,1,1.6.1v-.5c1.5.4,4-1.8,5.3-2.5s3.4-3.9,3.9-5.4C1034-68.9,1035.7-84.3,1034-84.6Zm-13.7,17.7c-2.4-.8-3.5-1.6-4.3-2.8-1.4-1.5-.4-5.7-.7-7.7-.5-3-.1-6,0-9,.1-4.1,1.9-4.5,3.6-5,1.3-.4,3.3-1.1,6,2.1,2.4,2.8,1.7,6.4,1.7,7.8a11.5,11.5,0,0,1-.2,3.2c0,1.2.5,1.5.7,2.8.8,7.4-4.6,9.4-6.8,8.6Z" transform="translate(0.04 120)"/><path class="cls-9" d="M1026.6-93.5s2.2,1,2.4,2.7,1.9,5.6,2.1,6.6-2.4-2.7-2,1c.1.8,1.7,1.4,2.4,2.7s-.5,1.7-.2,3.1,1.3,5.2-1.9,7.2c0,0-2.1-1.3-2.2-2.7s-.3-4.1-.3-4.1,1.9-6.9-1.2-11.7C1023.6-92.1,1026.6-93.5,1026.6-93.5Z" transform="translate(0.04 120)"/><path class="cls-10" d="M1029.7-89.2c0-1.6,1.5,1.4,1.2-1.1-1.4,0-1.8-3.5-1.6-4.6-1.1-.6-1.4-1.7-2.2-2.6-.2,0-1,.1-1.2-.1-1-1.1-1.4-.9-4.3-1.2.6,1.3.8,2.7-.2,3.8a9.63,9.63,0,0,0,.3,2.2,4.31,4.31,0,0,0,1.3-1.7,13.82,13.82,0,0,0,2.7.8c1.6.9,2.4,3.5,2.8,5.9,2.1.6,2.3-.1,3.2,1C1031.1-88.5,1030.4-87.1,1029.7-89.2Z" transform="translate(0.04 120)"/><path class="cls-10" d="M1015.6-98.3c-2.5,1.4-5.1,2.2-5.9,5.9a23.07,23.07,0,0,0-1,2.8c-1.9,6.4-.8,21.3-.4,22.8.6,1.8,2.5-4.1,2.5-4.1l-.3-3,.3-2.2s-.6.6-1.6-.5a3,3,0,0,1-.4-2.9c.1,0,.7,1.4,1.8.8-.4.6.5,1.6,1.7,1.4,1.6-2-.7-2.4-1.9-2.2l1-1.4c.6.3,1.2,1,1.7.6-1.6-.9-.7-2.1.3-3.3-1-.5-.5-1.3-.7-1.9-.6.5-1.4-.2-2.1-.1.7-.5,1.1-.4,1-1.4.6.4,1.2.7,1.6-.2-2.6-1.4-1.2-2.9-.6-4a1.66,1.66,0,0,0,2,.1c-.7-.8-1.7-.2-1.4-1s2.6.2,1.5-1c-.8.8-.6-.8-1.3-.2.6.6-.9.1-1.8,0,1.3-2.3,2.7-2.1,3.3-2.4C1015-96.7,1015.7-96.6,1015.6-98.3Zm-2.9,6.3c-.6.1-1.2,1.1-2.5,1.3a11.37,11.37,0,0,1,1.5-1.6C1012.2-92.7,1012.9-92.7,1012.7-92Z" transform="translate(0.04 120)"/><path class="cls-10" d="M1029.6-77.8c.2,1.8-3.6,1.1-.6,3.6-1.8-1.3-2,.1-1.8,2.1-1,2.7-1.3,5.6-3.1,7.4.7,1.4,3.8-2.3,4.6-2.2,1.7-1.3-.5-2.7,1.8-4a1.53,1.53,0,0,0-2,.3c0-.8,1.2-2.4,2.1-1.1,0-1.6-.2-3-1.8-3.7.9-1.3,1.6.1,2.4.1.3-.7-1.8-1.7-.7-3.3-1-.7-1.5-.3-1.6.7-1.4-1.1-.3-2.2,1-3.2a2.6,2.6,0,0,1-1.6-.9c-.4,1.6.2,3.2-1,4.8C1027.9-76.4,1028.8-78.2,1029.6-77.8Z" transform="translate(0.04 120)"/><path class="cls-11" d="M1011-89.8c-.6.8-.5,1.2-.9,1.3.8.3.3,2.1-.8,2.7.4.2.6.7.3,1.8-.4-.1-.7.3-1.1.2.1-1.7.3-2.4.6-4.5.9,1.2.1-.9.7-1.7C1010.2-89.3,1011.1-90.8,1011-89.8Z" transform="translate(0.04 120)"/><path class="cls-9" d="M1008.5-69.5c1.5,2.2,1.7-.7.3-.4,1.1-.7-.7-1.5.4-1.3.6.4.5.7,1.5.5-.6-.3-.9-1-.3-1.1a.93.93,0,0,1-.3-1.2,3.23,3.23,0,0,0,.8-2.1c0,2.2.9,2.3,1.3,2.6.6,1.1-1.2,1.3-.5,1.8.3-.6,0,2-.9,1.8.1.9,3.8,3,2.5,5.9-.6.2-1.4-1.5-1.8-.7C1009.2-65.9,1008.6-66.7,1008.5-69.5Z" transform="translate(0.04 120)"/><path class="cls-6" d="M1031.8-92.7a9.48,9.48,0,0,0-2-2c-.1.1-.1.3-.2.4v.1c.2-.2.5-.2.8.1,1.7,1.5,1.2,2.8,2.4,3.2a2,2,0,0,0-1.3.1c1.5.7-.1,1.1.4,1.5.5-.1,1-.3,1.5-.4A14.59,14.59,0,0,0,1031.8-92.7Z" transform="translate(0.04 120)"/><path class="cls-6" d="M1019.8-67l-.5-.2.5.2Z" transform="translate(0.04 120)"/><path class="cls-6" d="M1034.7-78.3l-.3-5.7a1.54,1.54,0,0,0-.4-.6,19.93,19.93,0,0,0-.6-4.9c-.8.8.5,1.1-.3,1.9-.2-.7-1.9-1.4-1.3-.8-.2.6.5,1.3,1,1.7.5,2.6-.4,3.2-.7,4.2.5-.1.8-1.1,1.5-.4-.2.3,0,.5-.1.8-1.3-.8-1.5,1.8-1.5,1.7a1,1,0,0,1,1.3,0c.1,1.4-.7,1.2-1.1,1.1.8.3-.2,1.1.4,1.5.5-.3.7-1.9,1.3-1.4-.3.4.4.6.2,1-1.1-1-1.1,1-.8,1.3a1.92,1.92,0,0,1,1.2-.4A4.4,4.4,0,0,0,1034.7-78.3Z" transform="translate(0.04 120)"/><path class="cls-12" d="M1009.3-81.6c-.4.2-.6.9-1.1.3,0-.7-.3-1.5.2-2,.2.3.2.7.6.6,0-.4.3-1,.6-.6C1010.2-82.3,1009.1-82.3,1009.3-81.6Z" transform="translate(0.04 120)"/><path class="cls-6" d="M1015.1-88a10.05,10.05,0,0,0,.4-2.5c-.1-.3.4-.9.3-1.4s-2.1-4.1-2.1-4.8,1.9-1.4,1.9-1.4a10.12,10.12,0,0,1,3-.2c.9.3,5.6-.1,6.5,0,1.2.1,2.4,4.1,2.5,4.6s-2.3.6-.7,4.2c.6,1.4,1.6,2.8.9,4.1a12.49,12.49,0,0,0-.8,4.2c-.2-1.1-.3-2.2-.4-3.2-.1-1.5-.2-4.7-2-5.5a12.76,12.76,0,0,0-6.7-.4C1016.6-89.7,1016.1-90.2,1015.1-88Z" transform="translate(0.04 120)"/><path class="cls-6" d="M1034.3-73.5s-.6-.6-.9.5-.1,3.1-.6,4.6a5.07,5.07,0,0,1-.9,1.6h0v.1c-.4.6-.8.8-.6.4.3-.7-1.7-1.3-2.5-.7s-.4-2.1-.9-3.3a6,6,0,0,1-.6-1.9c-.3.9-1.3,3.2-1.3,3.2-2.2,1.5-9.7.2-9.6-.3l-.1-.1v-.2c0,.1-.1.1-.1.2-.5-.5-.1-1.2-.5-1.7a2.18,2.18,0,0,0-.5-.8c.3-7.3-.6-6.3-.4-9.6-1-.1-.3,1-1.4.4a1.75,1.75,0,0,0,.4,1.2c1.7,1.7-1.9,4.1-.9,5.8-.5.5,1.7,2.7,2.2,3.1,0,1.1-.8,1.9-.8,3,.3,0,1.3.8,1.5.5-.3.5,0,3,.3,4.2,0,.5-.1,1.2-.5,1.1a3.29,3.29,0,0,1-1.3-.7s-.3,1.1.3,1.2,1,.3.5.6-2.2-.5-2.2-.5a.76.76,0,0,0-.4.2c-.2.2.8.8.8.8l.2.6s1.1-.1,1.5.3.7,1.1,1.3,1.2,7.8,0,9.5-.8,2.4-1.9,2.8-2,1.5-.5,1.5-.5c3.4-1.3,1-1.6,2.3-3.4C1033.9-67.1,1034.3-73.5,1034.3-73.5Z" transform="translate(0.04 120)"/><path class="cls-11" d="M1008.7-71.6c-.1.5-1.3-5.4.1-5-.3.6-.1.7.5.3-.6.9.1,3-.6,4.7C1008.7-71,1009-72.2,1008.7-71.6Z" transform="translate(0.04 120)"/><path class="cls-8" d="M1034-33.6c-.3-4.2-.5-5.7-2.1-8-1.3-1.9-3.5-2.7-4.8-4.6-.9.2-1.7-.9-2.8-1.1l-5.3-1c-1.8-.3-3.3,1.4-5.2,2,0,.1-4.7,1.7-5.9,10.2-.7,5,.2,9.9.1,14.9-.1,4.8.3,7.5,3.5,10.6.2.2,1.7,1.3,1.8,1.5.5.2,1.5,0,1.8.6.9,1.7,6,1,7.5.7a4.33,4.33,0,0,1,1.6.1v-.5c1.5.4,4-1.8,5.3-2.6s3.4-3.9,3.9-5.4C1034-17.9,1035.7-33.2,1034-33.6Zm-13.7,17.8c-2.4-.8-3.5-1.6-4.3-2.8-1.4-1.5-.4-5.7-.7-7.7-.5-3-.1-6,0-9,.1-4,1.9-4.4,3.6-5,1.3-.4,3.3-1.1,6,2.1,2.4,2.8,1.7,6.4,1.7,7.8a11.5,11.5,0,0,1-.2,3.2c0,1.2.5,1.5.7,2.9.8,7.2-4.6,9.2-6.8,8.5Z" transform="translate(0.04 120)"/><path class="cls-9" d="M1026.6-42.5s2.2,1,2.4,2.7,1.9,5.6,2.1,6.6-2.4-2.7-2,.9c.1.8,1.7,1.4,2.4,2.7s-.5,1.7-.2,3.1,1.3,5.2-1.9,7.2c0,0-2.1-1.3-2.2-2.7s-.3-4.1-.3-4.1,1.9-6.9-1.2-11.7C1023.6-41.1,1026.6-42.5,1026.6-42.5Z" transform="translate(0.04 120)"/><path class="cls-10" d="M1029.7-38.1c0-1.6,1.5,1.4,1.2-1.1-1.4,0-1.8-3.5-1.6-4.6-1.1-.6-1.4-1.7-2.2-2.6-.2,0-1,.1-1.2-.1-1-1.1-1.4-.9-4.3-1.2.6,1.3.8,2.7-.2,3.8a9.63,9.63,0,0,0,.3,2.2,4.31,4.31,0,0,0,1.3-1.7,13.82,13.82,0,0,0,2.7.8c1.6.9,2.4,3.5,2.8,5.9,2.1.6,2.3-.1,3.2,1C1031.1-37.4,1030.4-36,1029.7-38.1Z" transform="translate(0.04 120)"/><path class="cls-4" d="M1015.6-47.3c-2.5,1.4-5.1,2.2-5.9,5.9a23.07,23.07,0,0,0-1,2.8c-1.9,6.4-.8,21.3-.4,22.8.6,1.8,2.5-4.1,2.5-4.1l-.3-3,.3-2.2s-.6.6-1.6-.5a3,3,0,0,1-.4-2.9c.1,0,.7,1.4,1.8.8-.4.6.5,1.6,1.7,1.4,1.6-2-.7-2.4-1.9-2.2l1-1.4c.6.3,1.2,1,1.7.6-1.6-.9-.7-2.1.3-3.3-1-.5-.5-1.3-.7-1.9-.6.6-1.4-.2-2.1-.1.7-.5,1.1-.4,1-1.4.6.4,1.2.7,1.6-.2-2.6-1.4-1.2-2.9-.6-4a1.66,1.66,0,0,0,2,.1c-.7-.8-1.7-.2-1.4-1s2.6.2,1.5-1c-.8.8-.6-.8-1.3-.2.6.6-.9.1-1.8,0,1.3-2.3,2.7-2.1,3.3-2.4C1015-45.6,1015.7-45.6,1015.6-47.3Zm-2.9,6.3c-.6.1-1.2,1.1-2.5,1.3a11.37,11.37,0,0,1,1.5-1.6C1012.2-41.6,1012.9-41.6,1012.7-41Z" transform="translate(0.04 120)"/><path class="cls-10" d="M1029.6-26.8c.2,1.8-3.6,1.1-.6,3.6-1.8-1.3-2,.1-1.8,2.1-1,2.7-1.3,5.5-3.1,7.4.7,1.4,3.8-2.3,4.6-2.2,1.7-1.3-.5-2.7,1.8-4a1.53,1.53,0,0,0-2,.3c0-.8,1.2-2.4,2.1-1.1,0-1.6-.2-3-1.8-3.7.9-1.3,1.6.1,2.4.1.3-.7-1.8-1.7-.7-3.3-1-.7-1.5-.3-1.6.7-1.4-1.1-.3-2.2,1-3.2a2.6,2.6,0,0,1-1.6-.9c-.4,1.6.2,3.2-1,4.8C1027.9-25.4,1028.8-27.2,1029.6-26.8Z" transform="translate(0.04 120)"/><path class="cls-11" d="M1011-38.8c-.6.8-.5,1.2-.9,1.3.8.3.3,2.1-.8,2.7.4.2.6.7.3,1.8-.4-.1-.7.3-1.1.2.1-1.7.3-2.4.6-4.5.9,1.2.1-.9.7-1.7C1010.2-38.3,1011.1-39.7,1011-38.8Z" transform="translate(0.04 120)"/><path class="cls-9" d="M1008.5-18.4c1.5,2.2,1.7-.7.3-.4,1.1-.7-.7-1.5.4-1.3.6.4.5.7,1.5.5-.6-.3-.9-1-.3-1.1a1,1,0,0,1-.3-1.2,3.23,3.23,0,0,0,.8-2.1c0,2.2.9,2.3,1.3,2.6.6,1.1-1.2,1.3-.5,1.9.3-.6,0,2-.9,1.8.1.9,3.8,3,2.5,5.9-.6.2-1.4-1.5-1.8-.7C1009.2-14.8,1008.6-15.7,1008.5-18.4Z" transform="translate(0.04 120)"/><path class="cls-6" d="M1031.8-41.6a9.48,9.48,0,0,0-2-2c-.1.1-.1.3-.2.4v.1c.2-.2.5-.2.8.1,1.7,1.5,1.2,2.8,2.4,3.2a2.85,2.85,0,0,0-1.3,0c1.5.7-.1,1.1.4,1.5a8,8,0,0,1,1.5-.3A10.81,10.81,0,0,0,1031.8-41.6Z" transform="translate(0.04 120)"/><path class="cls-6" d="M1019.8-16l-.5-.2.5.2Z" transform="translate(0.04 120)"/><path class="cls-6" d="M1034.7-27.3l-.3-5.7c-.1-.3-.3-.6-.4-.6a19.93,19.93,0,0,0-.6-4.9c-.8.8.5,1.1-.3,1.9-.2-.7-1.9-1.4-1.3-.8-.2.6.5,1.3,1,1.7.5,2.6-.4,3.2-.7,4.2.5-.1.8-1.1,1.5-.4-.2.3,0,.5-.1.8-1.3-.8-1.5,1.8-1.5,1.7a1,1,0,0,1,1.3,0c.1,1.4-.7,1.2-1.1,1.1.8.3-.2,1.1.4,1.5.5-.4.7-1.9,1.3-1.4-.3.4.4.6.2,1-1.1-1-1.1.9-.8,1.3a1.92,1.92,0,0,1,1.2-.4A3.55,3.55,0,0,0,1034.7-27.3Z" transform="translate(0.04 120)"/><path class="cls-12" d="M1009.3-30.6c-.4.2-.6.9-1.1.3,0-.7-.3-1.5.2-2,.2.3.2.7.6.6,0-.4.3-1,.6-.6C1010.2-31.3,1009.1-31.3,1009.3-30.6Z" transform="translate(0.04 120)"/><path class="cls-6" d="M1015.1-36.9a10.05,10.05,0,0,0,.4-2.5c-.1-.3.4-.9.3-1.4s-2.1-4.1-2.1-4.8,1.9-1.4,1.9-1.4a10.12,10.12,0,0,1,3-.2c.9.3,5.6-.1,6.5,0,1.2.2,2.4,4.2,2.5,4.7s-2.3.6-.7,4.2c.6,1.4,1.6,2.8.9,4.1a12.49,12.49,0,0,0-.8,4.2c-.2-1.1-.3-2.2-.4-3.2-.1-1.5-.2-4.7-2-5.5a12.76,12.76,0,0,0-6.7-.4C1016.6-38.6,1016.1-39.1,1015.1-36.9Z" transform="translate(0.04 120)"/><path class="cls-6" d="M1034.3-22.5s-.6-.6-.9.5-.1,3.1-.6,4.6a5.07,5.07,0,0,1-.9,1.6h0v.1c-.4.6-.8.8-.6.4.3-.7-1.7-1.3-2.5-.7s-.4-2.1-.9-3.2a6,6,0,0,1-.6-1.9c-.3.9-1.3,3.2-1.3,3.2-2.2,1.5-9.7.2-9.6-.3l-.1-.1v-.2c0,.1-.1.1-.1.2-.5-.5-.1-1.2-.5-1.7a2.18,2.18,0,0,0-.5-.8c.3-7.3-.6-6.3-.4-9.6-1-.1-.3,1-1.4.4a1.75,1.75,0,0,0,.4,1.2c1.7,1.7-1.9,4.1-.9,5.8-.5.5,1.7,2.7,2.2,3.1,0,1-.8,1.9-.8,3,.3,0,1.3.8,1.5.5-.3.5,0,2.9.3,4.2,0,.5-.1,1.2-.5,1.1a3.29,3.29,0,0,1-1.3-.7s-.3,1.1.3,1.2,1,.3.5.6-2.2-.5-2.2-.5a.76.76,0,0,0-.4.2c-.2.2.8.8.8.8l.2.6s1.1-.1,1.5.3.7,1.1,1.3,1.1,7.8,0,9.5-.8,2.4-1.9,2.8-2,1.5-.5,1.5-.5c3.4-1.3,1-1.6,2.3-3.4S1034.3-22.5,1034.3-22.5Z" transform="translate(0.04 120)"/><path class="cls-11" d="M1008.7-20.5c-.1.5-1.3-5.4.1-5-.3.6-.1.7.5.3-.6.9.1,2.9-.6,4.7C1008.7-20,1009-21.1,1008.7-20.5Z" transform="translate(0.04 120)"/><path class="cls-8" d="M1034,17.4c-.3-4.2-.5-5.7-2.1-8-1.3-1.9-3.5-2.7-4.8-4.6-.9.2-1.7-.9-2.8-1.1l-5.3-1c-1.8-.3-3.3,1.4-5.2,2,0,.1-4.7,1.7-5.9,10.2-.7,5,.2,9.9.1,14.9-.1,4.8.3,7.5,3.5,10.6.2.2,1.7,1.3,1.8,1.5.5.2,1.5,0,1.8.6.9,1.7,6,1,7.5.7a2.92,2.92,0,0,1,1.6.1v-.5c1.5.4,4-1.8,5.3-2.6s3.4-3.9,3.9-5.4C1034,33.1,1035.7,17.8,1034,17.4Zm-13.7,17.8c-2.4-.8-3.5-1.6-4.3-2.8-1.4-1.5-.4-5.7-.7-7.7-.5-3-.1-6,0-9,.1-4,1.9-4.4,3.6-5,1.3-.4,3.3-1.1,6,2.1,2.4,2.8,1.7,6.4,1.7,7.8a11.5,11.5,0,0,1-.2,3.2c0,1.2.5,1.5.7,2.9.8,7.3-4.6,9.2-6.8,8.5Z" transform="translate(0.04 120)"/><path class="cls-9" d="M1026.6,8.5s2.2,1,2.4,2.7,1.9,5.6,2.1,6.6-2.4-2.7-2,1c.1.8,1.7,1.4,2.4,2.7s-.5,1.7-.2,3.1,1.3,5.3-1.9,7.2c0,0-2.1-1.3-2.2-2.6s-.2-4.2-.2-4.2,1.9-6.9-1.2-11.7C1023.6,9.9,1026.6,8.5,1026.6,8.5Z" transform="translate(0.04 120)"/><path class="cls-4" d="M1029.7,12.9c0-1.6,1.5,1.4,1.2-1.1-1.4,0-1.8-3.5-1.6-4.6-1.1-.6-1.4-1.7-2.2-2.6-.2,0-1,.1-1.2-.1-1-1.1-1.4-.9-4.3-1.2.6,1.3.8,2.7-.2,3.8a9.63,9.63,0,0,0,.3,2.2,4.31,4.31,0,0,0,1.3-1.7,13.82,13.82,0,0,0,2.7.8c1.6.9,2.4,3.5,2.8,5.9,2.1.6,2.3-.1,3.2,1C1031.1,13.6,1030.4,15,1029.7,12.9Z" transform="translate(0.04 120)"/><path class="cls-10" d="M1015.6,3.7c-2.5,1.4-5.1,2.2-5.9,5.9a23.07,23.07,0,0,0-1,2.8c-1.9,6.4-.8,21.3-.4,22.8.6,1.8,2.5-4.1,2.5-4.1l-.3-3,.3-2.2s-.6.6-1.6-.5a3,3,0,0,1-.4-2.9c.1,0,.7,1.4,1.8.8-.4.6.5,1.6,1.7,1.4,1.6-2-.7-2.4-1.9-2.2l1-1.4c.6.3,1.2,1,1.7.6-1.6-.9-.7-2.1.3-3.3-1-.5-.5-1.3-.7-1.9-.6.6-1.4-.2-2.1-.1.7-.5,1.1-.4,1-1.4.6.4,1.2.7,1.6-.2-2.6-1.4-1.2-2.9-.6-4a1.66,1.66,0,0,0,2,.1c-.7-.8-1.7-.2-1.4-1s2.6.2,1.5-1c-.8.8-.6-.8-1.3-.2.6.6-.9.1-1.8,0,1.3-2.3,2.7-2.1,3.3-2.4C1015,5.4,1015.7,5.4,1015.6,3.7Zm-2.9,6.4c-.6.1-1.2,1.1-2.5,1.3a11.37,11.37,0,0,1,1.5-1.6c.5-.4,1.2-.4,1,.3Z" transform="translate(0.04 120)"/><path class="cls-10" d="M1029.6,24.2c.2,1.8-3.6,1.1-.6,3.6-1.8-1.3-2,.1-1.8,2.1-1,2.7-1.3,5.6-3.1,7.4.7,1.4,3.8-2.3,4.6-2.2,1.7-1.3-.5-2.7,1.8-4a1.53,1.53,0,0,0-2,.3c0-.8,1.2-2.4,2.1-1.1,0-1.6-.2-3-1.8-3.7.9-1.3,1.6.1,2.4.1.3-.6-1.8-1.7-.7-3.3-1-.7-1.5-.3-1.6.7-1.4-1.1-.3-2.2,1-3.2a2.6,2.6,0,0,1-1.6-.9c-.4,1.6.2,3.2-1,4.8C1027.9,25.6,1028.8,23.9,1029.6,24.2Z" transform="translate(0.04 120)"/><path class="cls-11" d="M1011,12.3c-.6.8-.5,1.2-.9,1.3.8.3.3,2-.8,2.7.4.2.6.7.3,1.8-.4-.1-.7.3-1.1.2.1-1.7.3-2.4.6-4.5.9,1.2.1-.9.7-1.7C1010.2,12.7,1011.1,11.3,1011,12.3Z" transform="translate(0.04 120)"/><path class="cls-9" d="M1008.5,32.6c1.5,2.2,1.7-.7.3-.4,1.1-.7-.7-1.5.4-1.3.6.4.5.7,1.5.5-.6-.4-.9-1-.3-1.1a1.09,1.09,0,0,1-.4-1.2,3.23,3.23,0,0,0,.8-2.1c0,2.2.9,2.4,1.3,2.6.6,1.1-1.2,1.3-.5,1.9.3-.6,0,2-.9,1.7.1.9,3.8,3,2.5,5.9-.6.1-1.4-1.5-1.8-.7C1009.2,36.2,1008.6,35.4,1008.5,32.6Z" transform="translate(0.04 120)"/><path class="cls-6" d="M1031.8,9.4a9.48,9.48,0,0,0-2-2c-.1.1-.1.3-.2.4v.1c.2-.2.5-.2.8.1,1.7,1.5,1.2,2.8,2.4,3.2a2.85,2.85,0,0,0-1.3,0c1.5.7-.1,1.1.4,1.5.5-.1,1-.3,1.5-.4A11.81,11.81,0,0,0,1031.8,9.4Z" transform="translate(0.04 120)"/><path class="cls-6" d="M1019.8,35l-.5-.2.5.2Z" transform="translate(0.04 120)"/><path class="cls-6" d="M1034.7,23.7l-.3-5.7c-.1-.3-.3-.6-.4-.6a19.93,19.93,0,0,0-.6-4.9c-.8.8.5,1.1-.3,1.9-.2-.7-1.9-1.4-1.3-.8-.2.6.5,1.3,1,1.7.5,2.6-.4,3.2-.7,4.2.5-.1.8-1.1,1.5-.4-.2.3,0,.5-.1.8-1.3-.8-1.5,1.8-1.5,1.7a1,1,0,0,1,1.3,0c.1,1.4-.7,1.2-1.1,1.1.8.4-.2,1.1.4,1.5.5-.4.7-1.9,1.3-1.4-.3.4.4.6.2,1-1.1-1-1.1.9-.8,1.3a1.92,1.92,0,0,1,1.2-.4A3.55,3.55,0,0,0,1034.7,23.7Z" transform="translate(0.04 120)"/><path class="cls-12" d="M1009.3,20.5c-.4.2-.6.9-1.1.3,0-.7-.3-1.5.2-2,.2.3.2.7.6.6,0-.4.3-1,.6-.6C1010.2,19.7,1009.1,19.8,1009.3,20.5Z" transform="translate(0.04 120)"/><path class="cls-6" d="M1015.1,14.1a10.05,10.05,0,0,0,.4-2.5c-.1-.3.4-.9.3-1.4s-2.1-4.1-2.1-4.7,1.9-1.4,1.9-1.4a10.12,10.12,0,0,1,3-.2c.9.3,5.6-.1,6.5,0,1.2.2,2.4,4.2,2.5,4.7s-2.3.6-.7,4.2c.6,1.4,1.6,2.8.9,4.1a12.49,12.49,0,0,0-.8,4.2c-.2-1.1-.3-2.2-.4-3.2-.1-1.5-.2-4.7-2-5.5a12.76,12.76,0,0,0-6.7-.4C1016.6,12.4,1016.1,11.9,1015.1,14.1Z" transform="translate(0.04 120)"/><path class="cls-6" d="M1034.3,28.6s-.6-.6-.9.5-.1,3.1-.6,4.6a5.07,5.07,0,0,1-.9,1.6h0v.1c-.4.6-.8.8-.6.4.3-.7-1.7-1.3-2.5-.7s-.4-2.1-.9-3.2a6,6,0,0,1-.6-1.9c-.3.9-1.3,3.2-1.3,3.2-2.2,1.5-9.7.2-9.6-.3l-.1-.1v-.2c0,.1-.1.1-.1.2-.5-.5-.1-1.2-.5-1.7a2.18,2.18,0,0,0-.5-.8c.3-7.3-.6-6.3-.4-9.6-1-.1-.3,1-1.4.4a1.75,1.75,0,0,0,.4,1.2c1.7,1.7-1.9,4.1-.9,5.8-.5.5,1.7,2.7,2.2,3.1,0,1-.8,1.9-.8,3,.3,0,1.3.8,1.5.5-.3.5,0,2.9.3,4.2,0,.5-.1,1.2-.5,1.1a3.29,3.29,0,0,1-1.3-.7s-.3,1.1.3,1.2,1,.3.5.6-2.2-.5-2.2-.5a.76.76,0,0,0-.4.2c-.2.2.8.8.8.8l.2.6s1.1-.1,1.5.4.7,1.1,1.3,1.1,7.8.1,9.5-.8a33.59,33.59,0,0,0,2.8-2c.4-.1,1.5-.5,1.5-.5,3.4-1.3,1-1.6,2.3-3.4S1034.3,28.6,1034.3,28.6Z" transform="translate(0.04 120)"/><path class="cls-11" d="M1008.7,30.5c-.1.5-1.3-5.4.1-5-.3.6-.1.7.5.3-.6.9.1,2.9-.6,4.7C1008.7,31,1009,29.9,1008.7,30.5Z" transform="translate(0.04 120)"/><path class="cls-8" d="M1033.8,69.1c-.4-4.2-.7-5.7-2.4-7.9-1.3-1.9-3.6-2.6-4.9-4.4-.9.3-1.7-.9-2.8-1-1.6-.2-3.7-.6-5.4-.8s-3.3,1.5-5.1,2.2c0,.1-4.7,1.8-5.5,10.4-.5,5,.6,9.9.7,14.9.1,4.8.6,7.5,3.9,10.5.2.2,1.7,1.2,1.9,1.5.5.2,1.5-.1,1.9.5,1,1.6,6,.8,7.6.4a4.3,4.3,0,0,1,1.6,0v-.5c1.5.3,3.9-1.9,5.2-2.7s3.3-4,3.7-5.5C1034.4,84.8,1035.6,69.4,1033.8,69.1Zm-13.1,18.3a7.88,7.88,0,0,1-4.4-2.6c-1.5-1.5-.6-5.7-1-7.6-.6-2.9-.3-6-.4-9,0-4.1,1.8-4.5,3.4-5.1,1.3-.4,3.3-1.2,6.1,1.9,2.5,2.8,1.9,6.4,2,7.8a17.1,17.1,0,0,1,0,3.2c0,1.2.6,1.4.8,2.8,1.1,7-4.1,9.2-6.5,8.6Z" transform="translate(0.04 120)"/><path class="cls-9" d="M1026.2,60.5s2.3,1,2.5,2.6,2.1,5.6,2.3,6.6-2.5-2.6-2,1c.1.8,1.8,1.3,2.5,2.6.9,1.4-.5,1.8-.1,3.1s1.4,5.2-1.6,7.2c0,0-2.1-1.2-2.3-2.6s-.4-4.1-.4-4.1,1.6-7-1.7-11.6C1023.2,62,1026.2,60.5,1026.2,60.5Z" transform="translate(0.04 120)"/><path class="cls-10" d="M1029.4,64.8c0-1.6,1.6,1.3,1.1-1.2-1.5,0-1.9-3.5-1.8-4.5-1.1-.5-1.5-1.6-2.2-2.5a4.82,4.82,0,0,1-1.2,0c-1-1.1-1.4-.8-4.3-1a3.31,3.31,0,0,1,0,3.8c0,1.6.3,1.1.4,2.2a4.63,4.63,0,0,0,1.3-1.8,12.76,12.76,0,0,0,2.8.7c1.7.8,2.5,3.4,3.1,5.8,2.1.5,2.3-.2,3.2.8C1030.8,65.4,1030.2,66.8,1029.4,64.8Z" transform="translate(0.04 120)"/><path class="cls-4" d="M1015,56.1c-2.5,1.5-5,2.4-5.7,6.1-.3.9-.6,1.9-.8,2.8-1.7,6.5-.1,21.3.5,22.8.6,1.8,2.4-4.2,2.4-4.2l-.4-3,.3-2.2s-.6.6-1.6-.4a3.08,3.08,0,0,1-.5-2.9c.1,0,.7,1.4,1.8.7-.3.6.6,1.6,1.7,1.4,1.5-2-.8-2.4-2-2.1l1-1.4c.6.3,1.3,1,1.7.5-1.6-.8-.8-2,.2-3.3-1-.5-.5-1.3-.8-1.9-.6.6-1.4-.2-2.1,0,.6-.5,1.1-.4,1-1.4.6.4,1.2.6,1.6-.3-2.6-1.3-1.3-2.9-.7-4a2,2,0,0,0,2.1,0c-.7-.7-1.7-.1-1.4-1s2.6.1,1.4-1.1c-.7.8-.6-.8-1.3-.2.6.6-.9.1-1.8,0a4.26,4.26,0,0,1,3.2-2.5C1014.5,57.8,1015.1,57.8,1015,56.1Zm-2.7,6.4c-.6.1-1.2,1.1-2.4,1.4a21,21,0,0,1,1.4-1.7c.5-.3,1.2-.3,1,.3Z" transform="translate(0.04 120)"/><path class="cls-10" d="M1029.7,76c.3,1.8-3.6,1.2-.4,3.6-1.9-1.2-2,.2-1.7,2.2-.9,2.7-1.1,5.6-2.9,7.5.8,1.4,3.7-2.4,4.5-2.4,1.7-1.3-.6-2.7,1.6-4a1.55,1.55,0,0,0-2,.4c0-.8,1.2-2.4,2-1.2,0-1.6-.3-3-2-3.6.8-1.4,1.6.1,2.4,0,.3-.7-1.8-1.6-.8-3.2-1.1-.6-1.5-.2-1.6.8-1.4-1.1-.4-2.2.8-3.2a3,3,0,0,1-1.6-.8c-.3,1.6.3,3.2-.8,4.8C1028.1,77.5,1028.9,75.7,1029.7,76Z" transform="translate(0.04 120)"/><path class="cls-11" d="M1010.7,64.8c-.5.8-.4,1.2-.8,1.3.8.2.4,2-.7,2.7.4.2.6.7.3,1.8-.4-.1-.7.3-1.1.2.1-1.7.2-2.4.4-4.5.9,1.2.1-.9.7-1.7C1010,65.3,1010.7,63.8,1010.7,64.8Z" transform="translate(0.04 120)"/><path class="cls-9" d="M1008.9,85.2c1.6,2.1,1.7-.7.3-.4,1.1-.7-.7-1.5.3-1.3.6.4.5.7,1.5.4-.6-.3-.9-.9-.3-1.1a.84.84,0,0,1-.4-1.1,4,4,0,0,0,.7-2.1c.1,2.2,1,2.3,1.4,2.6.6,1.1-1.1,1.3-.4,1.9.3-.6,0,2-.8,1.8.2.9,3.9,2.9,2.7,5.8-.6.2-1.4-1.4-1.8-.6C1009.7,88.8,1009.2,87.9,1008.9,85.2Z" transform="translate(0.04 120)"/><path class="cls-6" d="M1031.4,61.1a7.56,7.56,0,0,0-2.1-1.9c-.1.1-.1.3-.2.4v.1c.2-.2.5-.2.8.1,1.7,1.4,1.3,2.8,2.5,3.1a2,2,0,0,0-1.3.1c1.5.6-.1,1.1.4,1.5.5-.1,1-.3,1.5-.4A11,11,0,0,0,1031.4,61.1Z" transform="translate(0.04 120)"/><path class="cls-6" d="M1020.3,87.2l-.5-.2.5.2Z" transform="translate(0.04 120)"/><path class="cls-6" d="M1034.8,75.4c-.2-1.9-.3-3.8-.5-5.7a1,1,0,0,0-.5-.6,26.38,26.38,0,0,0-.8-4.9c-.7.8.6,1.1-.3,2-.2-.7-1.9-1.4-1.3-.7-.2.6.5,1.3,1,1.7.6,2.6-.3,3.3-.5,4.2.5-.1.8-1.1,1.5-.4-.2.3,0,.5,0,.8-1.3-.8-1.5,1.8-1.4,1.8a.94.94,0,0,1,1.3-.1c.2,1.4-.6,1.2-1.1,1.1.8.3-.2,1.1.4,1.5.4-.4.6-1.9,1.2-1.4-.2.4.4.6.3,1-1.1-.9-1,1-.7,1.3a3.08,3.08,0,0,1,1.2-.5A2.56,2.56,0,0,0,1034.8,75.4Z" transform="translate(0.04 120)"/><path class="cls-12" d="M1009.3,73c-.4.2-.6.9-1,.4,0-.7-.3-1.5.1-2,.2.3.3.7.6.6,0-.4.3-1,.6-.6C1010.1,72.3,1009.1,72.4,1009.3,73Z" transform="translate(0.04 120)"/><path class="cls-6" d="M1014.8,66.5a10.68,10.68,0,0,0,.3-2.5c-.1-.3.4-.9.2-1.4s-2.3-4.1-2.3-4.7,1.8-1.5,1.8-1.5a7.69,7.69,0,0,1,3-.3c.9.2,5.6-.3,6.5-.2,1.2.1,2.5,4.1,2.7,4.6s-2.2.6-.6,4.2c.6,1.4,1.7,2.7,1,4.1a15.39,15.39,0,0,0-.7,4.2c-.2-1.1-.4-2.1-.5-3.2-.2-1.5-.3-4.7-2.2-5.4a11.76,11.76,0,0,0-6.7-.1C1016.3,64.7,1015.8,64.2,1014.8,66.5Z" transform="translate(0.04 120)"/><path class="cls-6" d="M1034.5,80.2s-.6-.6-.9.5,0,3.1-.4,4.6a13,13,0,0,1-.8,1.7h0v.1c-.4.6-.7.8-.6.4.2-.8-1.8-1.2-2.5-.6s-.5-2.1-1-3.2a10.66,10.66,0,0,1-.7-1.9,33.08,33.08,0,0,1-1.2,3.3c-2.2,1.5-9.7.6-9.6,0l-.1-.1v-.2l-.1.2c-.5-.5-.1-1.2-.6-1.7a2.18,2.18,0,0,0-.5-.8c0-7.3-.9-6.3-.8-9.6-1-.1-.3,1-1.4.4a1.85,1.85,0,0,0,.5,1.2c1.7,1.7-1.7,4.2-.7,5.8-.4.5,1.8,2.6,2.3,3.1,0,1.1-.7,1.9-.7,3,.3,0,1.3.8,1.5.5-.3.5.1,3,.5,4.2,0,.5-.1,1.2-.4,1.1a2.39,2.39,0,0,1-1.3-.7s-.3,1.1.3,1.2,1,.2.6.6-2.2-.5-2.2-.5a.76.76,0,0,0-.4.2c-.2.2.9.7.9.7l.2.6s1.1-.1,1.5.3.8,1,1.4,1.1,7.8-.2,9.4-1.1,2.3-2,2.8-2.1a8.88,8.88,0,0,0,1.5-.6c3.3-1.4,1-1.6,2.2-3.5S1034.5,80.2,1034.5,80.2Z" transform="translate(0.04 120)"/><path class="cls-11" d="M1009.1,83c0,.5-1.5-5.3-.1-5-.3.6-.1.7.5.3-.5.9.2,3-.4,4.7C1009,83.6,1009.3,82.5,1009.1,83Z" transform="translate(0.04 120)"/><path class="cls-8" d="M1038.2,116.5c-1.2-4-1.8-5.4-3.9-7.3-1.7-1.6-4-1.8-5.7-3.4-.8.4-1.8-.5-3-.4-1.6.1-3.8.2-5.4.3-1.8.1-2.9,2.1-4.6,3.2,0,.1-4.2,2.7-3.4,11.3.5,5,2.5,9.6,3.6,14.4,1,4.6,2,7.2,5.9,9.5a13.9,13.9,0,0,1,2.1,1.1c.5.1,1.5-.3,1.9.1a2.51,2.51,0,0,0,1.9.5,6.61,6.61,0,0,1,0-2.8,11.63,11.63,0,0,0,.4-1.8,4.13,4.13,0,0,0-.7-1.5c-.3-.5-1.3-1.5-.1-.6a3.69,3.69,0,0,1-1.7-2.9,6.71,6.71,0,0,1-1.4-.9c-1.7-1.1-1.7-5.5-2.5-7.3-1.2-2.8-1.5-5.8-2.1-8.8-.8-4,.9-4.8,2.4-5.7,1.2-.7,3-1.8,6.3.6,3,2.2,3.1,5.9,3.4,7.2a17,17,0,0,1,.6,3.1c.3,1.2.8,1.3,1.3,2.6,1.3,3.6.6,6.2-.7,7.8h0a26.94,26.94,0,0,1,1.6,2.9,8.87,8.87,0,0,1,.7,2.8,3.31,3.31,0,0,1,1.9,1.4c.8-.8,1.6-1.8,2.1-2.3,1.2-1.1,2.4-4.6,2.5-6.1C1041.9,131.8,1040,116.5,1038.2,116.5Z" transform="translate(0.04 120)"/><path class="cls-9" d="M1029,109.6s2.4.5,3,2,3.1,5,3.6,6-3-2-1.7,1.4c.3.7,2,1,3,2s-.1,1.8.5,3.1,2.4,4.8-.2,7.4c0,0-2.3-.8-2.7-2.1l-1.2-3.9s.2-7.2-3.9-11.1C1026.4,111.6,1029,109.6,1029,109.6Z" transform="translate(0.04 120)"/><path class="cls-10" d="M1033,113.1c-.3-1.6,1.8,1,.9-1.4-1.4.3-2.6-3-2.6-4.1-1.2-.3-1.8-1.3-2.7-2a2.54,2.54,0,0,1-1.2.2c-1.2-.9-1.6-.5-4.5-.2.9,1.2,1.4,2.4.7,3.7.3,1.6.5,1.1.9,2.1a4,4,0,0,0,.9-2,13.13,13.13,0,0,0,2.8.1c1.8.5,3.2,2.9,4.1,5.1,2.1.1,2.2-.6,3.3.2C1034.6,113.5,1034.2,115,1033,113.1Z" transform="translate(0.04 120)"/><path class="cls-10" d="M1017.2,107.5c-2.1,2-4.4,3.3-4.4,7.1a15,15,0,0,0-.3,2.9c-.4,6.7,4.1,20.9,4.9,22.2,1,1.6,1.5-4.5,1.5-4.5l-1-2.9-.2-2.2s-.5.7-1.7-.1-1.1-2.7-1.1-2.7,1,1.2,2,.4c-.2.7.9,1.4,2,1,1.1-2.3-1.3-2.1-2.4-1.6l.7-1.6c.7.2,1.5.7,1.8.1-1.7-.5-1.2-1.8-.4-3.3-1.1-.3-.7-1.2-1.1-1.7-.5.7-1.4.1-2,.4.5-.7,1-.6.7-1.6.7.2,1.3.4,1.5-.6-2.8-.8-1.8-2.6-1.5-3.8a1.68,1.68,0,0,0,2-.4c-.8-.6-1.7.2-1.6-.7s2.6-.4,1.2-1.3c-.5.9-.7-.7-1.3.1.7.4-.9.3-1.8.4.8-2.6,2.1-2.6,2.7-3.1C1017,109.2,1017.7,109.1,1017.2,107.5Zm-1.4,6.8c-.5.2-1,1.4-2.1,1.8a11.4,11.4,0,0,1,1-1.9C1015.2,113.8,1015.9,113.6,1015.8,114.3Z" transform="translate(0.04 120)"/><path class="cls-10" d="M1037.6,126.2c.2-.7-2.1-1.3-1.4-3-1.2-.4-1.5.1-1.4,1.1-1.6-.8-.8-2,.2-3.3a2.62,2.62,0,0,1-1.7-.5c0,1.6,1,3.1.1,4.9.9.5,1.4-1.4,2.2-1.3.6,1.8-3.3,1.9.3,3.6-2.1-.8-1.9.6-1.2,2.4-.3,2.3-.1,4.6-.7,6.5l.6,1.2c1-.9,2.2-3,2.8-3,1.4-1.6-1.1-2.5.8-4.3a1.56,1.56,0,0,0-1.9.8c-.1-.8.6-2.6,1.8-1.6-.3-1.6-.9-2.9-2.7-3.2C1035.8,125.2,1036.8,126.4,1037.6,126.2Z" transform="translate(0.04 120)"/><path class="cls-11" d="M1014.7,116.8c-.4.9-.2,1.3-.6,1.5.8.1.8,1.9-.2,2.8.4.1.7.6.7,1.7-.5,0-.6.4-1,.5-.3-1.7-.3-2.4-.5-4.5,1.1,1-.1-.9.3-1.8C1014.1,117.5,1014.5,115.9,1014.7,116.8Z" transform="translate(0.04 120)"/><path class="cls-9" d="M1016.9,137.2c2,1.8,1.5-1,.2-.5,1-.9-1-1.3.1-1.3.7.3.7.6,1.5.1-.7-.2-1.1-.7-.6-1a1,1,0,0,1-.6-1,4.22,4.22,0,0,0,.3-2.2c.5,2.1,1.5,2.1,1.8,2.3.8.9-.9,1.5-.1,1.9.2-.7.4,1.9-.5,1.9.3.8,4.4,2.1,3.8,5.2-.5.3-1.7-1.1-1.9-.2C1018.5,140.5,1017.8,139.9,1016.9,137.2Z" transform="translate(0.04 120)"/><path class="cls-6" d="M1034.3,109.2a9.74,9.74,0,0,0-2.4-1.5l-.1.5v.1c.2-.3.4-.3.8-.1,2,1,1.8,2.4,3.1,2.6a2,2,0,0,0-1.3.4c1.6.3.1,1.1.7,1.4.5-.2.9-.5,1.4-.7A11.33,11.33,0,0,0,1034.3,109.2Z" transform="translate(0.04 120)"/><path class="cls-6" d="M1040.4,122.5c-.6-1.8-1.1-3.7-1.6-5.5-.2-.3-.4-.5-.6-.5a18.34,18.34,0,0,0-1.8-4.6c-.6,1,.8,1,.1,2-.3-.6-2.2-1-1.4-.5-.1.7.8,1.2,1.4,1.4,1.1,2.4.3,3.3.3,4.2.5-.2.5-1.3,1.4-.7-.1.4.2.5.1.8-1.4-.5-1.1,2.1-1.1,2a1.09,1.09,0,0,1,1.3-.4c.4,1.3-.4,1.3-.8,1.3.9.2.1,1.1.7,1.4.4-.4.2-2,.9-1.6-.2.5.5.5.5.9-1.3-.7-.8,1.2-.5,1.4a2.59,2.59,0,0,1,1.1-.7Z" transform="translate(0.04 120)"/><path class="cls-12" d="M1015,125.2c-.3.3-.4,1-1,.6-.2-.7-.6-1.4-.3-2,.2.2.4.6.7.4-.1-.4.1-1.1.5-.7C1015.6,124.3,1014.6,124.6,1015,125.2Z" transform="translate(0.04 120)"/><path class="cls-6" d="M1019.1,117.7a10.55,10.55,0,0,0-.2-2.5c-.2-.2.2-.9,0-1.4s-3-3.5-3.1-4.1,1.5-1.8,1.5-1.8a7.64,7.64,0,0,1,2.8-.9c.9.1,5.4-1.4,6.3-1.5,1.2-.1,3.3,3.5,3.5,3.9s-2.1,1.1.3,4.3c.9,1.2,2.2,2.3,1.8,3.8a15.53,15.53,0,0,0,.2,4.3c-.4-1-.8-2-1.2-3.1-.4-1.4-1.2-4.6-3.2-4.9a12.38,12.38,0,0,0-6.6,1.2C1020.2,115.7,1019.6,115.3,1019.1,117.7Z" transform="translate(0.04 120)"/><path class="cls-6" d="M1041.1,127.3s-.7-.5-.7.7.7,3,.5,4.6a6.07,6.07,0,0,1-.5,1.8h0v.1c-.3.6-.6,1-.5.5.1-.8-2-.9-2.6-.1s-.9-2-1.7-2.9a9.5,9.5,0,0,1-1-1.7c-.1.9-.6,3.4-.6,3.4a3.6,3.6,0,0,1-1.2.8v.6a26.94,26.94,0,0,1,1.6,2.9,8.87,8.87,0,0,1,.7,2.8,3.38,3.38,0,0,1,1.8,1.3,11.51,11.51,0,0,1,1.4-1.7,12.61,12.61,0,0,0,1.3-.9c3-2,.6-1.8,1.5-3.9S1041.1,127.3,1041.1,127.3Z" transform="translate(0.04 120)"/><path class="cls-6" d="M1027.7,143a11.63,11.63,0,0,0,.4-1.8,4.13,4.13,0,0,0-.7-1.5c-.3-.5-1.3-1.5-.1-.6a4,4,0,0,1-1.7-3,1.38,1.38,0,0,1-.3-.4c-.4,0-.6-.1-.6-.2l-.1-.1c0-.1-.1-.1-.1-.2v.2c-.6-.4-.3-1.2-.9-1.6a2.34,2.34,0,0,0-.7-.7c-1.4-7.2-2.1-6-2.7-9.3-1,.1-.1,1.1-1.3.7a1.9,1.9,0,0,0,.7,1.1c2,1.3-.9,4.5.4,5.8-.3.6,2.3,2.2,2.8,2.6.2,1-.3,2-.1,3.1.3,0,1.4.5,1.6.2-.2.6.7,2.9,1.3,4,.1.5.2,1.1-.2,1.2a3.26,3.26,0,0,1-1.4-.4s-.1,1.2.6,1.1,1.1,0,.7.5-2.2,0-2.2,0-.2.1-.3.3,1,.5,1,.5l.3.6s1.1-.4,1.5,0a2.09,2.09,0,0,0,1.6.8.9.9,0,0,0,.5-.1A6.61,6.61,0,0,1,1027.7,143Z" transform="translate(0.04 120)"/><path class="cls-11" d="M1016.7,135.1c.1.5-2.5-4.9-1.1-4.9-.1.7.1.7.6.2-.3,1,.8,2.9.5,4.7C1016.8,135.6,1016.8,134.5,1016.7,135.1Z" transform="translate(0.04 120)"/><path class="cls-8" d="M1014.2-110.1s-.9,4.4.1,13c.3.1.8-.3,1.2-.3a7.72,7.72,0,0,0,1.5-.2s.4,3.2.4,1.7-.2-12.7-.2-12.7S1015.9-108.3,1014.2-110.1Z" transform="translate(0.04 120)"/><path class="cls-9" d="M1026.9-112a30.5,30.5,0,0,0-.4-8H1016c0,.2-.1.4-.1.6a1.51,1.51,0,0,1,1.1,1.6c-.2,4.1,0,6-.1,6.6-.2,2,.3,4.4.1,10.3.1,2.6.3,8.3-1.3,7.5.9,3.5-.7,5.2.4,8a6.67,6.67,0,0,0,4.1,2.8,5.44,5.44,0,0,0,5.6-3c.3.1.5-1.7.7-1.6v-.7a4.53,4.53,0,0,1,.3-1.6c.6-3.2,0-5.8.4-7.1-.4-2,0-5.2,0-8.9C1027.1-108.4,1026.8-110.7,1026.9-112Z" transform="translate(0.04 120)"/><path class="cls-10" d="M1023-98.2c-.2-1.7-.4-3.3-.5-5-3.3-.5-2.1-2.8-2.8-3.6.5-.5,1.1,0,2,.5a11.27,11.27,0,0,1,.5-3.2c-.6-.5-.8-2.2-.8-2.1.3-.8-1.5-3.9,1.3-2.4a30.45,30.45,0,0,0-2.1-6h-1.8c-1.1,1.8-.8,6.1-.8,7.3-.1,3.1.1,6.5.3,9.9.1,1.2,1.2,2.9,0,2.9-.1,2.1-.5,2.6,1,2.6-.6,3.4.5,4.6,2.8,3.2C1024-95,1022.6-98.6,1023-98.2Z" transform="translate(0.04 120)"/><path class="cls-6" d="M1015.5-109.2v5.4c0,1.5.7-1,.7-1s.5,4.1.5,6c0,1.1-1.3.4-1.2,1.2.3,2.7,1.9,2.7,1.9,1.6,0-2-.1-13.6-.1-13.6Z" transform="translate(0.04 120)"/><path class="cls-8" d="M1024.6-109.2c-.8,4.1.3,7,0,13.4-1,2-.7,3.7-.5,6-1.2-1.8-1.2,1.3,0,1.3v-.7c.6.1.3.7,0,1.3-1,0-.6-1.8-2-1.3.3-.6,1.1-2.5-.5-2,.3-.6.6-1.2,0-1.3.2-1,.4.1,1,0,.7-2.5-1.3-1.3-1-3.4.7.8.8.3,1.5,0,0-1.3-1.6-.5-1.5-2-.1-2.1,1.7-3,.5-4.7h.5c0-2.5.5-1.9,0-4v-1.3c1.5.3.4-3.1,1.5-3.4C1024.7-111.1,1024.6-110.2,1024.6-109.2Z" transform="translate(0.04 120)"/><path class="cls-8" d="M1017.8-120h-.9c-.3,1.8-.4,4.1.5,5.6C1018.4-115.2,1017.8-119.5,1017.8-120Z" transform="translate(0.04 120)"/><path class="cls-8" d="M1021.8-120c.3,1.7.6,3.5.6,3.5l.3,4.1s1.6,1.8,1.9-1.3a50.49,50.49,0,0,0-.6-6.3Z" transform="translate(0.04 120)"/><path class="cls-6" d="M1017.2-94.5s-.4,3.7.4,5.4a2.62,2.62,0,0,0,3.3,1.7h.1a1.38,1.38,0,0,0,1.2-1.6v-.1l2,2.2c.5-1.1.9-2.2,1.3-3.3.4-1.3.9,6.1-3,6.5a11.5,11.5,0,0,1-3.2-.2s-3.2-1.9-3-5.2A20.35,20.35,0,0,1,1017.2-94.5Z" transform="translate(0.04 120)"/><path class="cls-12" d="M1018.7-116.2s.4-3.5.7-3,1.2,1.5.2,2.3,0,2.7-.2,3.7S1018.5-111.7,1018.7-116.2Z" transform="translate(0.04 120)"/><path class="cls-10" d="M1025.2-120a5.12,5.12,0,0,1,.8,3.2c-.3,2.2.2,7.7,0,9.5a50.55,50.55,0,0,0,.2,5.5c0,1.9.3,1,.4-1s.2-5.1.3-7.6a59.87,59.87,0,0,0-.7-9.5h-1Z" transform="translate(0.04 120)"/><path class="cls-8" d="M1014.2-59.1s-.9,4.4.1,13c.3.1.8-.3,1.2-.3a7.72,7.72,0,0,0,1.5-.2s.4,3.2.4,1.7-.2-12.7-.2-12.7S1015.9-57.2,1014.2-59.1Z" transform="translate(0.04 120)"/><path class="cls-9" d="M1027.1-54.4c0-2.9-.3-5.2-.2-6.5a27.64,27.64,0,0,0-.8-9.5c-.6-1.2-.4-2.8-1.9-3-6.5-2.9-7.8,1.7-8.4,5.1a1.47,1.47,0,0,1,1.1,1.7c-.2,4.1,0,6-.1,6.6-.2,2,.3,4.4.1,10.3.1,2.6.3,8.3-1.3,7.5.9,3.5-.7,5.2.4,8a6.67,6.67,0,0,0,4.1,2.8,5.44,5.44,0,0,0,5.6-3c.3.1.5-1.7.7-1.6v-.7a4.53,4.53,0,0,1,.3-1.6c.6-3.2,0-5.8.4-7.1C1026.7-47.5,1027.1-50.7,1027.1-54.4Z" transform="translate(0.04 120)"/><path class="cls-10" d="M1022.8-63c-.3-1.2-1.8-7.1-3-6.7-2.1.7-1.6,6.5-1.6,8.1-.1,3.1.1,6.5.3,9.9.1,1.2,1.2,2.9,0,2.9-.1,2.1-.5,2.6,1,2.6-.6,3.4.5,4.6,2.8,3.2,1.7-1,.4-4.6.7-4.2-.2-1.7-.4-3.3-.5-5-3.3-.5-2.1-2.8-2.8-3.6.5-.5,1.1,0,2,.5a11.27,11.27,0,0,1,.5-3.2c-.6-.5-.8-2.2-.8-2.1C1021.7-61.4,1020-64.5,1022.8-63Z" transform="translate(0.04 120)"/><path class="cls-6" d="M1015.5-58.2v5.4c0,1.5.7-1,.7-1s.5,4.1.5,6c0,1.1-1.3.4-1.2,1.2.3,2.7,1.9,2.7,1.9,1.6,0-2-.1-13.6-.1-13.6Z" transform="translate(0.04 120)"/><path class="cls-8" d="M1024.6-58.2c-.8,4.1.3,6.9,0,13.4-1,2-.7,3.7-.5,6-1.2-1.8-1.2,1.3,0,1.3v-.7c.6.1.3.7,0,1.3-1,0-.6-1.8-2-1.3.3-.6,1.1-2.5-.5-2,.3-.6.6-1.2,0-1.3.2-1,.4.1,1,0,.7-2.5-1.3-1.3-1-3.4.7.8.8.3,1.5,0,0-1.3-1.6-.5-1.5-2-.1-2.1,1.7-3,.5-4.7h.5c0-2.5.5-1.9,0-4v-1.3c1.5.3.4-3.1,1.5-3.4C1024.7-60.1,1024.6-59.2,1024.6-58.2Z" transform="translate(0.04 120)"/><path class="cls-8" d="M1023.8-70.7c0-2.5-5.1-5.8-6.5-.8.2.1-1.5,5.3.1,8.1,1-.8.4-5.1.5-5.6.3-2.7,1.8-2.8,1.9-2.8s1.1-.4,1.5,1a31.78,31.78,0,0,1,1,5.2l.3,4.1s1.6,1.8,1.9-1.3C1024.7-63.7,1023.8-69.9,1023.8-70.7Z" transform="translate(0.04 120)"/><path class="cls-6" d="M1017.2-43.5s-.4,3.7.4,5.4a2.62,2.62,0,0,0,3.3,1.7h.1a1.38,1.38,0,0,0,1.2-1.6v-.1l2,2.2c.5-1.1.9-2.2,1.3-3.3.4-1.3.9,6.2-3,6.5a11.5,11.5,0,0,1-3.2-.2s-3.2-1.9-3-5.2A20.35,20.35,0,0,1,1017.2-43.5Z" transform="translate(0.04 120)"/><path class="cls-12" d="M1018.7-65.2s.4-3.5.7-3,1.2,1.5.2,2.3,0,2.7-.2,3.7S1018.5-60.7,1018.7-65.2Z" transform="translate(0.04 120)"/><path class="cls-10" d="M1023.1-73.9s1.2,1.1,1,1.8a2.78,2.78,0,0,0,.4,2.2,5.26,5.26,0,0,1,1.5,4.1c-.3,2.2.2,7.7,0,9.5a50.55,50.55,0,0,0,.2,5.5c0,2,.3,1,.4-1s.2-5.1.3-7.6-.3-9-1.2-11.4S1025.2-73.3,1023.1-73.9Z" transform="translate(0.04 120)"/><path class="cls-8" d="M1014.2-8.1s-.9,4.4.1,13c.3.1.8-.3,1.2-.3a7.72,7.72,0,0,0,1.5-.2s.4,3.2.4,1.7-.2-12.7-.2-12.7S1015.9-6.2,1014.2-8.1Z" transform="translate(0.04 120)"/><path class="cls-9" d="M1027.1-3.4c0-2.9-.3-5.2-.2-6.5a27.64,27.64,0,0,0-.8-9.5c-.6-1.2-.4-2.8-1.9-3-6.5-2.9-7.8,1.7-8.4,5.1a1.47,1.47,0,0,1,1.1,1.7c-.2,4.1,0,6-.1,6.6-.2,2,.3,4.4.1,10.3.1,2.6.3,8.3-1.3,7.5.9,3.5-.7,5.2.4,8a6.67,6.67,0,0,0,4.1,2.8,5.44,5.44,0,0,0,5.6-3c.3.1.5-1.7.7-1.6v-.7a4.53,4.53,0,0,1,.3-1.6c.6-3.2,0-5.7.4-7.1C1026.7,3.5,1027.1.3,1027.1-3.4Z" transform="translate(0.04 120)"/><path class="cls-10" d="M1022.8-12c-.3-1.2-1.8-7.1-3-6.7-2.1.7-1.6,6.5-1.6,8.1-.1,3.1.1,6.5.3,9.9.1,1.2,1.2,2.9,0,2.9-.1,2.1-.5,2.6,1,2.6-.6,3.4.5,4.6,2.8,3.2,1.7-1,.4-4.6.7-4.2-.2-1.7-.4-3.3-.5-5-3.3-.5-2.1-2.8-2.8-3.6.5-.5,1.1,0,2,.5a11.27,11.27,0,0,1,.5-3.2c-.6-.5-.8-2.2-.8-2.1C1021.7-10.3,1020-13.5,1022.8-12Z" transform="translate(0.04 120)"/><path class="cls-6" d="M1015.5-7.1v5.4c0,1.5.7-1,.7-1s.5,4.1.5,6c0,1.1-1.3.4-1.2,1.2.3,2.7,1.9,2.7,1.9,1.6,0-2-.1-13.6-.1-13.6Z" transform="translate(0.04 120)"/><path class="cls-8" d="M1024.6-7.2c-.8,4.1.3,6.9,0,13.4-1,2-.7,3.7-.5,6-1.2-1.8-1.2,1.3,0,1.3v-.7c.6.1.3.8,0,1.3-1,0-.6-1.8-2-1.3.3-.6,1.1-2.5-.5-2,.3-.6.6-1.2,0-1.3.2-1,.4.1,1,0,.7-2.5-1.3-1.3-1-3.3.7.8.8.3,1.5,0,0-1.3-1.6-.5-1.5-2-.1-2.1,1.7-3,.5-4.7h.5c0-2.5.5-1.9,0-4V-5.8c1.5.3.4-3.1,1.5-3.3C1024.7-9.1,1024.6-8.1,1024.6-7.2Z" transform="translate(0.04 120)"/><path class="cls-8" d="M1023.8-19.6c0-2.5-5.1-5.8-6.5-.8.2.1-1.5,5.3.1,8.2,1-.8.4-5.1.5-5.6.3-2.7,1.8-2.8,1.9-2.8s1.1-.4,1.5,1a31.78,31.78,0,0,1,1,5.2l.3,4.1s1.6,1.8,1.9-1.3C1024.7-12.7,1023.8-18.8,1023.8-19.6Z" transform="translate(0.04 120)"/><path class="cls-6" d="M1017.2,7.6s-.4,3.7.4,5.4a2.62,2.62,0,0,0,3.3,1.7h.1a1.38,1.38,0,0,0,1.2-1.6V13l2,2.2c.5-1.1.9-2.2,1.3-3.3.4-1.3.9,6.1-3,6.5a11.5,11.5,0,0,1-3.2-.2s-3.2-1.9-3-5.2A19.08,19.08,0,0,1,1017.2,7.6Z" transform="translate(0.04 120)"/><path class="cls-12" d="M1018.7-14.1s.4-3.5.7-3,1.2,1.5.2,2.3,0,2.7-.2,3.7S1018.5-9.7,1018.7-14.1Z" transform="translate(0.04 120)"/><path class="cls-10" d="M1023.1-22.9s1.2,1.1,1,1.8a2.78,2.78,0,0,0,.4,2.2,5.26,5.26,0,0,1,1.5,4.1c-.3,2.2.2,7.7,0,9.5a50.55,50.55,0,0,0,.2,5.5c0,2,.3,1,.4-1s.2-5.1.3-7.6-.3-9-1.2-11.4S1025.2-22.2,1023.1-22.9Z" transform="translate(0.04 120)"/><path class="cls-8" d="M1014.2,43s-.9,4.4.1,13c.3.1.8-.3,1.2-.3a7.72,7.72,0,0,0,1.5-.2s.4,3.2.4,1.7-.2-12.7-.2-12.7S1015.9,44.8,1014.2,43Z" transform="translate(0.04 120)"/><path class="cls-9" d="M1027.1,47.6c0-2.9-.3-5.2-.2-6.5a27.64,27.64,0,0,0-.8-9.5c-.6-1.2-.4-2.8-1.9-3-6.5-2.9-7.8,1.7-8.4,5.1a1.47,1.47,0,0,1,1.1,1.7c-.2,4.1,0,6-.1,6.6-.2,2,.3,4.4.1,10.3.1,2.6.3,8.2-1.3,7.5.9,3.5-.7,5.2.4,8a6.67,6.67,0,0,0,4.1,2.8,5.44,5.44,0,0,0,5.6-3c.3.1.5-1.7.7-1.6v-.7a4.53,4.53,0,0,1,.3-1.6c.6-3.2,0-5.7.4-7.1C1026.7,54.6,1027.1,51.3,1027.1,47.6Z" transform="translate(0.04 120)"/><path class="cls-4" d="M1022.8,39.1c-.3-1.2-1.8-7.1-3-6.7-2.1.6-1.6,6.5-1.6,8.1-.1,3.1.1,6.5.3,9.9.1,1.2,1.2,2.9,0,2.9-.1,2.1-.5,2.6,1,2.6-.6,3.4.5,4.6,2.8,3.2,1.7-1,.4-4.6.7-4.2-.2-1.7-.4-3.3-.5-5-3.3-.5-2.1-2.8-2.8-3.6.5-.5,1.1,0,2,.5a11.27,11.27,0,0,1,.5-3.2c-.6-.5-.8-2.2-.8-2.1C1021.7,40.7,1020,37.6,1022.8,39.1Z" transform="translate(0.04 120)"/><path class="cls-6" d="M1015.5,43.9v5.4c0,1.5.7-1,.7-1s.5,4.1.5,6c0,1.1-1.3.4-1.2,1.2.3,2.7,1.9,2.7,1.9,1.6,0-2.1-.1-13.6-.1-13.6Z" transform="translate(0.04 120)"/><path class="cls-8" d="M1024.6,43.9c-.8,4.1.3,6.9,0,13.4-1,2-.7,3.7-.5,6-1.2-1.8-1.2,1.3,0,1.3v-.7c.6.1.3.8,0,1.3-1,0-.6-1.8-2-1.3.3-.6,1.1-2.5-.5-2,.3-.6.6-1.2,0-1.3.2-1,.4.1,1,0,.7-2.5-1.3-1.3-1-3.4.7.8.8.3,1.5,0,0-1.3-1.6-.5-1.5-2-.1-2.1,1.7-3,.5-4.7h.5c0-2.5.5-1.9,0-4V45.2c1.5.3.4-3.1,1.5-3.4C1024.7,42,1024.6,42.9,1024.6,43.9Z" transform="translate(0.04 120)"/><path class="cls-8" d="M1023.8,31.4c0-2.5-5.1-5.8-6.5-.9.2.1-1.5,5.4.1,8.1,1-.8.4-5.1.5-5.6.3-2.6,1.8-2.8,1.9-2.7s1.1-.4,1.5,1a31.78,31.78,0,0,1,1,5.2l.3,4.1s1.6,1.7,1.9-1.4C1024.7,38.4,1023.8,32.2,1023.8,31.4Z" transform="translate(0.04 120)"/><path class="cls-6" d="M1017.2,58.6s-.4,3.7.4,5.4a2.54,2.54,0,0,0,3.3,1.7h.1a1.38,1.38,0,0,0,1.2-1.6V64l2,2.2c.5-1.1.9-2.2,1.3-3.3.4-1.3.9,6.1-3,6.5a11.5,11.5,0,0,1-3.2-.2s-3.2-1.9-3-5.2A20.35,20.35,0,0,1,1017.2,58.6Z" transform="translate(0.04 120)"/><path class="cls-12" d="M1018.7,36.9s.4-3.5.7-3,1.2,1.5.2,2.3,0,2.7-.2,3.7S1018.5,41.4,1018.7,36.9Z" transform="translate(0.04 120)"/><path class="cls-10" d="M1023.1,28.2s1.2,1.1,1,1.8a2.78,2.78,0,0,0,.4,2.2,5.26,5.26,0,0,1,1.5,4.1c-.3,2.2.2,7.7,0,9.5a50.55,50.55,0,0,0,.2,5.5c0,2,.3,1,.4-1s.2-5.1.3-7.6-.3-9-1.2-11.4S1025.2,28.8,1023.1,28.2Z" transform="translate(0.04 120)"/><path class="cls-8" d="M1015.6,96s-.4,4.4,1.6,12.9c.3.1.8-.4,1.2-.5a8.33,8.33,0,0,0,1.5-.4s.8,3.1.6,1.6-1.7-12.6-1.7-12.6S1017.5,97.7,1015.6,96Z" transform="translate(0.04 120)"/><path class="cls-9" d="M1028.9,99.1c-.3-2.9-.9-5.1-1-6.4a27.63,27.63,0,0,0-1.9-9.4c-.7-1.1-.8-2.7-2.2-2.8-6.8-2.1-7.5,2.7-7.7,6.1a1.5,1.5,0,0,1,1.3,1.5c.3,4.1.7,5.9.7,6.6,0,2,.8,4.3,1.4,10.2.4,2.5,1.3,8.1-.4,7.6,1.3,3.4,0,5.3,1.3,7.9a6.79,6.79,0,0,0,4.4,2.3,5.51,5.51,0,0,0,5.2-3.6c.3,0,.3-1.8.5-1.6a.37.37,0,0,0-.1-.3.6.6,0,0,1-.1-.4,8.6,8.6,0,0,1,.1-1.6c.2-3.3-.7-5.7-.5-7.1C1029.4,106,1029.4,102.8,1028.9,99.1Z" transform="translate(0.04 120)"/><path class="cls-10" d="M1023.6,91.2c-.4-1.2-2.7-6.8-3.8-6.3-2,.9-.8,6.7-.7,8.2a89.76,89.76,0,0,0,1.5,9.8c.2,1.1,1.5,2.7.4,2.9.2,2.1-.1,2.6,1.3,2.5-.1,3.5,1.1,4.5,3.2,2.9,1.6-1.2-.2-4.7.2-4.3a38.64,38.64,0,0,1-1-4.9c-3.3-.1-2.4-2.6-3.3-3.3.4-.6,1.1-.1,2.1.2a8.52,8.52,0,0,1,.2-3.2c-.7-.4-1-2.1-1.1-2C1022.7,92.9,1020.6,90,1023.6,91.2Z" transform="translate(0.04 120)"/><path class="cls-6" d="M1017,96.8s.4,3.9.6,5.4.5-1.1.5-1.1,1,4,1.3,5.9c.2,1.1-1.2.6-1,1.3.7,2.6,2.2,2.5,2.1,1.4-.3-2-1.7-13.5-1.7-13.5Z" transform="translate(0.04 120)"/><path class="cls-8" d="M1026,95.7c-.3,4.1,1.2,6.9,1.6,13.3-.7,2.1-.3,3.8.2,6.1-1.4-1.6-1.1,1.4.2,1.3l-.1-.7c.6.1.4.7.2,1.3-1,.1-.8-1.7-2.1-1.1.2-.6.8-2.6-.7-1.9.2-.6.4-1.3-.2-1.3.1-1,.4,0,1-.1.4-2.6-1.5-1.1-1.4-3.2.7.7.8.2,1.5-.2-.2-1.3-1.7-.3-1.7-1.8-.3-2,1.3-3.2-.1-4.7l.5-.1c-.3-2.5.3-2-.5-4l-.1-.7-.1-.7c1.6.1,0-3.1,1-3.5C1025.8,93.8,1025.9,94.7,1026,95.7Z" transform="translate(0.04 120)"/><path class="cls-8" d="M1023.7,83.4c-.3-2.5-5.8-5.2-6.5-.1.2,0-.8,5.5,1,8.1.9-.9-.2-5.1-.2-5.6-.1-2.7,1.5-3,1.6-3s1-.6,1.7.8a27.57,27.57,0,0,1,1.6,5.1l.8,4s1.8,1.5,1.8-1.6C1025.4,90.2,1023.8,84.2,1023.7,83.4Z" transform="translate(0.04 120)"/><path class="cls-6" d="M1020.5,111.2s.1,3.7,1,5.3a2.67,2.67,0,0,0,3.5,1.3.1.1,0,0,0,.1-.1,1.45,1.45,0,0,0,1-1.7v-.1l2.2,2a21.36,21.36,0,0,0,.9-3.4c.2-1.3,1.7,6-2.2,6.8a11.26,11.26,0,0,1-3.2.2s-3.4-1.5-3.6-4.8A17,17,0,0,1,1020.5,111.2Z" transform="translate(0.04 120)"/><path class="cls-12" d="M1019.3,89.5s0-3.6.4-3,1.4,1.3.5,2.3.3,2.7.3,3.7S1019.7,93.9,1019.3,89.5Z" transform="translate(0.04 120)"/><path class="cls-10" d="M1022.6,80.3s1.3,1,1.2,1.6a2.86,2.86,0,0,0,.6,2.2,5,5,0,0,1,2,3.9c0,2.3,1.1,7.6,1.1,9.4s.6,3.5.8,5.4.4,1,.3-1.1-.4-5.1-.6-7.6-1.4-8.9-2.6-11.1S1024.8,80.6,1022.6,80.3Z" transform="translate(0.04 120)"/><g id="StucksSeiten"><g id="Seiten"><g class="cls-21"><path class="cls-22" d="M1123.87,453.84a413.38,413.38,0,0,1,30.32-44.73,4.66,4.66,0,0,0,1-2.28,1.9,1.9,0,0,0-2-2.32q-1.53-.13-10.77,2.09a46.46,46.46,0,0,1-6.69,1.31c-1.5-.13-2.17-1.11-2-3q.13-1.63,2.37-2.58,3.42-1.47,18.17-4.48,10.77-2.19,14.25-1.91c3,.25,4.4,1.56,4.2,3.95a6.38,6.38,0,0,1-1.17,3q-4.12,6.35-5.68,9,15.31-11.09,28-10,7.77.64,11.07,5.54a12.7,12.7,0,0,1,2.18,8.51q-.45,5.52-4.86,14-1.1,2.07-7.66,13.05c-2.47,4.26-3.77,7.06-3.88,8.43a2.74,2.74,0,0,0,2.2,3.26c.54.18,3.51.26,8.94.22,2.67,0,4.8,0,6.37.11,2.38.2,3.5,1.22,3.34,3.06s-1.27,2.53-3.39,2.5q-14.62.14-21.19,1.24-10.12,1.63-27.92,7.89a10.25,10.25,0,0,1-3.66.73c-1.56-.13-2.28-1-2.14-2.65s1.25-2.78,3.38-3.63q6.38-2.46,14.92-5,2.79-3.89,11.78-18.06,10.65-16.94,11.16-23.16a7.27,7.27,0,0,0-1.79-5.81,8.33,8.33,0,0,0-5.65-2.62q-9.81-.81-22.76,9.14a78.26,78.26,0,0,0-20.72,24.22c-2,3.54-3,5.78-3.13,6.74q-.23,2.86,3.75,3.19l7.27.49c4.49.37,7.14.73,7.94,1.06a2.41,2.41,0,0,1,1.53,2.6c-.17,2-1.68,2.95-4.54,2.71a147.8,147.8,0,0,0-18.87-.73,115.5,115.5,0,0,0-15.58,1.71q-7.67,2-15.93,3.63a7.2,7.2,0,0,1-2.28.22,2.17,2.17,0,0,1-2.25-2.66q.18-2.24,3.14-3.23A115.27,115.27,0,0,1,1123.87,453.84Z" transform="translate(0.04 120)"/></g><g class="cls-21"><path class="cls-22" d="M1113.8,419.37q-17.41-1-49,1.32l-3.31.24a28.61,28.61,0,0,0-4.64,12.69q-.55,6.74,4.6,10.36a16.32,16.32,0,0,0,8.21,2.73q7,.57,22.7-3.28,6.86-8.28,10.89-12.38,4.15-4.28,6-4.13a2.17,2.17,0,0,1,2.25,2.65,5.08,5.08,0,0,1-1.47,2.86c-.15.2-1.77,1.88-4.84,5.06q-8.74,8.85-21.66,30.73c-1.13,2-2.2,3-3.23,2.92-2-.16-2.9-1-2.78-2.39q.23-2.85,8.27-15.57a5.68,5.68,0,0,0,.89-2c0-.68-.29-1.05-1-1.11a12,12,0,0,0-2.19.33q-15.77,4-23.12,3.35-8.07-.66-12.55-6.18a16.09,16.09,0,0,1-3.85-12q1.15-14,13.79-26.34a67.18,67.18,0,0,1,22.8-14.48q12.43-4.85,23.57-3.93a16.4,16.4,0,0,1,9.86,4,12.77,12.77,0,0,1,4.45,11Q1117.94,411.58,1113.8,419.37Zm-9.88-6.16q3.78-6,4.08-9.65a6.44,6.44,0,0,0-2.3-5.84,9.1,9.1,0,0,0-5.29-2q-7.35-.62-16.18,4.12-10.44,5.63-15.2,12.23a3.12,3.12,0,0,0-.62,1.28c-.07.75.38,1.2,1.33,1.35q1.13.09,16.64-.9Q1093.61,413.39,1103.92,413.21Z" transform="translate(0.04 120)"/></g><g class="cls-21"><path class="cls-22" d="M1015.63,450.24a137.28,137.28,0,0,1,10.24-13.51c4.47-5.07,7.48-7.57,9.06-7.5s2.52,1,2.44,2.78a5.66,5.66,0,0,1-1.79,3.3,143.72,143.72,0,0,0-13.42,15.94,170.64,170.64,0,0,0-11,19.12c-1.13,2.27-2.45,3.38-3.95,3.31s-2.31-1-2.23-2.86q.09-2.16,5.11-11.17A7,7,0,0,0,1011,457a1.5,1.5,0,0,0-1-1.69,53.35,53.35,0,0,0-6.22-.89q-18.18-2.24-17.51-17.39.72-16.5,23.89-46.06-3.92.24-12.28,1.31c-3.37.4-5-.33-4.93-2.17q.09-2.06,3.51-2.82a135.71,135.71,0,0,1,19.22-2.85,187.33,187.33,0,0,1,23.24-19.92q7.53-5.42,9.27-5.34c1.84.08,2.73.91,2.66,2.48a4,4,0,0,1-1.34,2.61l-5.33,4.48q-10.67,9.18-10.79,12.05c-.06,1.3.69,2,2.27,2.05.34,0,.92,0,1.74,0q7.91-.06,15.28.26a37.4,37.4,0,0,1,6.85.72,2.37,2.37,0,0,1,2,2.65,2.58,2.58,0,0,1-2.27,2.67c-.49.05-3.39,0-8.72-.28q-10.86-.37-25.47.53a153.46,153.46,0,0,0-13.65,18.69q-12.36,19.47-12.76,28.8a11.87,11.87,0,0,0,4,9.92,14.92,14.92,0,0,0,9.59,3.5C1013,450.33,1014.12,450.32,1015.63,450.24Z" transform="translate(0.04 120)"/></g><g class="cls-21"><path class="cls-22" d="M928,436.89l.94-1.46q15.45-24,31-43.75c1.3-1.61,2-2.72,2-3.33.09-1.09-.44-1.69-1.6-1.78q-2.25-.18-17.93,4.18a8.71,8.71,0,0,1-2.72.5c-1.5-.12-2.18-1-2.06-2.54a2.87,2.87,0,0,1,1.54-2.34q5.09-3.08,24-6.46,9-1.64,12.05-1.38,5,.42,4.71,4a6.66,6.66,0,0,1-1.06,2.9q-1.3,2-9.33,12.09-5.28,6.76-16.54,22.3-6.75,9.42-7,12.19t3.56,3l13.41.9c2.86.23,4.21,1.31,4,3.21-.17,2.05-1.78,2.94-4.85,2.69a137.57,137.57,0,0,0-20.45-.24,111.44,111.44,0,0,0-15,2.47q-7.34,1.67-14,3.68a8.58,8.58,0,0,1-2.8.39,2.35,2.35,0,0,1-2.44-2.87c.12-1.5,1.25-2.68,3.37-3.53A139,139,0,0,1,928,436.89Zm64.88-91a7.24,7.24,0,0,1,5.15,2.48,7.13,7.13,0,0,1,1.51,5.38,7.68,7.68,0,0,1-3.37,6,9.19,9.19,0,0,1-6.19,1.45,7,7,0,0,1-5.53-2.82,6.72,6.72,0,0,1-1.26-4.74,8,8,0,0,1,2.6-5.34A8.8,8.8,0,0,1,992.92,345.93Z" transform="translate(0.04 120)"/></g><g class="cls-21"><path class="cls-22" d="M924,395.18q-17.41-1-49,1.33l-3.31.24A28.65,28.65,0,0,0,867,409.43q-.56,6.75,4.6,10.36a16.3,16.3,0,0,0,8.22,2.73q7,.59,22.69-3.27,6.86-8.29,10.9-12.38,4.16-4.29,6-4.14a2.18,2.18,0,0,1,2.25,2.66,5.17,5.17,0,0,1-1.47,2.86q-.24.28-4.84,5.06Q906.6,422.15,893.7,444q-1.69,3-3.23,2.92c-2-.16-2.9-1-2.78-2.39q.22-2.86,8.27-15.57a5.6,5.6,0,0,0,.88-2c.06-.68-.29-1.05-1-1.11a11.16,11.16,0,0,0-2.18.33q-15.76,3.94-23.12,3.35-8.07-.68-12.56-6.18a16.15,16.15,0,0,1-3.84-12q1.15-14,13.79-26.33a66.88,66.88,0,0,1,22.8-14.48q12.42-4.85,23.57-3.93a16.34,16.34,0,0,1,9.86,4,12.74,12.74,0,0,1,4.44,11Q928.08,387.41,924,395.18ZM914.06,389q3.78-6,4.09-9.64a6.49,6.49,0,0,0-2.3-5.85,9.13,9.13,0,0,0-5.29-2q-7.35-.6-16.18,4.12-10.44,5.63-15.21,12.23a3.51,3.51,0,0,0-.62,1.29c-.06.75.39,1.2,1.33,1.34q1.13.09,16.64-.89Q903.77,389.21,914.06,389Z" transform="translate(0.04 120)"/></g><g class="cls-21"><path class="cls-22" d="M858.41,359.16a40.36,40.36,0,0,1,17.9,19.68,42.83,42.83,0,0,1,2.57,26.1q-4.41,21.32-22.82,32.32a21.34,21.34,0,0,1-.13,8.23q-2.77,13.39-13.52,19.79a1.57,1.57,0,0,1-2.07,1.4l-.53-.48c-.28,1.32-.88,1.89-1.82,1.69l-1.1-.23a6.61,6.61,0,0,1,.1,2,1.19,1.19,0,0,1-1.58,1.06,1.41,1.41,0,0,1-.88-.79c-.25,1.16-.77,1.66-1.57,1.5-.54-.12-.89-.92-1.07-2.41-.65,1.08-1.37,1.54-2.17,1.37l-.51-.59a1.81,1.81,0,0,1-2,1,1.32,1.32,0,0,1-1.06-.94,43.51,43.51,0,0,1-11.09-1.09,34.19,34.19,0,0,1-10.56-4.13l-.34,1.63a27.08,27.08,0,0,1-9.69,16.22q-7.59,6.07-16,4.33A20.72,20.72,0,0,1,764.23,477q-4.79-8-2.52-18.92l.33-1.63a28.61,28.61,0,0,1-14,.5q-12.93-2.69-19.55-12.55t-4-22.69A39.9,39.9,0,0,1,735,402.1a50.46,50.46,0,0,1,20.79-12.94q-9.84-10.67-6.51-26.74a30.24,30.24,0,0,1,8.4-15.45,32,32,0,0,1,15.57-8.74,39.51,39.51,0,0,1-1.49-22.66q3.76-18.17,21-26.63t37.52-4.25Q851,289,862.57,303.84t7.67,33.59A40.51,40.51,0,0,1,858.41,359.16Zm-51,64.68a35,35,0,0,1,0-10.83,23.29,23.29,0,0,1,2.19-6c-1.21-.58-1.77-1.1-1.67-1.57A4.67,4.67,0,0,0,810.9,402a55.1,55.1,0,0,0-11.16-7.29Q787.5,400.23,772,397A35,35,0,0,1,758,391.07a49.59,49.59,0,0,0-20.25,12.35,37.23,37.23,0,0,0-10.36,18.67q-2.68,12.95,2.86,21.83t18.1,11.48a29.83,29.83,0,0,0,14.21-.36,28.68,28.68,0,0,1,7-11.62q4.43-4.21,8.55-3.36,2.31.48,1.73,3.28-.63,3-5,6.82A36.38,36.38,0,0,1,764,456.39l-.29,1.41q-2.13,10.27,2.21,17.39t13.3,9a18.08,18.08,0,0,0,15.32-3.64,23.21,23.21,0,0,0,8.81-14.18l.44-2.11q-4.4-3.59-4.28-4.17l.5-.38a30.94,30.94,0,0,0,3.84,3.23q.89-12.34-6.67-20.46l-.58-.72.5-.39q1.41.3,4.92,6.37t2.59,15.59a28.54,28.54,0,0,0,11,4.34q7.44,1.53,10.9,1l1.47-1,1.21.73a1.56,1.56,0,0,1,1.89-1.06l.76.4a9,9,0,0,1,.07-2.36c.22-1.05.66-1.5,1.33-1.36.4.08.78.44,1.14,1.09.25-1.25.68-1.8,1.29-1.68s1,1.19,1.13,3.15c.64-1.41,1.29-2,2-1.9l.76.4c.49-1,1.14-1.47,2-1.3l.65-.11q10-5.94,12.59-18.28a29.33,29.33,0,0,0,.29-7.47q-13.07,6.28-23.84,4.05a41.27,41.27,0,0,1-4.89-1.26,46.7,46.7,0,0,1-.72,5.52Q823.29,457.08,818,456a1.7,1.7,0,0,1-1.52-2.26c.33-1.63,1.07-2.33,2.21-2.09q1.2.24.93,1.59c-.17.81.08,1.29.75,1.43s1.21-.53,2-1.9a23.46,23.46,0,0,0,2.18-6.73q.36-1.75.74-5.57-14.43-5.19-17.81-15.63ZM822.94,344q-5.41-3.22-10.39-10.64L811.36,332q-1.82-.37-7.73,5t-8.09,15.81q-1.62,7.81,1.63,13.4t10.89,7.17a20.06,20.06,0,0,0,9-.69l1.31-.22q9.52-3,17.28-1.4,9.35,1.94,13.19,9.48a24.93,24.93,0,0,1,1.91,16.85A24,24,0,0,1,842.65,411q-6.36,5.49-18.76,9.35l-1.1.26q-11.09,3.54-13.93,4.16h-1.25a58.85,58.85,0,0,0-13,3.36,30.3,30.3,0,0,0-8.69,5.87l-.5-.59c.22-1.06,2.08-2.79,5.57-5.16q.36-1.74-5.07-6.7t-17.09-7.36a27.05,27.05,0,0,0-17.42,2.26q-8.67,4.06-10.27,11.85A11.25,11.25,0,0,0,742.5,437a10.82,10.82,0,0,0,7.3,4.72q6.93,1.44,12.68-3.58l.86-.66.06.74q-.24,1.17-4.46,3.57a13.64,13.64,0,0,1-9.83,1.25,11.64,11.64,0,0,1-7.75-5.08q-2.62-4-1.37-10.09,2.44-11.81,14.2-17.4a38.5,38.5,0,0,1,25-2.86q18.1,3.75,24.18,15.93l.64,1,3.6-.71,1.05,0q9.73-2.49,13.8-4.45l1.1-.25q11.45-5.67,14.7-21.43a22.34,22.34,0,0,0-1.78-15.22,15.48,15.48,0,0,0-11.16-8.4,15.64,15.64,0,0,0-7.25.08l-1.26,0c-1.09.18-3.81.95-8.19,2.31a24.57,24.57,0,0,1-12.49.82,14.28,14.28,0,0,1-10-7.33q-3.33-6-1.71-13.74,2.32-11.26,13.64-19.1a40.43,40.43,0,0,1,10.52-5.47q20.1-6.5,26.12-10.89l2-1.51.3.55q-.35,1.72-11.24,7.26-.27,1.29,3.35,5.25t11.9,5.69q5.25,1.08,8.8-1.52a11.27,11.27,0,0,0,4.46-7,22.83,22.83,0,0,0,.32-3.58,9.55,9.55,0,0,1,.41,4.09q-1.74,8.44-10,13.07t-16.46,2.94a27.94,27.94,0,0,1-4.43-1.41Zm1.17.25-2.89,14a35.86,35.86,0,0,1,24.5-3.54,48,48,0,0,1,11.51,3.59,38.19,38.19,0,0,0,11.92-21.17q3.57-17.2-8.31-31.43t-32.45-18.48a54.46,54.46,0,0,0-35.39,4q-16.62,7.92-20.07,24.57a38.69,38.69,0,0,0,1.92,22.26,13.34,13.34,0,0,1,5.19-.14,8,8,0,0,1,4.75,2.73,5.26,5.26,0,0,1,1.21,4.62q-.56,2.64-3.77,2-5.85-1.2-8.8-7.77a26.87,26.87,0,0,0-13.74,8,30,30,0,0,0-7.7,14.87q-3.43,16.55,5.94,25.89a52.69,52.69,0,0,1,24.93-1,73.62,73.62,0,0,1,17,5.71,41.5,41.5,0,0,0,14.59-10.82l.67-.71L819,363l-2.31-1.45a41.11,41.11,0,0,0-6.37,6l-.35-.31a42.49,42.49,0,0,1,5.76-6.1q-4.12-2.79-4-3.5l.5-.38a41.07,41.07,0,0,0,4.44,3.35,12.67,12.67,0,0,1,3.19-1.77l3.11-15c.25-1.16.57-1.7,1-1.62S824.38,343,824.11,344.28Zm-38.76,35,.31.55q-.18.81-4.36,2.32t-10.31.23a13.47,13.47,0,0,1-8.75-5.78,13.15,13.15,0,0,1-1.92-10.46,15,15,0,0,1,6.1-9.59q4.82-3.39,9.61-2.4c3.53.73,5,2.42,4.47,5.05-.27,1.33-1,1.86-2.21,1.61s-1.73-1.29-1.36-3.07c.26-1.24-.51-2-2.32-2.43q-3.72-.76-7.74,2.21t-5.29,9.12a11.5,11.5,0,0,0,1.85,9.27,12,12,0,0,0,7.63,5.15q8.93,1.85,13.82-1.51Zm12.53,14.86a86,86,0,0,0-15.13-4.34,48.67,48.67,0,0,0-21.82.7,28.1,28.1,0,0,0,11.6,5.2A49.62,49.62,0,0,0,797.88,394.11Zm-33.19,60.67a34.53,34.53,0,0,0,9.72-5.76q3.66-3.25,4.12-5.47a1.79,1.79,0,0,0-1.6-2.39q-2.31-.48-5.95,2.71T764.69,454.78Zm10.47-115.3a15.88,15.88,0,0,0,3.25,4.5,9,9,0,0,0,3.86,1.59c.81.17,1.3-.21,1.5-1.15a3.78,3.78,0,0,0-.82-3.14,5,5,0,0,0-3.06-1.91A11.71,11.71,0,0,0,775.16,339.48Zm57.54-36.19a23.37,23.37,0,0,1,9.42,8.12,13.21,13.21,0,0,1,2.2,10.12q-1.35,6.5-4.42,5.85c-1.3-.27-1.85-.88-1.64-1.85s1.24-1.14,3.19-.74c.8.17,1.43-.89,1.9-3.15a12.73,12.73,0,0,0-2-9.59,20.75,20.75,0,0,0-9.2-7.65l-1.15.49-.94-1-1.43-.66-1.26.83c-.49-.1-.86-.62-1.1-1.56l-1.21-.25-1.42,1-1.09-1.56-6-.39a2.2,2.2,0,0,0,1.77,2.06l1.61.34c-1.7.78-2.85,1.11-3.45,1a5.81,5.81,0,0,1-4.33-2.84c-.29,1.4-1,2-2.1,1.75l-1.41-1-.44.15c-.23,1.09-.68,1.56-1.34,1.43l-1.33-.64-.47.26c-.19.94-.72,1.31-1.58,1.13l-.35-.3a27.44,27.44,0,0,0-9.71,6.91,19.46,19.46,0,0,0-4.81,8.9,36,36,0,0,0-.59,6.92c-.4-.08-.65-.84-.73-2.28a15,15,0,0,1,.25-4q2.41-11.66,15.14-17.47c.23-1.11.75-1.59,1.55-1.43l1.1.23c.53-1.18,1.12-1.71,1.8-1.57a1.28,1.28,0,0,1,.9.67l.65-.1c.6-1.5,1.35-2.15,2.25-2l1.28,1.12.6-.36a5.09,5.09,0,0,1,2.66-2.47,5.26,5.26,0,0,1,3.08-.48c1.4.3,2.06.67,2,1.14a4,4,0,0,0-3.79,1.64,33,33,0,0,1,5.67.41c.69-.88,1.38-1.26,2.07-1.11l1.16,1.7,1,.2c.49-.7,1-1,1.5-.9l1,1.8,1.56.56,1.1-.5C832.26,302.24,832.55,302.62,832.7,303.29ZM811.23,400.4l3.57-17.24a44.63,44.63,0,0,1-13.42,10.71A55.68,55.68,0,0,1,811.23,400.4Zm11.06,18.93a53.3,53.3,0,0,0-9.63-15.72l-.31,1a3.32,3.32,0,0,0,.61,2.07c-.08.39-.81.56-2.2.52a24.93,24.93,0,0,0-2.35,6.31,31.19,31.19,0,0,0,.08,10.22l.21,1q3.25,9.54,16.6,14.37a50.7,50.7,0,0,0-2.65-18.53Zm-5.45-39.94q.61-1,2.88-3.76a14.73,14.73,0,0,1-3.26,5.62L812.37,401l.3.55q5.75-6.46,13.67-4.82a8.88,8.88,0,0,1,5.54,3.09,5.84,5.84,0,0,1,1.19,4.86c-.56,2.72-1.73,3.89-3.49,3.53-1.05-.22-1.43-1-1.16-2.31a1.3,1.3,0,0,1,1.28-1.13,1.38,1.38,0,0,0,1.31-1.25q.93-4.53-5.39-5.85-6.93-1.43-12.41,4.84a59.42,59.42,0,0,1,10.08,16.54l.36,1.29q3.36,12.86,2.63,19c.68.14,1.54.36,2.55.65s1.84.5,2.45.63a30.5,30.5,0,0,0,11.8-.11A35.1,35.1,0,0,0,855,436.06q-1.8-9-7.52-13.22c-3.3,1.42-6.19,1.88-8.66,1.36-2.75-.57-4-1.64-3.63-3.23a3.11,3.11,0,0,1,2.11-2.34,6.58,6.58,0,0,1,3.77-.28,23.38,23.38,0,0,1,6.94,2.9,26.87,26.87,0,0,0,9.35-7.73,25.83,25.83,0,0,0,5.16-10.77l-.9.3c-.46-.09-.72-.27-.78-.52a7.63,7.63,0,0,1,.26-2c.34-1.63.77-2.4,1.29-2.29l.67.75q1.56-18-11.2-25.64l-.91-.68.5-.38q3.61.75,8.69,7.27T864,399.06c.08-.38.42-.52,1-.39s.61,1,.26,2.66-.69,2.35-1.09,2.26a1.18,1.18,0,0,1-.81-.65q-3.21,12.45-14.91,19.39,5.13,4.1,7.33,13.17A47.15,47.15,0,0,0,868.88,422a51.05,51.05,0,0,0,7.39-17.6,42.69,42.69,0,0,0-2.1-25,39.2,39.2,0,0,0-16.65-19.17q-12.43,9.93-28.83,6.54a32.1,32.1,0,0,1-8.58-3.12ZM819.19,362l.39-1.87a4.63,4.63,0,0,0-2,1A13.62,13.62,0,0,0,819.19,362Zm37.17-2.52a43.77,43.77,0,0,0-10.86-3.7q-11.94-2.47-24.51,3.59l-.62,3a33.6,33.6,0,0,0,8.4,2.94,36.87,36.87,0,0,0,14.8.06A28,28,0,0,0,856.36,359.45Zm-9.73,62.69a24.3,24.3,0,0,0-5.57-2.44c-1.94-.4-3,0-3.31,1.31-.22,1.05.58,1.77,2.39,2.14C841.61,423.45,843.77,423.12,846.63,422.14Z" transform="translate(0.04 120)"/></g></g><g id="Stucks"><g class="cls-21"><path class="cls-22" d="M661.66,361q9.52-10.74,12.8-10.47a2.14,2.14,0,0,1,2.26,2.55q-.13,1.53-2.37,3.72a116.68,116.68,0,0,0-10.83,11.66q-2.43,3.3-7.43,11.53-2.13,3.42-3.87,3.28-2.46-.19-2.25-2.76.16-1.83,5.51-10.66a6.52,6.52,0,0,0,1-2.79,4.5,4.5,0,0,0-1.67-3.43q-3.72-3.5-11.08-4.1-7-.59-11.22,2.58A9.49,9.49,0,0,0,628.5,369q-.3,3.58,2.88,7.44a61.67,61.67,0,0,0,7,6.13,66,66,0,0,1,8.78,8.34q4.94,6.17,4.46,12.09-.52,6.24-6,11.75-4.82,4.75-13.51,6.71a46.17,46.17,0,0,1-13.77.93q-10-.83-23.41-8a73.35,73.35,0,0,0-9.57,13.72c-1,1.84-2.28,2.7-3.91,2.56-1.43-.12-2.07-1.06-1.93-2.83q.32-3.78,8.76-15.23,9.39-12.7,17.77-19.63,3.53-2.79,5.46-2.64c1.78.15,2.59,1.08,2.45,2.78a4.89,4.89,0,0,1-1.68,2.95q-.24.29-4.66,4.14-5.45,4.8-5.68,7.76c-.13,1.57.71,3,2.51,4.43q5.35,3.83,14.65,4.6c5.45.44,10-.21,13.53-2q7.08-3.42,7.55-9.25.33-4-3.63-8.33a77.81,77.81,0,0,0-7.3-6.36,60.18,60.18,0,0,1-9.06-8.66q-4-5.47-3.54-10.79.69-8.37,8.9-13.16,7.14-4.24,17.26-3.41Q651.39,355.75,661.66,361Z" transform="translate(0.04 120)"/></g><g id="Abostroph" class="cls-21"><path class="cls-22" d="M607.94,322.91q-3.32,4.2-5.37,2.83c-1-.67-1.49-2-1.4-3.87a12.09,12.09,0,0,1,2.16-5.95,9.27,9.27,0,0,1,3.47-3.36,2.59,2.59,0,0,1,2.74,0q4.08,2.7,2.17,17.92A64.45,64.45,0,0,1,609.27,342a13.12,13.12,0,0,1-1.38,3.14c-.79,1.2-1.45,1.63-2,1.28-.24-.16-.34-.55-.29-1.17.07-.29.41-1.74,1-4.38Q609.43,329.07,607.94,322.91Z" transform="translate(0.04 120)"/></g><g class="cls-21"><path class="cls-22" d="M528.92,365q3.76,24.38,6.08,31.26a6,6,0,0,0,5.7,4.48c.34,0,.88,0,1.64,0q7.08.27,11,.59c3.41.28,5,1.38,4.87,3.28s-1.62,2.61-4.42,2.52a125.68,125.68,0,0,0-25.51,1.2,144.68,144.68,0,0,0-23.17,6.53,7.15,7.15,0,0,1-2.93.58c-1.57-.13-2.29-.88-2.18-2.24a4.41,4.41,0,0,1,2.57-3.7q6.23-3.19,22-6.83-1.63-7.65-3.73-19.75L519,373.05l-.63-3.55q-18.76,8-23.52,10.82-7.31,11.24-7.54,14.09-.27,3.27,3.92,3.62,2.65.21,7.08.27c2.26.05,4.37.16,6.35.32q4,.33,3.75,3.19c-.12,1.5-1.05,2.38-2.79,2.65q-.83,0-14.38-.26-20.58.06-35.5,6.34a4.92,4.92,0,0,1-2.21.54q-3.78-.31-2.92-3.22,1-3.63,19.49-8.07l.71-1.18q12.62-20.78,25.82-38.72,12.93-17.14,29.91-35.91a5.58,5.58,0,0,0,1.69-3.06c.1-1.22-.53-1.89-1.89-2s-4,.32-8.24,1.28q-7.12,1.57-8.55,1.35c-1.49-.12-2.16-1.14-2-3.05q.16-2,3.74-2.88,9.13-2.24,23-4.59,9.29-1.61,12.45-1.34,3.78.31,3.54,3.27A7.5,7.5,0,0,1,548,317.3q-.24.39-5.87,6.31-24.89,26.14-40.73,47.47,25.23-11.61,52.1-23.08-4.25.27-10.17,1.12a66.3,66.3,0,0,1-8.21,1c-1.57-.13-2.27-1.11-2.12-2.95.1-1.23,1.06-2.11,2.89-2.64q4.64-1.38,23.58-2.8a184.79,184.79,0,0,1,28.43-.34c3,.25,4.42,1.26,4.27,3s-1.84,2.77-5,2.57q-11.16-.7-17.47.93Q556.55,351.85,528.92,365Z" transform="translate(0.04 120)"/></g><g class="cls-21"><path class="cls-22" d="M476.28,340.83q14.3-12.4,16.75-12.2a2.34,2.34,0,0,1,2.43,2.87c-.08,1-.85,2.09-2.32,3.21a115.3,115.3,0,0,0-12.93,10.87q-4.05,4.2-10.95,13.09c-1.16,1.55-2.25,2.28-3.27,2.2a2.18,2.18,0,0,1-2.25-2.65q.18-2.14,5.24-8.63a10.13,10.13,0,0,0,1.53-2.44q1.2-3.3-5.44-3.85-13.59-1.11-27.36,8.66-11.25,8-16.15,18.73a24.08,24.08,0,0,0-2.3,7.94,10.84,10.84,0,0,0,3.45,9.34,11.8,11.8,0,0,0,7.25,3.27q13.17,1.08,36.68-12a2.89,2.89,0,0,1,2.51-.52,1.58,1.58,0,0,1,1,1.83q-.19,2.46-9.06,7.59-21.6,12.42-39.37,11-8.28-.68-12.42-5.44-3.94-4.55-3.37-11.49,1.05-12.78,12.91-24.46a70.65,70.65,0,0,1,27.71-16.65,49,49,0,0,1,19.15-2.64A46,46,0,0,1,476.28,340.83Z" transform="translate(0.04 120)"/></g><g class="cls-21"><path class="cls-22" d="M372.85,377.49q-21.62,21.38-38.68,20-6.85-.56-10.74-4.59-4-4.23-3.42-10.87,1.32-16.15,26.77-40.4c1.34-1.26,2.05-2.3,2.11-3.11q.19-2.36-3.25-1.71c-1.88.32-5.8,1.31-11.77,2.94a9.7,9.7,0,0,1-3.44.54c-1.5-.12-2.18-1-2.05-2.54q.17-2,3-3,6.36-2.35,20.82-5.49,8.89-1.94,12.58-1.64c3.07.25,4.49,1.71,4.27,4.36a6.36,6.36,0,0,1-1.86,3.86q-.57.68-11.19,11-22.26,21.72-23.27,34-.63,7.67,7.75,8.35,8.58.71,20.7-7.76a127.55,127.55,0,0,0,24.15-22.19q8.53-10,8.86-13.88c.15-1.91-.65-2.94-2.43-3.08q-1.53-.14-14.35,3.14a10.57,10.57,0,0,1-3,.47c-1.43-.12-2.07-1.06-1.93-2.83.09-1.09.85-1.95,2.27-2.59q8.1-3.36,26.47-6.57a31.69,31.69,0,0,1,6.84-.67c3.61.29,5.29,2,5,5.14-.13,1.57-1.22,3.88-3.25,6.94q-2.69,3.88-15.53,19.91Q380.82,382,380.5,385.73c-.13,1.57.66,2.43,2.36,2.57a35.25,35.25,0,0,0,6.87-1,36.93,36.93,0,0,1,7.39-1c1.91.15,2.79,1.12,2.65,2.89q-.19,2.35-3.74,2.88a151.74,151.74,0,0,0-27.13,7.13A11,11,0,0,1,365,400q-3.48-.28-3.21-3.56T372.85,377.49Z" transform="translate(0.04 120)"/></g><g class="cls-21"><path class="cls-22" d="M284,388.09A137.46,137.46,0,0,1,294.77,375q7-7.34,9.34-7.15c1.7.14,2.48,1.09,2.33,2.86a5.57,5.57,0,0,1-1.91,3.24,143.48,143.48,0,0,0-14,15.41A171.46,171.46,0,0,0,278.79,408c-1.22,2.23-2.57,3.29-4.07,3.16s-2.28-1.11-2.12-2.95q.16-2.14,5.53-11a7,7,0,0,0,1-2.59,1.49,1.49,0,0,0-1-1.73,54.65,54.65,0,0,0-6.18-1.13q-18.08-2.93-16.83-18.05,1.35-16.44,25.62-45.11-3.91.09-12.31.84c-3.38.27-5-.52-4.84-2.36q.17-2,3.61-2.68a138.22,138.22,0,0,1,19.31-2.12,187.66,187.66,0,0,1,24-19q7.72-5.13,9.47-5c1.83.15,2.69,1,2.56,2.58a4,4,0,0,1-1.44,2.56l-5.5,4.28q-11,8.76-11.24,11.62c-.11,1.3.62,2,2.19,2.14.34,0,.92,0,1.74,0q7.9.24,15.26.84a38.62,38.62,0,0,1,6.82,1,2.38,2.38,0,0,1,1.93,2.74A2.56,2.56,0,0,1,330,328.7c-.48,0-3.38-.18-8.7-.61q-10.83-.79-25.47-.45a154.29,154.29,0,0,0-14.36,18.16q-13.08,19-13.85,28.29a11.91,11.91,0,0,0,3.6,10.06,15,15,0,0,0,9.46,3.87C281.39,388.08,282.52,388.1,284,388.09Z" transform="translate(0.04 120)"/></g><g class="cls-21"><path class="cls-22" d="M277.87,271.64l1.62-2.13q4.5-6,7.23-9.08Q289,258,291,258.21t1.92,2.94a5.93,5.93,0,0,1-1.14,2.68q-.24.39-9.16,12.52-6.12,8-14.35,24.33-1.84,3.66-3.37,3.53-3.37-.27-3.17-2.73.27-3.27,7.13-15.46a11.68,11.68,0,0,0,1.59-4.29q.46-5.62-17.12-7.07-19.2-1.57-33,6.34-10,5.76-10.65,13.22-.49,5.92,4.17,13.1,3.12,4.57,13.95,16.78a87.35,87.35,0,0,1,10,13.38,25.73,25.73,0,0,1,3.37,15.3q-1.11,13.59-13.79,23.76A55.6,55.6,0,0,1,203,387.6a70.13,70.13,0,0,1-20,1.13,57.55,57.55,0,0,1-24.79-7.59,68.51,68.51,0,0,1-7.12-4.7,133.33,133.33,0,0,0-8.24,13.83c-.9,1.77-2.17,2.6-3.8,2.46-1.43-.12-2.08-1-1.95-2.63s1.88-5.3,5.23-11a125.35,125.35,0,0,1,23.81-29.42q4.35-4,6.28-3.8a2.26,2.26,0,0,1,2.35,2.76,3.59,3.59,0,0,1-.84,2.09c-.5.58-2.19,2.26-5.1,5q-7.23,6.71-7.51,10.08a5.56,5.56,0,0,0,1.88,4.58,32.8,32.8,0,0,0,7.51,5q9.38,4.78,22.36,5.85t22.35-4q12.83-7.07,13.9-20.15a23.41,23.41,0,0,0-3.83-14.72,130.72,130.72,0,0,0-11.28-14.2q-12-13.85-14.86-19.53a21.92,21.92,0,0,1-2.73-11.85q1-12,15.44-20.13,18.66-10.41,49.31-7.88A92.79,92.79,0,0,1,277.87,271.64Z" transform="translate(0.04 120)"/></g></g></g>
</svg>
