<?xml version="1.0" standalone="no"?>
<!DOCTYPE svg PUBLIC "-//W3C//DTD SVG 20010904//EN"
 "http://www.w3.org/TR/2001/REC-SVG-20010904/DTD/svg10.dtd">
<svg version="1.0" xmlns="http://www.w3.org/2000/svg"
 width="948.000000pt" height="948.000000pt" viewBox="0 0 948.000000 948.000000"
 preserveAspectRatio="xMidYMid meet">
<metadata>
Created by potrace 1.14, written by Peter Selinger 2001-2017
</metadata>
<g transform="translate(0.000000,948.000000) scale(0.100000,-0.100000)"
fill="#000000" stroke="none">
<path d="M4990 8980 c-30 -15 -90 -74 -136 -132 -18 -22 -131 -259 -140 -293
-1 -5 -14 -41 -27 -80 -34 -94 -118 -375 -152 -505 -15 -58 -31 -116 -35 -130
-7 -22 -13 -44 -25 -100 -2 -8 -12 -53 -24 -100 -11 -47 -29 -132 -41 -190
-12 -58 -24 -114 -26 -125 -2 -11 -6 -31 -9 -45 -3 -14 -7 -36 -10 -50 -3 -14
-7 -41 -10 -60 -3 -19 -9 -57 -15 -85 -14 -73 -27 -146 -34 -200 -7 -53 -17
-119 -23 -150 -3 -16 -6 -41 -8 -55 -8 -66 -16 -125 -20 -144 -2 -12 -7 -41
-10 -66 -3 -25 -9 -67 -13 -95 -4 -27 -7 -65 -7 -82 0 -18 -2 -33 -5 -33 -4 0
-6 -10 -6 -22 -1 -13 -4 -48 -8 -78 -10 -79 -13 -98 -20 -164 -4 -33 -9 -73
-11 -90 -12 -87 -18 -134 -20 -161 -2 -16 -5 -48 -8 -70 -5 -35 -13 -96 -22
-175 -2 -14 -6 -52 -9 -85 -4 -33 -8 -71 -11 -85 -2 -14 -7 -54 -11 -90 -4
-36 -8 -76 -10 -90 -6 -49 -15 -135 -17 -155 -2 -18 -9 -20 -72 -19 -89 1
-145 8 -280 38 -88 20 -119 32 -173 69 -152 102 -202 113 -271 58 -76 -60
-107 -180 -82 -316 13 -73 14 -77 24 -92 5 -7 5 -13 2 -13 -3 0 6 -23 22 -52
30 -55 84 -118 102 -118 6 0 11 -4 11 -8 0 -10 80 -46 135 -61 59 -15 146 -27
252 -35 28 -2 56 -7 62 -10 6 -4 11 -2 11 4 0 6 5 8 11 4 10 -6 35 -9 141 -15
l38 -3 -5 -95 c-3 -53 -8 -145 -10 -206 -2 -60 -7 -141 -10 -180 -23 -285 -27
-400 -40 -980 -10 -448 -14 -555 -20 -564 -3 -5 -1 -12 5 -16 6 -4 8 -11 4
-17 -3 -5 -8 -58 -9 -116 -3 -109 -12 -292 -21 -437 -3 -44 -7 -118 -10 -165
-5 -101 -11 -189 -18 -285 -3 -38 -8 -98 -10 -133 -3 -34 -8 -95 -12 -135 -4
-40 -8 -144 -8 -232 -1 -156 0 -162 27 -217 47 -95 133 -150 241 -154 109 -4
154 29 224 163 24 46 43 86 42 90 0 5 7 28 15 53 20 61 25 107 40 345 19 311
23 450 30 1044 3 278 8 508 11 512 2 4 0 10 -6 14 -6 4 -8 11 -4 16 3 5 8 159
10 342 5 377 9 491 18 506 4 6 2 11 -4 11 -6 0 -9 4 -6 9 6 9 11 67 21 256 4
61 8 139 11 175 13 208 16 248 19 280 2 19 4 50 4 68 l1 32 218 -5 c119 -3
273 -8 342 -10 69 -3 184 -7 255 -10 334 -12 404 -15 735 -30 63 -2 165 -7
225 -10 61 -2 110 -5 110 -5 0 -1 47 -3 105 -5 58 -2 150 -6 205 -10 55 -3
138 -7 185 -10 246 -13 391 -23 394 -27 10 -13 66 -139 66 -147 0 -6 4 -11 10
-11 5 0 9 -3 8 -7 -2 -8 11 -36 92 -208 77 -162 139 -294 168 -355 74 -158
116 -250 145 -310 17 -36 32 -67 32 -70 1 -3 17 -36 35 -75 19 -38 35 -72 35
-75 1 -5 23 -52 115 -245 21 -44 52 -114 70 -155 18 -41 39 -91 48 -110 9 -19
16 -37 17 -40 0 -3 3 -9 7 -15 3 -5 25 -55 48 -110 23 -55 49 -116 57 -135 9
-19 23 -53 33 -75 10 -22 24 -56 33 -75 8 -19 40 -96 72 -170 31 -74 62 -148
70 -165 7 -16 29 -70 50 -120 20 -49 42 -103 50 -120 7 -16 61 -151 120 -300
59 -148 112 -281 117 -295 17 -40 25 -62 44 -115 23 -64 57 -125 89 -159 13
-14 22 -26 19 -26 -3 0 14 -18 38 -40 39 -36 89 -67 128 -79 32 -9 130 -8 169
2 61 16 131 74 159 130 37 75 37 136 -2 282 -1 6 -10 27 -19 49 -9 21 -17 42
-17 46 0 8 -25 69 -61 147 -10 24 -19 45 -19 47 0 2 -39 89 -86 192 -83 183
-106 234 -109 244 -1 3 -16 36 -33 74 -18 38 -32 70 -32 72 0 2 -27 61 -61
131 -33 70 -69 146 -79 168 -9 22 -24 56 -33 75 -8 19 -32 71 -52 115 -20 44
-50 109 -67 145 -16 36 -41 90 -55 120 -15 30 -36 78 -48 105 -13 28 -52 111
-88 185 -36 74 -65 138 -66 142 -1 4 -28 61 -60 125 -32 65 -78 159 -101 208
-24 50 -100 207 -170 350 -70 143 -128 263 -129 267 -2 4 -36 73 -77 154 -41
81 -74 149 -74 151 0 2 12 1 28 -1 15 -3 50 -8 77 -11 28 -3 66 -7 85 -10 19
-2 58 -7 85 -10 28 -4 77 -10 110 -15 33 -5 80 -12 105 -15 25 -3 56 -7 70
-10 14 -2 43 -7 65 -10 22 -3 51 -7 65 -10 14 -2 41 -7 60 -9 19 -3 44 -8 56
-10 11 -2 45 -7 75 -10 30 -3 65 -8 79 -10 90 -15 208 -27 284 -30 77 -3 94 0
137 22 57 28 89 76 112 162 17 67 13 196 -6 228 -5 6 -5 12 -2 12 3 0 -6 22
-21 49 -22 41 -37 55 -88 80 -35 17 -74 33 -87 35 -13 3 -25 5 -26 7 -5 3 -15
5 -78 13 -32 4 -68 10 -80 12 -11 2 -47 6 -80 10 -76 7 -108 10 -170 18 -27 4
-72 9 -100 12 -70 7 -138 14 -270 28 -27 3 -81 8 -120 12 -38 3 -83 7 -100 9
-68 8 -214 22 -315 30 -79 7 -223 20 -247 23 -7 1 -12 5 -11 10 2 6 -31 86
-51 122 -24 45 -144 341 -141 349 1 2 -2 7 -7 10 -4 3 -14 23 -22 45 -7 21
-22 58 -32 82 -11 24 -18 46 -17 48 2 2 -5 13 -15 24 -10 11 -17 23 -15 28 1
5 -8 28 -20 50 -11 23 -18 44 -15 48 4 3 1 6 -5 6 -7 0 -12 5 -12 11 0 7 -9
30 -19 53 -41 86 -81 176 -81 181 0 2 -11 28 -24 57 -46 104 -66 151 -66 159
0 5 -11 32 -24 61 -13 29 -33 78 -45 108 -12 30 -26 64 -31 75 -5 11 -30 72
-56 135 -25 63 -55 134 -65 157 -10 23 -19 45 -19 48 0 3 -9 25 -19 48 -33 72
-102 241 -106 258 -2 9 -8 25 -14 35 -5 11 -33 78 -61 149 -29 72 -58 144 -65
160 -7 17 -50 122 -95 235 -45 113 -88 219 -95 235 -7 17 -20 48 -28 70 -16
42 -131 325 -146 360 -13 32 -47 111 -92 220 -23 55 -51 120 -62 145 -12 25
-22 47 -22 50 -6 20 -20 48 -33 63 -8 9 -12 17 -7 17 4 0 2 7 -5 15 -7 8 -20
28 -29 43 -52 91 -69 113 -101 130 -67 35 -242 3 -384 -71 -23 -11 -48 -22
-57 -24 -9 -1 -37 22 -65 55 -26 31 -56 63 -66 70 -9 7 -23 19 -31 27 -33 33
-192 42 -247 15z m452 -560 c62 -116 87 -160 108 -190 36 -52 191 -332 263
-476 82 -163 490 -1075 496 -1106 1 -5 10 -24 21 -43 11 -20 20 -42 20 -50 0
-8 5 -15 12 -15 6 0 8 -3 5 -6 -3 -4 -1 -16 5 -28 7 -11 13 -23 13 -26 1 -3
16 -36 33 -74 18 -38 32 -75 32 -82 0 -8 5 -14 10 -14 6 0 10 -6 10 -13 0 -7
23 -65 50 -128 28 -63 55 -123 59 -134 33 -77 45 -105 61 -140 10 -22 25 -56
33 -75 9 -19 26 -58 38 -85 12 -28 23 -52 24 -55 4 -11 26 -62 46 -108 21 -47
40 -90 64 -147 35 -82 182 -421 215 -497 21 -48 36 -89 32 -92 -6 -3 -147 0
-147 4 0 1 -43 3 -95 5 -93 3 -207 9 -405 21 -163 9 -264 14 -360 18 -49 3
-146 7 -215 11 -153 7 -291 13 -520 21 -96 3 -209 7 -250 9 -41 2 -178 6 -304
9 -125 3 -232 9 -238 12 -5 3 -7 13 -4 22 3 10 8 49 11 87 4 39 8 84 9 100 2
17 7 64 10 105 4 41 9 91 12 111 6 45 11 92 19 189 3 41 8 93 11 115 12 107
27 262 28 298 0 15 3 27 6 27 3 0 5 17 6 38 1 42 12 161 18 201 6 35 17 120
21 151 7 69 16 140 21 161 2 13 7 44 9 69 3 25 8 59 11 75 4 17 8 41 10 55 8
61 15 100 30 180 9 47 17 96 19 110 2 14 4 26 4 28 13 47 52 231 52 245 0 9 5
17 10 17 6 0 8 4 5 8 -3 5 13 78 35 163 23 85 42 161 44 169 2 8 4 16 5 18 2
1 3 5 4 10 4 17 41 133 68 212 16 47 30 90 32 95 9 38 41 122 50 134 6 8 9 16
7 18 -3 4 9 38 29 88 16 38 100 210 119 243 11 19 34 49 51 68 l31 35 23 -43
c13 -24 43 -81 68 -128z"/>
<path d="M2572 7588 c-29 -4 -63 -15 -77 -24 -25 -17 -33 -41 -51 -159 -3 -22
-9 -58 -13 -81 -4 -22 -7 -48 -5 -57 1 -11 -25 -36 -78 -72 -44 -30 -83 -55
-88 -55 -5 0 -10 -4 -12 -8 -1 -4 -50 -39 -108 -77 -58 -39 -107 -73 -110 -76
-3 -3 -43 -30 -90 -60 -47 -29 -89 -57 -95 -62 -5 -5 -48 -33 -95 -62 -47 -30
-92 -59 -100 -65 -8 -5 -37 -24 -65 -41 -27 -18 -72 -46 -100 -64 -64 -42
-294 -179 -365 -219 -30 -16 -73 -40 -95 -53 -22 -12 -57 -30 -77 -39 -21 -9
-38 -20 -38 -25 0 -5 -5 -9 -11 -9 -6 0 -79 -33 -162 -74 -146 -71 -200 -96
-297 -138 -62 -27 -84 -36 -90 -35 -3 1 -18 -6 -35 -15 -16 -9 -70 -36 -119
-60 -140 -67 -208 -147 -192 -223 3 -11 5 -25 5 -31 1 -6 9 -20 18 -32 10 -11
25 -30 33 -41 20 -28 94 -62 151 -68 75 -8 245 43 449 134 25 11 104 46 175
78 126 56 645 314 655 325 3 3 23 15 45 27 87 45 110 58 113 66 2 4 9 7 16 7
8 0 25 9 38 20 14 10 28 16 32 13 3 -3 6 -2 6 4 0 6 8 14 18 17 9 3 26 12 37
19 11 7 56 34 100 60 106 64 217 134 232 147 7 5 15 10 18 10 3 0 55 34 115
74 60 41 112 71 115 66 3 -5 3 -37 0 -72 -5 -63 -11 -149 -21 -308 -2 -46 -7
-107 -9 -135 -2 -27 -7 -99 -11 -160 -7 -112 -12 -180 -14 -180 0 0 -3 -47 -5
-105 -3 -58 -7 -127 -9 -155 -5 -55 -12 -150 -31 -445 -4 -58 -8 -130 -10
-160 -3 -30 -7 -91 -10 -135 -2 -44 -7 -118 -11 -165 -10 -147 -13 -192 -19
-295 -3 -55 -8 -129 -10 -165 -4 -75 -13 -219 -20 -335 -7 -105 -14 -251 -21
-400 -2 -66 -7 -165 -9 -220 -2 -55 -8 -183 -12 -285 -17 -436 -5 -1575 17
-1575 1 0 3 -9 5 -20 13 -72 62 -213 92 -264 51 -88 99 -114 203 -114 42 1 65
4 134 19 45 10 139 62 177 97 66 62 72 98 54 307 -4 47 -9 101 -10 120 -2 19
-4 35 -5 35 -1 0 -3 14 -5 30 -2 27 -10 98 -20 180 -2 17 -6 48 -9 70 -3 22
-9 69 -12 105 -9 85 -8 83 -17 97 -4 6 -3 14 3 18 6 4 8 10 5 15 -3 5 -8 29
-10 52 -3 24 -8 70 -12 103 -10 77 -9 606 1 845 4 102 10 228 12 280 4 107 11
266 19 415 3 55 7 152 10 215 3 63 7 147 10 185 2 39 6 120 10 180 5 105 9
173 20 385 3 52 8 133 10 180 3 47 8 126 10 175 3 50 7 122 10 160 5 76 17
269 19 325 1 19 5 40 9 47 4 6 3 14 -3 18 -6 4 -8 10 -5 14 2 5 7 41 10 82 3
41 8 105 11 144 3 38 7 103 10 145 2 41 6 98 8 125 3 28 7 86 11 130 3 44 7
100 10 125 2 25 7 77 11 115 3 39 8 88 11 110 3 22 6 137 7 257 l1 216 32 35
c49 54 98 128 115 175 9 23 13 42 9 42 -3 0 -6 12 -5 28 1 15 -5 41 -14 57
-17 36 -92 106 -104 99 -4 -3 -8 -1 -8 4 0 5 -10 13 -22 17 -31 10 -26 8 -88
32 -31 12 -69 23 -85 26 -17 3 -46 8 -65 11 -58 11 -102 12 -158 4z"/>
</g>
</svg>
